<svg width="32" height="32" viewBox="0 0 32 32" fill="none" xmlns="http://www.w3.org/2000/svg">
<path fill-rule="evenodd" clip-rule="evenodd" d="M28.443 16.724C28.463 14.991 27.853 14.952 27.814 13.889C27.793 13.357 27.858 11.864 27.814 10.425C27.769 8.991 27.616 7.608 27.499 7.275C27.263 6.606 26.995 5.502 24.979 3.81C22.773 1.959 18.52 0.383996 16.159 0.344996C13.796 0.304996 11.04 1.487 8.91301 2.865C6.78701 4.243 6.27501 4.834 5.44901 6.015C4.62101 7.196 4.30601 8.023 4.50301 10.11C4.70001 12.197 4.74701 11.647 4.81801 13.575C4.87801 15.17 4.15301 15.663 4.18801 16.725C4.24001 18.312 4.83601 18.641 4.81801 19.245C4.80501 19.641 4.10901 20.138 4.18801 21.45C4.26801 22.786 4.54201 23.143 7.02301 24.6C8.63301 25.545 10.527 25.899 10.488 26.49C10.43 27.355 10.213 28.774 10.174 29.64C10.135 30.506 10.528 30.585 11.433 30.9C12.34 31.215 14.465 31.884 16.789 31.845C19.112 31.805 20.097 31.333 21.199 30.9C22.301 30.467 22.459 30.073 22.459 29.325C22.459 28.577 21.829 27.042 21.829 26.49C21.829 25.939 23.719 25.348 25.924 24.285C28.13 23.222 28.104 22.16 28.13 21.45C28.177 20.112 27.499 19.797 27.499 19.245C27.499 18.168 28.431 17.984 28.443 16.724ZM9.85801 19.874C8.75501 19.914 6.39301 19.914 6.39301 16.724C6.39301 12.305 8.75501 11.802 10.488 11.684C12.221 11.566 12.457 11.369 13.324 11.999C14.88 13.131 14.78 15.136 14.268 16.724C13.893 17.887 13.48 18.338 12.693 18.929C11.906 19.52 10.961 19.834 9.85801 19.874ZM17.104 24.914L16.67 23.306L16 23.313L15.528 24.915C13.716 24.423 12.988 23.695 13.008 22.71C13.028 21.726 13.579 20.702 14.582 19.875C15.587 19.048 15.749 18.92 16.473 18.93C17.164 18.94 17.225 19.074 17.733 19.56C18.83 20.611 19.54 21.311 19.624 22.71C19.706 24.086 18.107 24.855 17.104 24.914ZM22.773 19.874C21.67 19.834 20.726 19.52 19.938 18.929C19.151 18.338 18.686 17.902 18.363 16.724C17.956 15.241 17.753 13.131 19.309 11.999C20.175 11.369 20.411 11.566 22.144 11.684C23.875 11.802 26.239 12.305 26.239 16.724C26.239 19.914 23.876 19.914 22.773 19.874Z" fill="currentColor"/>
</svg>
