<svg width="512" height="512" viewBox="0 0 512 512" fill="none" xmlns="http://www.w3.org/2000/svg">
<rect width="512" height="512" rx="32" fill="#58262E"/>
<path d="M125.901 432.773C125.558 432.773 125.043 432.26 124.357 431.234C124.013 431.234 123.67 431.063 123.327 430.72L114.573 434.313L106.335 437.393L97.5817 439.959C95.8654 440.643 94.8356 440.301 94.4923 438.933C94.149 437.222 94.6639 436.195 96.037 435.853L104.79 432.773L113.029 430.207L121.782 426.614C120.752 424.219 119.723 422.337 118.693 420.969L111.484 424.048L102.731 427.128L93.4625 430.72C92.0894 431.405 91.0596 431.063 90.3731 429.694C89.6865 428.325 90.2014 427.299 91.9178 426.614L100.671 422.508C101.014 422.508 101.186 422.508 101.186 422.508L109.939 419.942L117.148 416.863C117.148 416.863 117.32 416.863 117.663 416.863C117.663 416.863 118.006 416.691 118.693 416.349C118.349 415.323 118.349 413.783 118.693 411.73L112.514 413.783L104.79 417.889L97.0668 421.482C95.6937 422.166 94.6639 421.824 93.9774 420.455C93.2909 418.744 93.6341 417.718 95.0072 417.376L102.731 413.783L110.454 409.677C110.454 409.677 110.626 409.677 110.969 409.677L118.178 406.597C118.521 406.597 118.693 406.597 118.693 406.597C118.693 404.202 118.521 402.491 118.178 401.465L110.969 404.031L101.701 406.597L93.4625 409.164C92.0894 409.848 91.0596 409.335 90.3731 407.624C90.0298 406.255 90.5447 405.4 91.9178 405.058L100.671 401.978L109.424 399.412L118.693 396.846C118.693 394.793 118.693 393.253 118.693 392.226L109.424 395.819L100.671 398.385L92.4327 401.978C91.0596 402.32 90.0298 401.807 89.3433 400.438C89 399.07 89.5149 398.043 90.888 397.359L99.1264 394.279C99.1264 394.279 99.298 394.279 99.6413 394.279C99.6413 393.937 99.6413 393.766 99.6413 393.766L107.88 391.713L116.633 387.607C116.633 387.607 117.32 387.436 118.693 387.094C118.693 384.699 118.693 382.988 118.693 381.961L110.454 386.067L102.216 388.634L95.0072 391.2C93.6341 391.542 92.6043 391.029 91.9178 389.66C91.5745 388.291 92.0894 387.436 93.4625 387.094L101.186 384.527L108.91 381.448L116.633 377.855C116.633 377.855 117.32 377.513 118.693 376.829C118.693 375.118 118.693 373.92 118.693 373.236L111.484 376.315L104.275 380.421L96.037 383.501C94.6639 384.185 93.6341 383.843 92.9476 382.474C92.261 381.106 92.776 380.079 94.4923 379.395L102.216 376.315L109.424 372.209L118.693 368.103C118.693 366.05 118.693 363.997 118.693 361.944L110.969 365.024L102.216 368.103C102.216 368.103 102.044 368.103 101.701 368.103L93.9774 370.67C92.6043 371.012 91.5745 370.499 90.888 369.13C90.5447 367.761 91.0596 366.735 92.4327 366.05L100.671 363.997L109.424 360.405L118.693 357.325C118.693 355.614 118.693 354.074 118.693 352.706L111.484 355.272L102.216 358.352L93.4625 360.918C92.0894 361.602 91.0596 361.089 90.3731 359.378C90.0298 358.009 90.5447 357.154 91.9178 356.812L101.186 353.732L109.939 351.166L118.693 347.573C118.693 345.178 118.693 342.954 118.693 340.901L110.969 343.98C110.969 343.98 110.969 344.151 110.969 344.494L102.216 346.547L93.4625 350.653C92.0894 351.337 91.0596 350.824 90.3731 349.113C89.6865 347.744 90.0298 346.889 91.4029 346.547L100.156 342.441C100.499 342.441 100.671 342.441 100.671 342.441L109.424 339.874L117.148 336.795C117.148 336.795 117.32 336.624 117.663 336.282C117.663 336.282 118.006 336.282 118.693 336.282C119.036 333.886 119.036 332.176 118.693 331.149L109.939 335.255L92.4327 342.441C91.0596 343.125 90.0298 342.783 89.3433 341.414C88.6567 340.045 89 339.019 90.3731 338.335L99.1264 334.229L108.395 331.149L116.633 327.043C116.976 327.043 117.835 326.701 119.208 326.016C119.208 323.621 119.036 321.91 118.693 320.884L110.969 324.477L102.731 327.556L93.9774 330.636C92.6043 330.978 91.5745 330.465 90.888 329.096C90.5447 327.385 91.0596 326.359 92.4327 326.016L109.424 320.371L116.633 316.778C116.633 316.778 116.633 316.607 116.633 316.265C116.976 316.265 118.006 316.094 119.723 315.751C119.723 313.698 119.551 312.33 119.208 311.645C118.864 311.645 118.693 311.645 118.693 311.645L111.484 314.212L102.731 316.265L94.4923 319.344C93.1192 320.028 92.0894 319.515 91.4029 317.804C91.0596 316.436 91.5745 315.58 92.9476 315.238L101.701 312.159L109.939 309.592L119.723 306.513C119.723 304.118 119.379 302.407 118.693 301.38L110.454 303.947L102.731 307.539L94.4923 310.619C93.1192 311.303 92.0894 310.961 91.4029 309.592C90.7163 308.224 91.2312 307.197 92.9476 306.513L100.671 303.433L108.91 299.84L119.723 296.248C119.723 294.195 119.551 292.826 119.208 292.142C118.864 292.142 118.693 292.142 118.693 292.142L111.484 294.708L104.275 298.301C103.932 298.301 103.761 298.301 103.761 298.301L95.5221 301.38C94.149 301.722 93.1192 301.209 92.4327 299.84C92.0894 298.472 92.6043 297.445 93.9774 296.761L102.216 294.195L109.424 290.089C109.424 290.089 109.596 290.089 109.939 290.089L119.723 286.496C119.723 283.759 119.379 281.705 118.693 280.337L109.939 283.93L93.4625 290.089C92.0894 290.773 91.0596 290.431 90.3731 289.062C89.6865 287.693 90.2014 286.667 91.9178 285.983L99.6413 282.39C99.9846 282.39 100.156 282.39 100.156 282.39L108.395 279.824L117.148 276.231C117.148 276.231 117.32 276.231 117.663 276.231C117.663 276.231 118.349 276.06 119.723 275.718C119.723 273.665 119.723 272.296 119.723 271.611C119.379 271.611 119.208 271.611 119.208 271.611L111.484 274.178L103.246 276.744L95.5221 279.824C94.149 280.166 93.1192 279.652 92.4327 278.284C92.0894 276.915 92.6043 275.889 93.9774 275.204L101.701 272.638L109.939 269.558L119.723 266.479C119.723 264.084 119.551 262.373 119.208 261.346C119.208 261.346 119.036 261.346 118.693 261.346L110.969 263.913L102.731 266.479L94.4923 270.585C93.1192 271.269 92.0894 270.927 91.4029 269.558C90.7163 268.19 91.0596 267.163 92.4327 266.479L100.671 262.373C101.014 262.373 101.186 262.373 101.186 262.373L109.424 259.293L119.723 256.214C119.723 254.161 119.723 252.792 119.723 252.108C119.379 252.108 119.208 252.108 119.208 252.108L110.454 254.161L103.246 258.267L95.5221 261.86C94.149 262.886 93.1192 262.715 92.4327 261.346C91.7461 259.978 92.0894 258.78 93.4625 257.754L108.395 250.055C108.395 250.055 108.566 250.055 108.91 250.055L119.723 246.462C119.723 245.436 119.723 244.409 119.723 243.382C120.066 242.356 120.066 241.329 119.723 240.303L110.969 243.896L102.731 246.462L94.4923 249.542C93.1192 250.226 92.0894 249.713 91.4029 248.002C91.0596 246.633 91.5745 245.778 92.9476 245.435L109.424 239.276L120.237 235.684C120.237 233.288 119.894 231.749 119.208 231.064L111.484 233.631L103.246 237.737C102.902 237.737 102.731 237.737 102.731 237.737L94.4923 240.303C93.1192 240.987 92.0894 240.645 91.4029 239.276C91.0596 237.566 91.5745 236.539 92.9476 236.197L101.186 233.117L109.424 229.525C109.424 229.525 109.596 229.525 109.939 229.525L120.237 225.419C120.581 223.708 120.581 222.51 120.237 221.826L111.999 224.905L104.79 227.985L96.037 232.091C94.6639 232.775 93.6341 232.433 92.9476 231.064C92.261 229.696 92.6043 228.669 93.9774 227.985L102.731 223.879L109.939 220.286C109.939 220.286 110.111 220.286 110.454 220.286L120.752 216.18C120.752 215.838 120.752 215.496 120.752 215.153C120.752 214.811 120.752 214.298 120.752 213.614C120.752 212.245 120.409 211.219 119.723 210.534L111.484 213.614L103.246 216.18L94.4923 218.233C92.776 218.917 91.7461 218.404 91.4029 216.693C91.0596 215.325 91.5745 214.469 92.9476 214.127L102.216 211.561L109.939 208.994L118.178 206.428L120.752 205.402C121.096 203.349 121.267 201.638 121.267 200.269L110.969 204.375L103.246 207.968L95.0072 211.047C93.6341 211.39 92.6043 210.876 91.9178 209.508C91.5745 208.139 92.0894 207.112 93.4625 206.428L101.186 203.862L109.424 200.269L116.633 197.19C116.633 197.19 116.633 197.018 116.633 196.676L121.267 195.137C121.267 193.084 121.267 191.202 121.267 189.491L118.693 190.004L110.969 193.597L102.216 196.163L93.9774 198.216C92.261 198.558 91.2312 198.045 90.888 196.676C90.5447 195.308 91.0596 194.452 92.4327 194.11L101.186 191.544L109.424 188.977L116.633 185.898C116.976 185.898 117.148 185.898 117.148 185.898L121.267 184.358C121.267 182.647 121.267 181.108 121.267 179.739L110.454 183.332L101.186 186.924L92.4327 190.004C91.0596 190.346 90.0298 189.833 89.3433 188.464C89 186.753 89.5149 185.727 90.888 185.385L99.6413 182.305L108.91 179.226L121.267 174.606C121.267 172.896 120.924 171.698 120.237 171.014L103.761 178.199L94.4923 182.305C93.1192 182.99 92.0894 182.647 91.4029 181.279C90.7163 179.568 91.2312 178.541 92.9476 178.199L110.454 169.987L118.178 166.908L121.267 165.368C121.267 163.315 120.924 161.946 120.237 161.262L111.484 164.855L102.216 167.934L95.0072 170.5C93.6341 171.185 92.6043 170.842 91.9178 169.474C91.5745 168.105 92.0894 167.079 93.4625 166.394L100.671 163.315C101.014 163.315 101.186 163.315 101.186 163.315L109.939 160.748L118.178 157.156L120.752 156.129C120.752 153.392 120.237 151.681 119.208 150.997L110.969 154.589C110.969 154.589 110.969 154.761 110.969 155.103L103.761 157.156L96.037 160.748C94.6639 161.433 93.6341 161.091 92.9476 159.722C92.261 158.011 92.6043 156.985 93.9774 156.642L101.701 153.05C102.044 153.05 102.216 153.05 102.216 153.05L109.424 150.483L117.148 146.891L120.237 145.351C120.237 143.298 120.237 141.758 120.237 140.732C119.894 140.732 119.723 140.732 119.723 140.732L111.484 143.298L96.037 148.43C94.6639 149.115 93.6341 148.773 92.9476 147.404C92.6043 145.693 93.1192 144.667 94.4923 144.324L102.731 141.245L109.939 138.679L120.237 135.599C119.894 133.546 119.723 132.006 119.723 130.98C119.379 130.98 119.208 130.98 119.208 130.98L111.484 133.033L104.275 137.139L96.5519 141.245C95.1788 141.929 94.149 141.587 93.4625 140.218C92.776 138.85 93.1192 137.823 94.4923 137.139L109.424 128.927C109.424 128.927 109.596 128.927 109.939 128.927L119.723 125.847C119.723 123.452 119.379 121.741 118.693 120.715L109.939 123.794L101.701 127.387L93.4625 130.466C92.0894 131.151 91.0596 130.638 90.3731 128.927C90.0298 127.558 90.5447 126.703 91.9178 126.36L99.6413 123.281L107.88 119.688C107.88 119.688 108.051 119.517 108.395 119.175L119.208 115.582C119.208 113.187 119.036 111.476 118.693 110.45L110.454 113.016L102.731 116.095L93.9774 119.688C92.6043 120.03 91.5745 119.517 90.888 118.148C90.5447 116.78 91.0596 115.753 92.4327 115.069L100.671 111.476L108.91 108.91L119.208 105.317C119.208 104.633 119.208 103.948 119.208 103.264C119.208 102.58 119.208 101.553 119.208 100.184L111.484 103.777L102.731 106.857C102.731 106.857 102.559 106.857 102.216 106.857L93.4625 109.423C91.7461 109.765 90.7163 109.252 90.3731 107.883C90.0298 106.515 90.5447 105.488 91.9178 104.804L101.186 102.751L109.939 99.1579L117.663 96.0784C117.663 96.0784 118.178 95.9073 119.208 95.5651C119.208 95.223 119.208 94.8808 119.208 94.5387C119.208 93.8543 119.036 93.17 118.693 92.4856C118.693 91.8013 118.693 91.288 118.693 90.9459L110.969 94.5387L102.216 97.1049L93.9774 99.1579C92.261 99.8423 91.2312 99.329 90.888 97.6182C90.5447 96.2495 91.0596 95.3941 92.4327 95.0519L101.186 92.4856L109.424 90.4326L118.693 86.3266C119.036 84.6157 118.349 83.7603 116.633 83.7603L108.395 86.3266L99.6413 89.9194C98.2682 90.6037 97.2384 90.2615 96.5519 88.8928C96.2086 87.182 96.7235 86.1555 98.0966 85.8133L103.761 83.247C103.761 82.2205 104.275 81.5362 105.305 81.194L114.573 78.1145L120.752 76.5747C122.125 74.1796 123.842 72.1265 125.901 70.4157C127.961 68.7048 130.192 67.6783 132.595 67.3361C134.998 66.6518 137.401 66.1386 139.804 65.7964C141.177 65.7964 142.55 65.9675 143.923 66.3096C145.296 66.3096 146.497 66.4807 147.527 66.8229C149.244 66.8229 150.617 66.994 151.646 67.3361C154.736 67.6783 157.825 68.0205 160.915 68.3627C164.347 68.7048 167.78 69.047 171.213 69.3892C171.213 69.3892 171.384 69.3892 171.728 69.3892C187.175 72.4687 204.51 73.6663 223.733 72.982C242.956 71.9554 260.634 70.7578 276.768 69.3892C278.141 69.3892 279.342 69.3892 280.372 69.3892C295.133 68.3627 309.893 67.8494 324.654 67.8494C339.757 67.8494 354.861 67.1651 369.965 65.7964C373.054 65.7964 376.144 65.7964 379.233 65.7964C382.666 65.4542 386.099 65.112 389.531 64.7699C390.218 64.7699 391.419 64.5988 393.136 64.2566C394.509 64.2566 395.71 64.2566 396.74 64.2566C398.113 63.9145 399.486 63.9145 400.859 64.2566C403.605 64.5988 406.18 65.112 408.583 65.7964C410.986 66.4807 413.217 67.8494 415.276 69.9024C418.709 72.9819 420.597 76.4036 420.94 80.1675C421.627 83.9314 421.97 87.8663 421.97 91.9724C421.97 92.9989 421.97 93.8543 421.97 94.5387C422.313 99.6712 422.485 104.804 422.485 109.936C422.485 114.727 422.485 119.688 422.485 124.821C422.485 129.953 422.485 135.086 422.485 140.218C422.485 145.009 422.657 149.799 423 154.589C423 154.932 423 155.616 423 156.642C423 161.091 422.657 165.368 421.97 169.474C421.627 173.238 419.567 176.659 415.791 179.739C412.359 182.818 408.754 184.529 404.978 184.871C401.202 185.214 397.255 185.214 393.136 184.871C391.419 184.871 390.218 184.871 389.531 184.871C387.815 184.529 386.099 184.529 384.382 184.871L376.659 188.977L368.42 191.544C367.047 192.228 366.017 191.886 365.331 190.517C365.331 190.175 365.331 190.004 365.331 190.004L358.122 193.084C356.749 193.768 355.719 193.426 355.033 192.057C354.346 190.688 354.69 189.662 356.063 188.977L362.242 186.411L355.548 188.464L348.339 191.544C346.966 192.228 345.936 191.886 345.25 190.517C345.25 190.517 345.25 190.346 345.25 190.004L338.041 192.057C336.325 192.741 335.295 192.228 334.952 190.517C334.952 190.175 334.952 189.833 334.952 189.491L328.773 192.057C327.4 192.741 326.37 192.399 325.683 191.031C325.34 190.688 325.34 190.175 325.683 189.491L318.475 192.057C317.102 192.741 316.072 192.399 315.385 191.031C315.385 191.031 315.385 190.859 315.385 190.517L310.236 192.57C308.52 193.255 307.49 192.912 307.147 191.544C306.804 190.517 306.975 189.662 307.662 188.977L301.483 192.057C300.11 192.741 299.08 192.399 298.394 191.031C297.707 189.662 298.737 188.293 301.483 186.924L298.394 187.951L289.125 190.517C287.752 191.202 286.894 190.859 286.551 189.491C286.551 189.149 286.551 188.977 286.551 188.977L279.857 191.031C278.827 191.373 277.969 191.202 277.283 190.517L268.529 193.597C267.156 194.281 266.298 193.939 265.955 192.57C265.268 191.544 265.44 190.688 266.47 190.004L261.836 192.057C261.836 195.479 261.836 199.072 261.836 202.835C261.492 203.178 261.321 203.691 261.321 204.375C262.007 204.375 262.522 204.375 262.865 204.375C267.671 204.717 272.477 205.059 277.283 205.402C282.088 205.402 286.894 205.573 291.7 205.915C304.744 206.941 317.96 207.455 331.347 207.455C344.735 207.455 357.779 207.284 370.48 206.941C371.853 206.941 373.913 206.941 376.659 206.941C382.151 206.599 387.472 206.77 392.621 207.455C398.113 207.797 402.919 210.021 407.038 214.127C410.814 217.891 412.874 221.997 413.217 226.445C413.903 230.893 414.418 235.513 414.762 240.303C414.762 245.435 414.762 250.568 414.762 255.701C415.105 260.833 415.276 265.966 415.276 271.098C415.276 275.889 415.105 280.85 414.762 285.983C414.762 291.115 414.59 296.077 414.247 300.867C414.247 301.551 414.247 302.749 414.247 304.46C414.247 305.828 414.247 307.197 414.247 308.566C414.247 309.934 414.075 311.303 413.732 312.672C413.045 315.409 412.187 317.975 411.157 320.371C410.127 322.766 408.754 324.99 407.038 327.043C402.576 331.149 397.598 333.544 392.106 334.229C386.614 334.571 381.121 334.742 375.629 334.742C372.883 334.4 370.995 334.229 369.965 334.229C368.592 334.229 367.047 334.229 365.331 334.229C363.615 334.229 361.555 334.4 359.152 334.742C357.779 335.426 356.921 335.084 356.578 333.715C354.518 333.715 352.458 333.715 350.399 333.715L347.309 334.742C345.936 335.426 344.906 335.084 344.22 333.715C344.22 333.373 344.22 333.202 344.22 333.202C342.504 333.202 340.787 333.031 339.071 332.689C338.384 333.031 337.698 333.031 337.011 332.689C335.638 332.689 334.265 332.518 332.892 332.176L329.803 333.202C328.43 333.886 327.4 333.544 326.713 332.176C325.34 331.833 324.139 331.662 323.109 331.662L317.445 333.715C316.415 334.4 315.557 334.229 314.87 333.202L308.177 336.282C306.804 336.966 305.774 336.624 305.087 335.255C305.087 334.913 305.087 334.571 305.087 334.229L300.453 336.282C299.08 336.966 298.05 336.624 297.364 335.255C296.677 333.886 297.021 332.86 298.394 332.176L303.028 330.123C302.341 330.123 301.826 330.123 301.483 330.123L296.849 332.176C296.506 332.176 296.334 332.176 296.334 332.176L288.096 334.229C286.379 334.913 285.349 334.4 285.006 332.689L279.342 334.229C277.969 334.913 276.939 334.571 276.253 333.202C276.253 332.86 276.253 332.689 276.253 332.689L270.589 334.742C269.216 335.426 268.186 335.084 267.499 333.715C267.499 333.031 267.499 332.518 267.499 332.176C267.499 331.491 267.328 331.149 266.985 331.149L261.321 333.202C261.321 334.571 261.321 335.939 261.321 337.308C261.321 338.335 261.321 339.361 261.321 340.388C260.977 349.968 260.806 359.549 260.806 369.13C261.149 378.711 261.664 388.291 262.35 397.872C262.35 398.899 262.35 399.925 262.35 400.952C262.694 401.978 262.865 403.005 262.865 404.031C263.209 409.164 263.209 414.296 262.865 419.429C262.522 424.561 260.462 429.181 256.687 433.287C253.254 436.366 249.478 438.077 245.359 438.419C241.583 439.104 237.635 439.446 233.516 439.446C232.143 439.446 231.285 439.446 230.941 439.446C229.912 439.446 228.882 439.446 227.852 439.446C226.822 439.446 225.621 439.446 224.248 439.446L215.494 442.012L207.256 445.092C205.883 445.776 204.853 445.434 204.166 444.065C204.166 443.723 204.166 443.552 204.166 443.552L197.988 445.092C196.271 445.776 195.242 445.263 194.898 443.552C194.898 442.867 194.898 442.354 194.898 442.012L186.66 445.092C185.287 445.776 184.257 445.434 183.57 444.065C182.884 442.696 183.399 441.67 185.115 440.986L188.205 439.959L183.57 441.499L176.362 445.092C174.989 445.776 173.959 445.434 173.272 444.065C172.929 443.723 172.929 443.21 173.272 442.525L168.638 444.578C167.265 445.263 166.235 444.92 165.549 443.552C165.206 442.867 165.206 442.183 165.549 441.499L157.825 443.552C156.795 444.236 155.937 443.894 155.251 442.525L148.557 444.578C147.184 445.263 146.326 444.92 145.983 443.552C145.983 443.21 145.811 442.696 145.468 442.012L138.259 445.605C136.886 446.289 135.856 445.947 135.17 444.578C134.483 443.21 135.341 441.841 137.744 440.472C137.744 440.472 137.058 440.814 135.684 441.499L126.416 444.065C125.386 444.407 124.7 444.407 124.357 444.065L119.208 445.092C118.178 445.434 117.32 445.263 116.633 444.578L107.88 447.658C106.507 448.342 105.477 448 104.79 446.631C104.447 445.605 104.619 444.749 105.305 444.065C105.305 443.381 105.649 442.867 106.335 442.525L115.088 438.933L122.812 434.826C122.812 434.826 122.984 434.826 123.327 434.826L125.901 432.773ZM310.751 317.804C311.438 317.462 312.124 317.633 312.811 318.318C314.527 318.66 316.072 318.831 317.445 318.831L320.534 317.804C321.907 317.462 322.937 317.975 323.624 319.344C324.654 319.344 325.855 319.344 327.228 319.344L329.803 318.318C331.176 317.633 332.206 317.975 332.892 319.344C333.235 319.686 333.407 319.857 333.407 319.857C333.75 320.2 334.437 320.371 335.467 320.371L339.586 318.318C340.959 317.633 341.989 317.975 342.675 319.344C343.018 319.344 343.19 319.515 343.19 319.857L349.884 317.804C351.6 317.462 352.63 317.975 352.973 319.344C352.973 319.686 352.973 319.857 352.973 319.857L359.667 317.804C361.04 317.462 362.07 317.975 362.756 319.344C362.756 319.344 362.756 319.515 362.756 319.857L369.45 317.804C371.166 317.462 372.196 317.975 372.54 319.344C372.54 319.686 372.54 319.857 372.54 319.857L379.233 317.804C380.606 317.462 381.636 317.975 382.323 319.344C382.323 319.686 382.323 320.029 382.323 320.371L389.016 317.804C390.39 317.462 391.419 317.975 392.106 319.344C392.449 320.371 392.277 321.226 391.591 321.91C394.337 321.226 396.568 320.029 398.285 318.318C399.314 317.291 400.001 315.922 400.344 314.212C401.031 312.501 401.546 310.961 401.889 309.592C401.889 308.566 401.889 307.539 401.889 306.513C401.889 305.486 401.889 304.46 401.889 303.433C401.889 302.065 401.889 301.038 401.889 300.354C402.232 295.563 402.404 290.773 402.404 285.983C402.747 280.85 402.919 275.889 402.919 271.098C402.919 265.966 402.747 261.004 402.404 256.214C402.404 251.081 402.404 245.949 402.404 240.816C402.061 240.132 401.889 239.105 401.889 237.737C401.889 234.999 401.717 232.262 401.374 229.525C401.374 226.787 400.344 224.563 398.285 222.852C395.882 220.457 392.621 219.26 388.502 219.26C384.382 218.917 380.435 218.917 376.659 219.26C373.913 219.26 372.025 219.26 370.995 219.26C357.607 219.602 344.22 219.773 330.832 219.773C317.445 219.773 304.229 219.26 291.185 218.233C286.379 217.891 281.573 217.72 276.768 217.72C271.962 217.378 267.156 217.035 262.35 216.693C261.321 216.693 259.948 216.864 258.231 217.207C256.858 217.549 255.485 217.72 254.112 217.72C252.739 217.378 251.366 216.522 249.993 215.153C248.62 213.785 247.933 212.416 247.933 211.047C247.933 209.679 248.105 208.139 248.448 206.428C248.791 204.717 249.135 203.349 249.478 202.322C249.478 198.558 249.478 195.137 249.478 192.057C248.791 191.715 248.276 191.202 247.933 190.517C247.247 189.149 247.762 188.122 249.478 187.438C249.478 186.411 249.306 185.214 248.963 183.845C248.963 183.845 248.963 183.674 248.963 183.332C248.963 182.99 248.963 182.647 248.963 182.305C248.963 181.963 248.963 181.621 248.963 181.279C248.963 180.936 248.791 180.423 248.448 179.739C248.105 178.37 247.933 177.002 247.933 175.633C247.933 174.264 248.62 172.896 249.993 171.527C251.366 170.158 252.739 169.474 254.112 169.474C255.485 169.474 256.858 169.474 258.231 169.474C259.948 169.816 261.321 169.987 262.35 169.987C266.813 169.987 271.447 169.987 276.253 169.987C281.059 169.987 286.036 169.816 291.185 169.474C297.364 169.474 303.714 169.474 310.236 169.474C316.758 169.132 323.109 169.132 329.288 169.474C337.869 169.816 346.28 170.329 354.518 171.014C363.1 171.356 371.51 171.698 379.748 172.04C381.465 172.04 383.181 172.04 384.897 172.04C386.614 172.04 388.33 172.211 390.046 172.553C391.076 172.553 392.277 172.553 393.651 172.553C396.053 172.896 398.456 173.067 400.859 173.067C403.605 173.067 405.837 172.211 407.553 170.5C409.269 169.132 410.127 167.25 410.127 164.855C410.471 162.459 410.642 160.064 410.642 157.669C410.642 156.642 410.642 155.787 410.642 155.103C410.299 149.97 410.127 145.009 410.127 140.218C410.127 135.086 410.127 129.953 410.127 124.821C410.127 120.03 410.127 115.069 410.127 109.936C410.127 104.804 409.956 99.6712 409.613 94.5387C409.613 94.1965 409.613 93.17 409.613 91.4591C409.956 89.4061 409.956 87.182 409.613 84.7868C409.269 82.3916 408.411 80.3386 407.038 78.6278C406.008 77.9434 404.635 77.4302 402.919 77.088C401.546 76.7458 400.344 76.5747 399.314 76.5747C397.941 76.2326 396.053 76.2326 393.651 76.5747C391.934 76.9169 390.733 77.088 390.046 77.088C386.957 77.4302 383.696 77.7723 380.263 78.1145C377.174 78.1145 373.913 78.1145 370.48 78.1145C355.719 79.4832 340.787 80.1675 325.683 80.1675C310.923 80.1675 295.991 80.6808 280.887 81.7073C280.544 81.7073 280.2 81.7073 279.857 81.7073C279.514 81.7073 279.171 81.7073 278.827 81.7073C262.007 83.076 243.642 84.2735 223.733 85.3001C203.823 85.9844 185.802 84.6157 169.668 81.194C166.579 81.194 163.318 81.0229 159.885 80.6808C156.452 80.3386 153.191 79.9964 150.102 79.6542C149.415 79.3121 148.385 78.9699 147.012 78.6278C144.266 78.2856 142.207 78.1145 140.834 78.1145C139.804 78.1145 138.602 78.2856 137.229 78.6278C135.856 78.6278 134.655 79.141 133.625 80.1675C132.252 81.194 131.394 82.9049 131.05 85.3001C131.05 87.3531 131.05 89.4061 131.05 91.4591C131.394 92.8278 131.565 93.6832 131.565 94.0254C131.565 95.7363 131.565 97.4471 131.565 99.1579C131.565 100.527 131.565 101.895 131.565 103.264C131.565 112.503 131.737 121.741 132.08 130.98C132.423 140.218 132.767 149.628 133.11 159.209C133.453 168.105 133.625 177.344 133.625 186.924C133.625 196.163 133.453 205.231 133.11 214.127C133.11 216.864 133.11 219.26 133.11 221.313C132.08 240.816 131.737 260.32 132.08 279.824C132.423 298.985 132.08 318.147 131.05 337.308C131.05 344.494 131.05 351.679 131.05 358.865C131.05 365.708 131.05 372.723 131.05 379.908C131.05 381.277 131.05 382.817 131.05 384.527C131.05 385.896 131.05 387.265 131.05 388.634C131.05 395.135 131.05 401.636 131.05 408.137C131.05 408.822 131.05 409.848 131.05 411.217C130.707 413.612 130.707 415.323 131.05 416.349C131.394 417.718 131.737 419.087 132.08 420.455C132.767 421.482 133.453 422.679 134.14 424.048L139.804 428.154C140.147 428.154 140.662 428.154 141.348 428.154C154.393 427.47 167.608 427.128 180.996 427.128C194.383 426.785 207.599 426.785 220.643 427.128C222.36 427.128 224.076 427.128 225.792 427.128C227.509 427.128 229.225 427.128 230.941 427.128C231.628 427.128 232.658 427.128 234.031 427.128C236.434 427.47 238.837 427.641 241.239 427.641C243.986 427.299 246.217 426.272 247.933 424.561C249.993 422.166 251.023 419.087 251.023 415.323C251.023 411.559 250.851 407.795 250.508 404.031C250.164 401.636 249.993 399.754 249.993 398.385C249.306 388.805 248.791 379.224 248.448 369.643C248.448 359.72 248.62 349.968 248.963 340.388C248.963 338.677 248.963 336.966 248.963 335.255C248.963 333.544 248.963 331.833 248.963 330.123C248.963 329.438 248.791 328.241 248.448 326.53C248.448 324.819 248.448 323.279 248.448 321.91C248.448 320.542 249.135 319.173 250.508 317.804C251.881 316.094 253.254 315.238 254.627 315.238C256 315.238 257.545 315.409 259.261 315.751C260.977 316.094 262.35 316.265 263.38 316.265C270.246 316.265 276.596 316.265 282.432 316.265C286.894 316.607 291.528 316.949 296.334 317.291C301.14 317.633 305.946 317.804 310.751 317.804ZM325.169 181.792C324.825 181.792 324.482 181.792 324.139 181.792L319.505 183.845L325.169 181.792ZM278.827 184.871L276.253 185.385L267.499 189.491L275.738 185.898L278.827 184.871Z" fill="#201113"/>
</svg>
