<svg width="512" height="512" viewBox="0 0 512 512" fill="none" xmlns="http://www.w3.org/2000/svg">
<rect width="512" height="512" rx="32" fill="#201113"/>
<path d="M128.868 431.285C128.233 431.921 127.279 432.08 126.009 431.762C124.42 431.444 123.467 430.808 123.149 429.854C122.513 428.264 121.719 426.674 120.766 425.084C120.13 423.494 119.654 421.904 119.336 420.314C119.336 420.314 119.177 420.155 118.86 419.837C118.86 419.519 118.86 419.36 118.86 419.36C118.86 416.181 118.86 413.001 118.86 409.821C118.86 406.641 118.86 403.462 118.86 400.282C118.86 397.102 118.86 393.922 118.86 390.743C119.177 387.563 119.336 384.383 119.336 381.203C119.654 377.388 119.813 373.731 119.813 370.233C120.13 366.417 120.289 362.761 120.289 359.263C120.289 355.765 120.13 352.426 119.813 349.247C119.495 346.067 119.336 342.728 119.336 339.23C119.336 336.687 119.336 334.302 119.336 332.076C119.336 329.532 119.495 326.988 119.813 324.444C119.813 322.219 119.813 319.993 119.813 317.767C119.813 315.223 119.813 312.838 119.813 310.612C119.813 308.387 119.654 306.161 119.336 303.935C119.336 301.391 119.336 299.006 119.336 296.78C119.336 293.919 119.177 291.057 118.86 288.195C118.86 285.333 118.86 282.472 118.86 279.61C118.86 272.614 119.018 265.619 119.336 258.623C119.654 251.628 119.813 244.473 119.813 237.16C120.13 236.206 120.289 234.775 120.289 232.867C120.289 230.641 120.289 228.575 120.289 226.667C120.607 224.441 120.607 222.374 120.289 220.466C119.972 216.014 119.336 211.722 118.383 207.588C117.43 203.136 116.794 198.685 116.477 194.233C116.159 190.735 116 187.397 116 184.217C116 181.037 116.159 177.698 116.477 174.201C116.477 172.293 116.477 170.544 116.477 168.954C116.477 167.364 116.477 165.615 116.477 163.707C116.477 161.164 116.477 158.62 116.477 156.076C116.794 153.214 117.112 150.352 117.43 147.491C117.43 146.219 117.589 144.947 117.906 143.675C118.224 142.085 118.542 140.654 118.86 139.382C119.177 137.156 119.495 135.089 119.813 133.182C120.13 130.956 120.289 128.73 120.289 126.504C120.289 125.232 120.13 124.119 119.813 123.165C119.813 121.893 119.813 120.621 119.813 119.35C119.177 115.852 118.86 112.513 118.86 109.333C118.86 106.154 120.289 103.292 123.149 100.748C125.691 98.5221 128.55 97.2502 131.728 96.9322C134.905 96.6143 138.082 96.4553 141.26 96.4553C143.166 96.7733 144.596 96.9322 145.549 96.9322C150.315 96.6143 154.922 96.4553 159.37 96.4553C164.136 96.1373 168.902 95.9783 173.668 95.9783C180.34 95.6604 187.013 95.3424 193.685 95.0244C200.675 94.3884 207.506 93.2755 214.179 91.6856C219.898 90.4137 225.617 89.1418 231.336 87.8699C237.373 86.28 243.41 85.3261 249.447 85.0081C252.624 85.0081 255.801 85.3261 258.979 85.9621C262.156 86.598 265.174 87.234 268.034 87.8699C270.258 88.5059 272.482 88.9828 274.706 89.3008C277.248 89.6188 279.631 89.9368 281.855 90.2547C282.173 90.2547 282.332 90.2547 282.332 90.2547C289.004 91.5266 296.153 91.5266 303.779 90.2547C311.404 88.9828 319.189 87.3929 327.132 85.4851C332.216 84.2132 337.299 83.1003 342.383 82.1463C347.784 80.8744 352.868 80.2385 357.634 80.2385C359.54 79.9205 361.288 79.9205 362.877 80.2385C364.783 80.2385 366.531 80.2385 368.119 80.2385C372.25 80.5565 376.38 81.0334 380.511 81.6694C384.641 81.9873 388.295 83.7362 391.472 86.916C394.332 90.0958 395.762 93.7525 395.762 97.8862C396.079 101.702 396.079 105.518 395.762 109.333C395.762 109.333 395.762 109.492 395.762 109.81C395.444 114.58 394.809 119.35 393.855 124.119C392.902 128.571 392.108 133.182 391.472 137.951C390.519 143.039 389.884 148.126 389.566 153.214C389.566 158.302 389.725 163.548 390.043 168.954C390.043 169.908 390.043 171.339 390.043 173.247C390.36 176.744 390.36 180.083 390.043 183.263C390.043 186.443 388.931 189.622 386.706 192.802C384.482 195.664 381.623 197.572 378.128 198.526C374.633 199.162 371.296 199.957 368.119 200.911C366.531 201.229 365.101 201.706 363.83 202.341C362.559 202.659 361.129 202.977 359.54 203.295C356.363 203.931 353.186 204.567 350.009 205.203C346.831 205.839 343.654 206.157 340.477 206.157C337.935 206.475 335.234 206.475 332.374 206.157C329.833 205.839 327.291 205.521 324.749 205.203C322.843 204.885 321.413 204.567 320.46 204.249C317.282 203.931 314.105 203.613 310.928 203.295C307.75 202.977 304.573 202.5 301.396 201.865C298.854 201.229 296.312 200.593 293.77 199.957C291.228 199.003 288.528 198.367 285.668 198.049C283.762 197.731 281.855 197.572 279.949 197.572C278.043 197.572 276.136 197.731 274.23 198.049C272.641 198.049 271.529 198.049 270.894 198.049C268.034 198.049 265.174 198.049 262.315 198.049C259.455 197.731 256.596 197.413 253.736 197.095C252.148 196.777 250.877 196.3 249.923 195.664C250.559 197.254 250.877 198.367 250.877 199.003C250.877 200.593 250.877 202.182 250.877 203.772C251.194 205.362 251.512 206.952 251.83 208.542C251.83 211.404 251.83 214.584 251.83 218.081C251.83 218.717 251.512 219.989 250.877 221.897C250.241 223.487 250.082 224.441 250.4 224.759C250.4 224.759 250.4 224.6 250.4 224.282C250.4 224.282 250.718 224.123 251.353 223.805C251.989 223.169 253.26 222.851 255.166 222.851C260.25 222.533 265.333 222.215 270.417 221.897C275.501 221.579 280.426 221.261 285.191 220.943C288.687 220.625 292.023 220.625 295.2 220.943C298.377 221.261 301.555 221.579 304.732 221.897C306.638 222.215 308.545 222.533 310.451 222.851C312.357 223.169 314.423 223.328 316.647 223.328C320.46 223.646 324.272 223.646 328.085 223.328C332.216 222.692 336.346 221.897 340.477 220.943C341.748 220.943 343.018 220.784 344.289 220.466C345.56 220.148 346.831 219.989 348.102 219.989C349.055 219.989 350.009 219.989 350.962 219.989C351.915 219.671 353.027 219.353 354.298 219.035C356.84 218.717 359.382 218.399 361.923 218.081C364.783 217.763 367.484 217.763 370.026 218.081C371.932 218.081 373.838 218.399 375.745 219.035C377.651 219.671 379.399 220.625 380.987 221.897C383.529 224.759 384.959 228.416 385.277 232.867C385.912 237.001 386.548 240.817 387.183 244.314C387.501 245.586 387.66 246.699 387.66 247.653C387.977 248.607 388.295 249.72 388.613 250.992C389.566 255.762 390.36 260.531 390.996 265.301C391.949 270.07 392.267 274.999 391.949 280.087C391.631 284.538 390.996 288.99 390.043 293.442C389.407 297.893 388.772 302.186 388.136 306.32C387.818 307.91 387.501 309.5 387.183 311.089C387.183 312.679 386.865 314.11 386.23 315.382C385.277 317.29 384.165 319.198 382.894 321.106C381.623 322.696 380.034 324.126 378.128 325.398C374.95 327.306 371.455 328.419 367.643 328.737C363.83 328.737 360.176 328.578 356.681 328.26C354.457 328.26 352.868 328.26 351.915 328.26C350.009 327.942 348.102 327.783 346.196 327.783C344.607 327.783 342.86 327.783 340.953 327.783C337.458 327.783 333.963 327.624 330.468 327.306C326.973 326.988 323.319 326.67 319.506 326.352C311.563 325.398 303.461 324.762 295.2 324.444C286.939 324.126 278.996 324.603 271.37 325.875C266.922 326.511 262.633 327.147 258.502 327.783C254.372 328.101 250.241 328.26 246.111 328.26C245.157 328.26 243.728 328.101 241.821 327.783C241.821 327.783 241.504 327.624 240.868 327.306C240.868 327.306 240.709 327.306 240.391 327.306C240.391 327.942 240.709 328.896 241.345 330.168C242.298 331.44 242.774 332.394 242.774 333.03C243.41 336.528 244.045 340.025 244.681 343.523C245.316 346.703 245.634 350.042 245.634 353.539C245.634 356.401 245.475 359.263 245.157 362.125C244.84 364.986 244.522 367.848 244.204 370.71C243.887 373.254 243.41 375.798 242.774 378.341C242.457 380.885 242.457 383.429 242.774 385.973C242.774 389.153 242.933 392.332 243.251 395.512C243.887 398.692 244.204 401.872 244.204 405.052C244.204 405.687 244.363 406.482 244.681 407.436C244.681 408.708 244.681 409.98 244.681 411.252C244.999 412.524 244.999 413.796 244.681 415.068C244.363 416.976 243.887 418.883 243.251 420.791C242.616 422.699 241.504 424.289 239.915 425.561C238.644 427.151 237.055 428.105 235.149 428.423C233.56 429.059 231.813 429.695 229.906 430.331C228.318 430.649 226.729 430.808 225.14 430.808C223.552 430.808 221.963 430.808 220.374 430.808C218.786 431.126 217.197 431.285 215.609 431.285C214.02 431.603 212.431 431.762 210.843 431.762C205.759 432.08 200.516 432.08 195.115 431.762C190.031 431.762 184.948 431.444 179.864 430.808C172.556 430.172 165.248 429.536 157.94 428.9C150.95 428.264 143.801 427.151 136.494 425.561L128.868 431.285ZM127.438 425.561L134.587 420.314C134.905 419.996 135.223 419.837 135.54 419.837C135.858 419.837 136.017 419.837 136.017 419.837C143.325 421.109 150.633 422.222 157.94 423.176C165.566 423.812 173.033 424.607 180.34 425.561C185.424 425.879 190.349 426.197 195.115 426.515C200.199 426.515 205.282 426.356 210.366 426.038C211.955 426.038 213.543 426.038 215.132 426.038C216.721 425.72 218.309 425.402 219.898 425.084C220.533 425.084 221.645 425.084 223.234 425.084C225.776 425.084 227.523 424.925 228.477 424.607C229.748 424.289 231.018 423.971 232.289 423.653C233.878 423.335 235.149 422.699 236.102 421.745C237.055 420.791 237.691 419.678 238.009 418.407C238.644 416.817 238.962 415.386 238.962 414.114C239.279 413.16 239.279 412.206 238.962 411.252C238.962 409.98 238.962 408.867 238.962 407.913C238.644 406.959 238.485 406.164 238.485 405.528C238.485 402.349 238.167 399.169 237.532 395.989C237.214 392.809 237.055 389.471 237.055 385.973C236.738 383.429 236.738 380.885 237.055 378.341C237.691 375.798 238.167 373.254 238.485 370.71C238.803 367.848 239.121 364.986 239.438 362.125C239.756 359.263 239.915 356.401 239.915 353.539C239.915 350.36 239.597 347.18 238.962 344C238.326 340.502 237.691 337.164 237.055 333.984C237.055 333.03 236.738 331.917 236.102 330.645C235.784 329.373 235.467 328.101 235.149 326.829C234.831 325.557 235.149 324.285 236.102 323.014C237.055 322.06 238.009 321.583 238.962 321.583C240.233 321.583 241.504 321.742 242.774 322.06C244.045 322.378 244.999 322.537 245.634 322.537C249.765 322.537 253.895 322.378 258.026 322.06C262.156 321.424 266.287 320.788 270.417 320.152C278.36 318.88 286.462 318.403 294.723 318.721C302.984 319.039 311.245 319.675 319.506 320.629C323.319 320.947 326.973 321.265 330.468 321.583C333.963 321.901 337.458 322.06 340.953 322.06C342.86 322.06 344.766 322.06 346.672 322.06C348.579 322.06 350.485 322.219 352.391 322.537C353.345 322.537 354.774 322.537 356.681 322.537C359.858 322.855 363.035 323.014 366.213 323.014C369.39 322.696 372.408 321.742 375.268 320.152C376.539 319.516 377.651 318.562 378.604 317.29C379.557 315.7 380.352 314.269 380.987 312.997C381.623 311.725 381.94 310.453 381.94 309.182C382.258 307.91 382.417 306.638 382.417 305.366C383.37 301.232 384.165 297.098 384.8 292.965C385.435 288.513 385.912 284.061 386.23 279.61C386.548 275.158 386.389 270.706 385.753 266.255C385.118 261.485 384.165 256.715 382.894 251.946C382.894 250.992 382.735 250.038 382.417 249.084C382.099 247.812 381.94 246.699 381.94 245.745C381.305 242.883 380.828 239.386 380.511 235.252C380.193 231.118 378.922 228.098 376.698 226.19C375.745 225.236 374.474 224.6 372.885 224.282C371.614 223.964 370.343 223.646 369.072 223.328C366.848 223.328 364.465 223.487 361.923 223.805C359.382 224.123 356.999 224.441 354.774 224.759C353.504 224.759 352.391 224.918 351.438 225.236C350.485 225.236 349.532 225.395 348.579 225.713C347.308 225.713 346.037 225.872 344.766 226.19C343.495 226.508 342.224 226.667 340.953 226.667C336.823 227.303 332.692 227.939 328.562 228.575C324.431 229.21 320.301 229.369 316.17 229.051C314.264 229.051 312.199 228.893 309.974 228.575C308.068 228.257 306.162 227.939 304.255 227.621C301.396 227.303 298.377 226.985 295.2 226.667C292.023 226.349 288.845 226.349 285.668 226.667C280.902 226.985 275.977 227.303 270.894 227.621C265.81 227.939 260.726 228.257 255.643 228.575C255.007 228.575 254.054 228.734 252.783 229.051C251.512 229.369 250.241 229.687 248.97 230.005C248.017 230.005 247.064 229.369 246.111 228.098C245.157 227.144 244.681 226.19 244.681 225.236C244.681 223.964 244.84 222.692 245.157 221.42C245.793 219.83 246.111 218.717 246.111 218.081C246.111 214.584 246.111 211.404 246.111 208.542C245.793 207.27 245.475 205.839 245.157 204.249C245.157 202.659 245.157 201.229 245.157 199.957C245.157 199.321 244.84 198.208 244.204 196.618C243.887 195.664 243.569 194.71 243.251 193.756C242.933 192.484 243.41 191.371 244.681 190.417C245.952 189.463 247.064 189.145 248.017 189.463C248.97 189.463 250.082 189.781 251.353 190.417C252.624 191.053 253.736 191.371 254.689 191.371C257.231 191.689 259.773 192.007 262.315 192.325C265.174 192.325 268.034 192.325 270.894 192.325C271.529 192.325 272.482 192.325 273.753 192.325C275.977 192.007 278.043 191.848 279.949 191.848C282.173 191.848 284.397 192.007 286.621 192.325C289.481 192.643 292.182 193.279 294.723 194.233C297.265 194.869 299.966 195.505 302.826 196.141C305.685 196.777 308.704 197.254 311.881 197.572C315.058 197.89 318.077 198.208 320.936 198.526C322.207 198.844 323.796 199.162 325.702 199.48C327.926 199.798 330.309 200.116 332.851 200.434C335.393 200.752 337.935 200.752 340.477 200.434C343.336 200.434 346.196 200.275 349.055 199.957C352.233 199.321 355.251 198.526 358.111 197.572C359.699 197.254 361.129 196.936 362.4 196.618C363.671 195.982 365.101 195.505 366.689 195.187C369.231 194.551 371.932 193.915 374.791 193.279C377.969 192.643 380.352 191.212 381.94 188.986C383.847 186.761 384.8 184.376 384.8 181.832C384.8 178.97 384.641 176.108 384.323 173.247C384.323 171.339 384.323 169.908 384.323 168.954C384.006 163.548 383.847 158.143 383.847 152.737C384.165 147.332 384.8 142.085 385.753 136.997C386.389 132.228 387.183 127.617 388.136 123.165C389.089 118.714 389.725 114.103 390.043 109.333C390.043 109.015 390.043 108.538 390.043 107.902C390.36 105.041 390.36 102.179 390.043 99.3171C390.043 96.1373 389.089 93.2755 387.183 90.7317C384.959 88.5059 382.258 87.234 379.081 86.916C376.221 86.28 373.362 85.9621 370.502 85.9621C369.231 85.9621 368.437 85.9621 368.119 85.9621C366.213 85.9621 364.465 85.9621 362.877 85.9621C361.288 85.6441 359.699 85.6441 358.111 85.9621C353.027 85.9621 347.784 86.598 342.383 87.8699C337.299 88.8239 332.216 89.9368 327.132 91.2087C319.189 93.1165 311.245 94.7064 303.302 95.9783C295.677 97.2502 288.369 97.2502 281.379 95.9783C279.155 95.6604 276.93 95.3424 274.706 95.0244C272.482 94.7064 270.258 94.2295 268.034 93.5935C264.857 92.9575 261.679 92.3216 258.502 91.6856C255.643 91.0497 252.624 90.7317 249.447 90.7317C243.41 91.0497 237.532 92.0036 231.813 93.5935C226.411 94.8654 220.851 96.1373 215.132 97.4092C208.46 98.6811 201.628 99.635 194.638 100.271C187.648 100.907 180.658 101.384 173.668 101.702C169.22 101.702 164.613 101.861 159.847 102.179C155.081 102.179 150.315 102.338 145.549 102.656C144.596 102.656 143.166 102.497 141.26 102.179C138.718 102.179 136.176 102.338 133.634 102.656C131.092 102.656 128.868 103.451 126.962 105.041C125.055 106.631 124.102 108.856 124.102 111.718C124.42 114.58 124.896 117.442 125.532 120.304C125.532 121.257 125.532 122.37 125.532 123.642C125.85 124.596 126.009 125.55 126.009 126.504C126.009 128.73 125.85 130.956 125.532 133.182C125.214 135.407 124.896 137.474 124.579 139.382C124.261 140.972 123.943 142.562 123.626 144.152C123.308 145.424 123.149 146.855 123.149 148.444C122.831 150.988 122.513 153.691 122.196 156.553C122.196 159.097 122.196 161.64 122.196 164.184C122.196 165.774 122.196 167.523 122.196 169.431C122.196 171.021 122.196 172.611 122.196 174.201C121.878 177.698 121.719 181.037 121.719 184.217C121.719 187.397 121.878 190.576 122.196 193.756C122.513 198.208 123.149 202.659 124.102 207.111C125.055 211.245 125.691 215.537 126.009 219.989C126.326 222.215 126.326 224.441 126.009 226.667C126.009 228.575 126.009 230.641 126.009 232.867C126.009 235.093 125.85 236.683 125.532 237.637C125.532 244.632 125.373 251.628 125.055 258.623C124.738 265.619 124.579 272.614 124.579 279.61C124.579 282.472 124.579 285.333 124.579 288.195C124.896 291.057 125.055 293.919 125.055 296.78C125.055 299.006 125.055 301.391 125.055 303.935C125.373 306.161 125.532 308.387 125.532 310.612C125.532 312.838 125.532 315.223 125.532 317.767C125.532 319.993 125.532 322.219 125.532 324.444C125.214 326.988 125.055 329.532 125.055 332.076C125.055 334.302 125.055 336.687 125.055 339.23C125.055 342.41 125.214 345.749 125.532 349.247C125.85 352.426 126.009 355.765 126.009 359.263C126.009 362.761 125.85 366.417 125.532 370.233C125.532 373.731 125.373 377.388 125.055 381.203C125.055 384.383 124.896 387.563 124.579 390.743C124.579 393.922 124.579 397.102 124.579 400.282C124.579 403.462 124.579 406.641 124.579 409.821C124.579 413.001 124.579 416.022 124.579 418.884C124.896 420.155 125.214 421.268 125.532 422.222C126.167 423.176 126.803 424.289 127.438 425.561Z" fill="white"/>
<path d="M127.438 425.561L134.587 420.314C134.905 419.996 135.223 419.837 135.54 419.837H136.017C143.325 421.109 150.633 422.222 157.94 423.176C165.566 423.812 173.033 424.607 180.34 425.561C185.424 425.879 190.349 426.197 195.115 426.515C200.199 426.515 205.282 426.356 210.366 426.038H215.132L219.898 425.084H223.234C225.776 425.084 227.523 424.925 228.477 424.607L232.289 423.653C233.878 423.335 235.149 422.699 236.102 421.745C237.055 420.791 237.691 419.678 238.009 418.407C238.644 416.817 238.962 415.386 238.962 414.114C239.279 413.16 239.279 412.206 238.962 411.252V407.913C238.644 406.959 238.485 406.164 238.485 405.528C238.485 402.349 238.167 399.169 237.532 395.989C237.214 392.809 237.055 389.471 237.055 385.973C236.738 383.429 236.738 380.885 237.055 378.341C237.691 375.798 238.167 373.254 238.485 370.71L239.438 362.125C239.756 359.263 239.915 356.401 239.915 353.539C239.915 350.36 239.597 347.18 238.962 344C238.326 340.502 237.691 337.164 237.055 333.984C237.055 333.03 236.738 331.917 236.102 330.645L235.149 326.829C234.831 325.557 235.149 324.285 236.102 323.014C237.055 322.06 238.009 321.583 238.962 321.583C240.233 321.583 241.504 321.742 242.774 322.06C244.045 322.378 244.999 322.537 245.634 322.537C249.765 322.537 253.895 322.378 258.026 322.06L270.417 320.152C278.36 318.88 286.462 318.403 294.723 318.721C302.984 319.039 311.245 319.675 319.506 320.629C323.319 320.947 326.973 321.265 330.468 321.583C333.963 321.901 337.458 322.06 340.953 322.06H346.672C348.579 322.06 350.485 322.219 352.391 322.537H356.681C359.858 322.855 363.035 323.014 366.213 323.014C369.39 322.696 372.408 321.742 375.268 320.152C376.539 319.516 377.651 318.562 378.604 317.29C379.557 315.7 380.352 314.269 380.987 312.997C381.623 311.725 381.94 310.453 381.94 309.182C382.258 307.91 382.417 306.638 382.417 305.366C383.37 301.232 384.165 297.098 384.8 292.965C385.435 288.513 385.912 284.061 386.23 279.61C386.548 275.158 386.389 270.706 385.753 266.255C385.118 261.485 384.165 256.715 382.894 251.946C382.894 250.992 382.735 250.038 382.417 249.084C382.099 247.812 381.94 246.699 381.94 245.745C381.305 242.883 380.828 239.386 380.511 235.252C380.193 231.118 378.922 228.098 376.698 226.19C375.745 225.236 374.474 224.6 372.885 224.282L369.072 223.328C366.848 223.328 364.465 223.487 361.923 223.805C359.382 224.123 356.999 224.441 354.774 224.759C353.504 224.759 352.391 224.918 351.438 225.236C350.485 225.236 349.532 225.395 348.579 225.713C347.308 225.713 346.037 225.872 344.766 226.19C343.495 226.508 342.224 226.667 340.953 226.667L328.562 228.575C324.431 229.21 320.301 229.369 316.17 229.051C314.264 229.051 312.199 228.893 309.974 228.575L304.255 227.621C301.396 227.303 298.377 226.985 295.2 226.667C292.023 226.349 288.845 226.349 285.668 226.667C280.902 226.985 275.977 227.303 270.894 227.621L255.643 228.575C255.007 228.575 254.054 228.734 252.783 229.051L248.97 230.005C248.017 230.005 247.064 229.369 246.111 228.098C245.157 227.144 244.681 226.19 244.681 225.236C244.681 223.964 244.84 222.692 245.157 221.42C245.793 219.83 246.111 218.717 246.111 218.081V208.542C245.793 207.27 245.475 205.839 245.157 204.249V199.957C245.157 199.321 244.84 198.208 244.204 196.618L243.251 193.756C242.933 192.484 243.41 191.371 244.681 190.417C245.952 189.463 247.064 189.145 248.017 189.463C248.97 189.463 250.082 189.781 251.353 190.417C252.624 191.053 253.736 191.371 254.689 191.371L262.315 192.325H270.894H273.753C275.977 192.007 278.043 191.848 279.949 191.848C282.173 191.848 284.397 192.007 286.621 192.325C289.481 192.643 292.182 193.279 294.723 194.233C297.265 194.869 299.966 195.505 302.826 196.141C305.685 196.777 308.704 197.254 311.881 197.572C315.058 197.89 318.077 198.208 320.936 198.526C322.207 198.844 323.796 199.162 325.702 199.48C327.926 199.798 330.309 200.116 332.851 200.434C335.393 200.752 337.935 200.752 340.477 200.434C343.336 200.434 346.196 200.275 349.055 199.957C352.233 199.321 355.251 198.526 358.111 197.572C359.699 197.254 361.129 196.936 362.4 196.618C363.671 195.982 365.101 195.505 366.689 195.187C369.231 194.551 371.932 193.915 374.791 193.279C377.969 192.643 380.352 191.212 381.94 188.986C383.847 186.761 384.8 184.376 384.8 181.832C384.8 178.97 384.641 176.108 384.323 173.247V168.954C384.006 163.548 383.847 158.143 383.847 152.737C384.165 147.332 384.8 142.085 385.753 136.997C386.389 132.228 387.183 127.617 388.136 123.165C389.089 118.714 389.725 114.103 390.043 109.333V107.902C390.36 105.041 390.36 102.179 390.043 99.3171C390.043 96.1373 389.089 93.2755 387.183 90.7317C384.959 88.5059 382.258 87.234 379.081 86.916C376.221 86.28 373.362 85.9621 370.502 85.9621H368.119H362.877C361.288 85.6441 359.699 85.6441 358.111 85.9621C353.027 85.9621 347.784 86.598 342.383 87.8699C337.299 88.8239 332.216 89.9368 327.132 91.2087C319.189 93.1165 311.245 94.7064 303.302 95.9783C295.677 97.2502 288.369 97.2502 281.379 95.9783L274.706 95.0244C272.482 94.7064 270.258 94.2295 268.034 93.5935L258.502 91.6856C255.643 91.0497 252.624 90.7317 249.447 90.7317C243.41 91.0497 237.532 92.0036 231.813 93.5935C226.411 94.8654 220.851 96.1373 215.132 97.4092C208.46 98.6811 201.628 99.635 194.638 100.271C187.648 100.907 180.658 101.384 173.668 101.702C169.22 101.702 164.613 101.861 159.847 102.179C155.081 102.179 150.315 102.338 145.549 102.656C144.596 102.656 143.166 102.497 141.26 102.179C138.718 102.179 136.176 102.338 133.634 102.656C131.092 102.656 128.868 103.451 126.962 105.041C125.055 106.631 124.102 108.856 124.102 111.718C124.42 114.58 124.896 117.442 125.532 120.304V123.642C125.85 124.596 126.009 125.55 126.009 126.504C126.009 128.73 125.85 130.956 125.532 133.182C125.214 135.407 124.896 137.474 124.579 139.382L123.626 144.152C123.308 145.424 123.149 146.855 123.149 148.444C122.831 150.988 122.513 153.691 122.196 156.553V164.184V169.431V174.201C121.878 177.698 121.719 181.037 121.719 184.217C121.719 187.397 121.878 190.576 122.196 193.756C122.513 198.208 123.149 202.659 124.102 207.111C125.055 211.245 125.691 215.537 126.009 219.989C126.326 222.215 126.326 224.441 126.009 226.667V232.867C126.009 235.093 125.85 236.683 125.532 237.637C125.532 244.632 125.373 251.628 125.055 258.623C124.738 265.619 124.579 272.614 124.579 279.61V288.195C124.896 291.057 125.055 293.919 125.055 296.78V303.935C125.373 306.161 125.532 308.387 125.532 310.612V317.767V324.444C125.214 326.988 125.055 329.532 125.055 332.076V339.23C125.055 342.41 125.214 345.749 125.532 349.247C125.85 352.426 126.009 355.765 126.009 359.263C126.009 362.761 125.85 366.417 125.532 370.233C125.532 373.731 125.373 377.388 125.055 381.203C125.055 384.383 124.896 387.563 124.579 390.743V400.282V409.821V418.884C124.896 420.155 125.214 421.268 125.532 422.222C126.167 423.176 126.803 424.289 127.438 425.561Z" fill="white"/>
</svg>
