<svg width="512" height="512" viewBox="0 0 512 512" fill="none" xmlns="http://www.w3.org/2000/svg">
<rect width="512" height="512" rx="32" fill="#201113"/>
<path d="M351.808 69H389.125C396.512 73.3835 398.684 74.7408 404.291 81.3325C404.78 87.3035 405.775 111.836 403.925 116.454C395.527 137.429 401.865 157.822 399.377 179.606C399.01 182.816 396.609 187.375 394.545 189.926C388.801 196.932 356.044 202.547 348.11 203.009C329.312 204.104 303.823 197.361 285.52 194.752C277.943 193.673 259.564 194.531 250.451 194.042C250.694 198.043 251.364 217.784 252.112 219.839C255.536 221.098 288.377 218.154 295.357 218.345C305.918 218.633 316.882 222.271 327.273 221.654C342.653 220.741 372.497 210.802 385.862 217.127C388.576 218.411 390.236 220.513 391.487 223.193C394.007 228.594 394.686 235.286 395.823 241.131C397.21 248.263 398.941 255.492 399.751 262.707C401.761 280.609 400.662 302.94 394.37 319.842C392.505 324.853 390.114 327.992 385.159 330.22C370.182 336.957 309.221 328.554 288.371 328.99C272.774 329.317 256.411 334.184 240.98 332.919C242.088 342.667 245.84 351.639 246.195 359.956C246.288 362.771 246.117 365.587 245.685 368.37C243.925 379.244 241.078 384.681 241.476 396.59C242.071 414.375 251.533 439.897 224.723 441.996C199.63 444.372 174.773 442.055 149.736 439.962C142.822 439.377 135.04 437.52 128.322 437.377C125.575 439.112 121.338 442.411 118.089 442.365C115 442.322 110.966 435.109 110.798 432.61C109.569 414.366 110.53 395.541 110.655 377.255L110.367 273.44C110.468 251.604 111.573 227.986 110.111 206.157C109.979 204.191 109.448 201.681 107 201.898V138.136C113.436 131.19 109.919 106.555 110.744 94.8396C121.503 83.8244 130.765 87.0237 144.738 86.4142C158.708 86.3561 173.01 84.9861 186.947 84.8648C208.28 84.6793 228.18 75.5401 249.25 74.7531C258.789 74.3968 271.524 78.276 281.163 79.866C300.774 83.1013 318.636 78.2125 337.479 73.2793C343.113 71.8142 348.097 73.9016 351.808 69Z" fill="#D9A6AE"/>
</svg>
