<svg width="359" height="97" viewBox="0 0 359 97" fill="none" xmlns="http://www.w3.org/2000/svg">
<g clip-path="url(#clip0_146_21)">
<path d="M199.947 1.90881C201.728 1.86125 203.438 1.75489 205.039 1.98596C206.831 2.24455 208.197 2.6447 209.823 2.97815C211.412 3.30379 213.081 3.52061 215.181 3.32092C215.295 3.31007 215.55 3.31505 215.971 3.35901C216.373 3.40098 216.87 3.47222 217.438 3.56604C218.571 3.75348 219.95 4.02733 221.338 4.32971C223.794 4.86476 226.192 5.4686 227.311 5.82092L227.708 5.95569C228.947 6.42235 230.085 7.03785 231.065 7.86096V7.86194C233.418 9.83577 235.763 11.8793 237.763 14.1207L238.158 14.5719C239.415 16.031 241.519 19.068 243.355 22.2496C244.271 23.8348 245.108 25.4348 245.733 26.8717C246.369 28.3322 246.749 29.5392 246.82 30.3658C246.993 32.3676 246.83 34.3841 246.801 36.5475V36.5533L246.708 47.5201V48.5192C246.721 50.8411 246.819 53.1393 246.889 55.3707C246.969 57.9338 247.012 60.4217 246.86 62.8492C246.567 67.5379 245.549 71.9549 242.685 76.1041L242.401 76.5045C241.791 77.3501 240.997 78.6842 240.239 79.8815C239.443 81.1395 238.686 82.248 238.076 82.8434H238.075C236.036 84.8352 233.457 87.0052 230.687 88.8082C227.908 90.6165 224.993 92.0181 222.273 92.5406C217.579 93.261 212.943 93.8458 208.421 94.2213C208.119 94.2449 207.508 94.2913 206.907 94.3229C206.419 94.3485 206.014 94.3593 205.774 94.3541L205.593 94.3444V94.3434C202.802 93.9705 198.376 93.5953 194.117 93.1334C189.795 92.6647 185.656 92.1084 183.255 91.3815C182.558 91.1702 181.489 90.5806 180.172 89.6871C178.881 88.8115 177.434 87.7015 176.001 86.5289C173.129 84.1787 170.376 81.626 169.122 80.2877C168.696 79.8327 168.203 79.3719 167.71 78.9186C167.208 78.4572 166.705 78.0026 166.221 77.5299C165.239 76.5724 164.448 75.6489 164.056 74.7213C163.484 73.3689 163.223 72.0114 163.049 70.5973C162.881 69.2417 162.781 67.6658 162.536 66.2037C161.821 61.9264 160.826 58.787 160.888 54.5709C160.932 51.5292 161.343 49.2946 161.611 46.1862C161.673 45.4676 161.543 44.3952 161.422 43.442C161.308 42.544 161.193 41.6894 161.157 41.0192L161.147 40.7438L161.143 40.2965C161.139 35.6811 162.428 30.9908 164.178 26.6305C164.307 26.3074 164.672 25.8069 165.199 25.1188C165.665 24.5101 166.253 23.7582 166.584 23.0944C167.741 20.7722 168.642 18.4855 170.031 16.5895C170.885 15.4239 172.599 14.0259 173.918 12.9576C175.892 11.3591 178.676 9.25357 180.841 8.27502C182.8 7.38944 185.805 6.44886 187.985 5.80334C190.321 5.11222 192.56 4.25652 194.757 3.54846C196.492 2.98975 198.019 2.65257 199.947 1.90881ZM209.81 29.1559C208.842 29.113 207.816 29.1834 207.329 29.1998H207.311L207.291 29.2018C203.688 29.4606 201.044 29.6061 197.525 31.2457L196.938 31.5192L196.947 32.1656C196.95 32.3968 196.96 32.7593 196.971 33.1686C196.981 33.5825 196.992 34.054 196.998 34.5182C197.004 34.9837 197.006 35.4344 196.997 35.8073C196.988 36.208 196.969 36.4397 196.953 36.5162C196.581 38.3399 196.148 40.1758 195.712 42.0319C195.277 43.883 194.841 45.7531 194.47 47.6188V47.6207C194.361 48.1719 194.085 49.0419 193.792 49.9967C193.521 50.8798 193.217 51.8854 193.142 52.5416C192.895 54.673 192.646 57.3732 192.891 59.9694C193.134 62.5514 193.879 65.1891 195.761 67.0485C196.228 67.5099 196.901 67.9804 197.594 68.3444C198.26 68.6947 199.06 69.0054 199.798 69.0602V69.0621C201.588 69.2438 202.611 69.194 203.621 68.816C204.092 68.6397 204.538 68.3994 205.009 68.1451C205.491 67.8848 206.047 67.5824 206.802 67.2281C211.031 65.2425 212.737 61.2535 213.454 57.11C214.162 53.0181 213.952 48.3966 214.102 45.0631V45.0621C214.148 44.027 214.309 42.8599 214.482 41.5778C214.653 40.3154 214.833 38.9561 214.896 37.6149C215.021 34.9622 214.704 32.1191 212.683 30.0533L212.68 30.0504L212.524 29.9088C212.149 29.6 211.686 29.4384 211.293 29.3434C210.819 29.229 210.299 29.1776 209.81 29.1559Z" stroke="currentColor" stroke-width="2"/>
<path d="M112.168 3.16101C113.434 3.01056 114.311 3.18336 114.932 3.49988C115.546 3.8131 116.002 4.31511 116.347 4.9989C117.068 6.43098 117.221 8.48782 117.248 10.6337C117.26 11.5463 117.431 12.4796 117.584 13.3173C117.723 14.0794 117.848 14.7728 117.887 15.4344L117.897 15.7167C117.852 21.3544 118.022 26.5409 118.699 32.161C118.998 34.6395 118.997 37.3341 118.977 40.1093C118.956 42.8596 118.916 45.6944 119.156 48.3505L119.157 48.37L119.16 48.3885C119.361 49.9565 119.215 51.5294 118.962 53.1561C118.717 54.7291 118.348 56.4712 118.185 58.1093C117.832 61.636 117.57 63.3715 116.634 66.7684L116.266 68.1053L117.65 68.0331C119.033 67.9609 120.817 68.2341 122.791 68.4784C124.675 68.7115 126.745 68.9187 128.421 68.5702C133.048 67.608 137.742 66.4755 142.433 66.0702C147.071 65.6694 151.614 65.9925 155.917 67.8788C155.939 67.8981 155.969 67.9251 156.008 67.9618C156.116 68.0652 156.252 68.2062 156.396 68.3622C156.593 68.5741 156.791 68.7963 156.934 68.9589C157.321 70.5729 157.048 72.311 156.537 74.2216C156.03 76.1195 155.239 78.3179 154.961 80.3387C154.852 81.1295 154.87 81.9925 154.893 82.7391C154.916 83.5307 154.941 84.1701 154.887 84.6688C154.859 84.9195 154.686 85.5691 154.449 86.3895C154.272 87.0025 154.069 87.6796 153.933 88.1835C153.344 88.7018 152.923 89.1889 152.466 89.7225C151.381 90.0581 150.239 90.2403 149.033 90.3866C147.764 90.5406 146.373 90.6623 145.044 90.912C143.967 91.1143 142.902 91.394 141.872 91.6649C140.83 91.9389 139.823 92.2039 138.809 92.3993C135.496 93.0369 132.377 93.2282 128.952 93.5018L128.894 93.5067L128.836 93.5184C126.463 93.9926 124.248 94.3855 121.884 94.7626L121.876 94.7635L121.868 94.7655C119.754 95.1383 117.68 94.9339 115.529 94.5321C114.45 94.3305 113.378 94.0843 112.266 93.8407C111.162 93.5992 110.029 93.3618 108.877 93.1923C104.693 92.5769 100.574 91.9018 96.1475 92.4208C95.8739 92.4313 95.5995 92.4566 95.3662 92.4784C95.2317 92.491 95.1085 92.5015 94.9932 92.5096L94.667 92.5243C93.8467 92.5301 92.9847 92.6048 92.1611 92.6727C91.3215 92.742 90.5109 92.8056 89.7236 92.8036C88.1461 92.7995 86.8197 92.5301 85.7793 91.6552C85.2532 91.2127 84.9038 90.8865 84.6455 90.538C84.4323 90.2502 84.2635 89.9236 84.1377 89.4686L84.0869 89.2655C83.1422 85.0315 83.7151 80.6862 84.043 76.1317C84.4866 69.9692 84.4425 63.9721 86.0615 58.2255C87.2312 54.0736 87.2359 49.7802 86.9141 45.5692C86.7532 43.4639 86.5078 41.3552 86.2803 39.2928C86.0518 37.2216 85.8404 35.1919 85.7383 33.205L85.7354 33.1464L85.7256 33.0878L85.6191 32.4833C85.5066 31.8648 85.3735 31.214 85.208 30.6044C84.8084 29.1326 84.7219 27.6394 84.7324 26.0663C84.7426 24.5558 84.852 22.8085 84.8076 21.1591C84.6916 16.8566 84.9832 12.1879 84.084 7.69714C84.0174 7.36443 83.9629 6.59844 83.999 5.80554C84.0167 5.41748 84.0548 5.05559 84.1133 4.76257C84.1424 4.61665 84.1743 4.50095 84.2051 4.41492C84.2161 4.38417 84.2275 4.36126 84.2354 4.34363C84.7642 3.84119 85.4782 3.55336 86.3447 3.41882C87.2585 3.277 88.2553 3.31545 89.2178 3.38953C96.8542 3.97732 104.519 4.05424 112.166 3.16199L112.168 3.16101Z" stroke="currentColor" stroke-width="2"/>
<path d="M278.832 3.01953C280.7 2.80136 282.489 2.67687 284.201 2.88867H284.202C284.814 2.96444 285.287 3.23451 285.87 3.71094C285.993 3.99975 286.137 4.3354 286.267 4.67383C286.441 5.12753 286.549 5.47913 286.574 5.66699V5.66797C286.673 6.41007 286.593 7.20163 286.44 8.08398C286.316 8.80556 286.123 9.67492 286.006 10.4961L285.961 10.8438C285.887 11.4875 285.835 12.13 285.786 12.7549C285.737 13.3847 285.691 13.9946 285.627 14.6006C285.605 14.8008 285.539 14.9787 285.421 15.3584C285.332 15.6454 285.218 16.0448 285.223 16.5039L285.232 16.7051C285.73 22.2644 287.882 26.3039 289.533 31.1338C289.876 32.1388 290.465 35.1928 290.693 36.458C290.742 36.7418 290.802 37.1653 290.892 37.5439C290.985 37.9401 291.133 38.4031 291.417 38.8232L291.712 39.2578L292.236 39.2627L292.494 39.2646L293.075 39.2705L293.367 38.7686C293.792 38.0392 293.808 37.2502 293.856 36.7959L293.857 36.7822C293.944 35.8618 294.075 34.9794 294.215 34.0781C294.354 33.1841 294.504 32.262 294.62 31.3037C294.72 30.4768 294.745 29.6933 294.759 28.9678C294.773 28.2277 294.775 27.5712 294.823 26.9229C294.91 25.7594 295.141 24.7091 295.823 23.6396C297.472 23.0727 298.153 23.0664 298.735 23.1465C299.391 23.2366 300.4 23.5609 302.185 23.5547C303.199 23.5511 304.349 23.3986 305.466 23.2539C306.611 23.1056 307.751 22.9607 308.852 22.9375C311.061 22.8909 312.821 23.3379 313.922 24.9561L313.923 24.957C314.461 25.7472 314.871 26.804 315.261 28.0176C315.631 29.1695 316.002 30.5416 316.425 31.6855C317.549 34.7571 318.986 37.7045 320.714 40.4814L322.094 42.6992L322.548 40.127C322.873 38.2871 322.855 36.3725 322.829 34.5596C322.802 32.7119 322.767 30.9716 323.008 29.3242C323.353 26.9702 323.792 24.5518 324.224 22.1846C324.896 19.9483 325.236 18.0382 325.605 15.8027C325.791 14.6785 325.752 13.2261 325.71 11.8027C325.666 10.331 325.614 8.82895 325.729 7.45117C325.844 6.05992 326.122 4.93821 326.637 4.16895C327.106 3.46735 327.823 2.97997 329.092 2.92773H329.093C330.36 2.87564 331.683 2.96772 333.061 3.06445C334.414 3.15956 335.827 3.25907 337.174 3.19336C343.134 2.90231 348.547 2.71337 354.287 3.94531L354.29 3.94629C355.597 4.22283 356.093 4.52218 356.445 4.87695C356.646 5.07851 356.833 5.33279 357.083 5.70898C357.28 6.00622 357.529 6.39249 357.824 6.82715V11.3105L357.562 11.4082L357.437 11.9277C357.297 12.5096 357.204 13.0706 357.114 13.5986C357.023 14.135 356.932 14.6504 356.793 15.2012C356.529 16.2421 356.121 17.4046 355.722 18.6816C355.386 19.7572 355.061 20.9019 354.923 21.9678L354.875 22.4199C354.74 24.143 354.798 26.0633 354.822 27.8818C354.847 29.734 354.837 31.4961 354.595 33.0352C354.347 34.6082 353.846 36.4429 353.31 38.3311C352.782 40.1902 352.218 42.1098 351.889 43.7607H351.888C351.595 45.2312 351.632 46.2714 351.607 47.2334C351.583 48.1724 351.504 49.1649 351.02 50.7363L351 50.7998L350.989 50.8662C350.691 52.6441 350.143 54.811 350.068 56.7852C350.016 58.1585 350.06 59.4733 350.086 60.7344C350.112 62.0077 350.119 63.2445 350.007 64.5352L350.005 64.5645C349.667 70.3735 348.687 73.7531 347.523 79.5479C347.261 80.7137 347.062 81.922 346.859 83.0752C346.654 84.2428 346.442 85.3667 346.149 86.4307L346.147 86.4385C345.55 88.6816 344.847 90.1262 344.07 91.0703C343.316 91.9881 342.452 92.4812 341.413 92.752C340.334 93.0329 339.065 93.0757 337.493 93.0537C335.958 93.0322 334.141 92.9485 332.144 93.0264C331.252 93.0612 329.798 93.2121 328.202 93.3438C326.574 93.4781 324.729 93.5993 322.942 93.5898C321.145 93.5803 319.466 93.438 318.15 93.0723C316.805 92.6983 316.062 92.1562 315.774 91.5244C314.724 89.2182 313.938 86.6579 313.152 83.9961C312.374 81.3571 311.595 78.6113 310.571 76.04C309.983 74.5616 309.533 73.2027 309.024 71.7646C308.519 70.3372 307.965 68.8665 307.186 67.2461L305.977 64.7334L305.313 67.4424C304.843 69.3622 304.117 71.2433 303.336 73.2021C302.563 75.1419 301.733 77.1641 301.113 79.2803C300.515 81.3232 299.827 84.5774 298.681 87.6074C298.115 89.104 297.463 90.4663 296.706 91.5137C295.945 92.5665 295.143 93.2114 294.302 93.4424C293.043 93.7878 291.232 93.688 289.179 93.46C287.225 93.2431 285.044 92.9081 283.357 92.9365C280.632 92.9825 277.717 93.0696 274.994 93.1045C273.768 93.046 273.007 92.8416 272.01 92.6582C271.053 92.4823 270.015 92.3637 268.46 92.4951C268.257 92.3894 267.986 92.2436 267.714 92.085C267.295 91.8403 266.986 91.6361 266.889 91.5488C265.226 90.0575 264.91 87.9902 265.095 85.4766C265.187 84.219 265.398 82.9348 265.589 81.6064C265.753 80.4685 265.901 79.2994 265.915 78.1826L265.913 77.707C265.814 73.6689 264.506 70.2246 263.163 66.9619C261.89 63.8674 260.601 60.9657 260.057 57.7119L259.958 57.0566L259.891 56.4395C259.766 54.9825 259.861 53.4097 259.994 51.7549C260.143 49.9031 260.344 47.9281 260.266 46.0791V46.0781L260.217 45.1621C260.079 42.9217 259.781 40.039 259.5 38.0371C259.306 36.6525 259.004 35.1825 258.723 33.7559C258.473 32.4936 258.238 31.2594 258.086 30.0869L258.026 29.5879C257.876 28.2096 257.814 26.7772 257.748 25.3018C257.691 24.0222 257.629 22.7113 257.497 21.4248L257.437 20.875C257.29 19.6502 256.791 18.558 256.288 17.6025C255.756 16.591 255.264 15.7996 254.914 14.9365C254.508 13.9312 254.254 12.8683 254.04 11.7461C253.887 10.9435 253.743 10.0349 253.58 9.1543L253.41 8.28711C253.298 7.75353 253.133 7.35237 252.993 7.04395C252.835 6.69329 252.785 6.6024 252.759 6.49512C252.754 6.4735 252.742 6.45785 252.78 6.36328C252.837 6.22251 252.985 5.97191 253.352 5.54004L253.357 5.5332C253.869 4.91909 254.59 4.51432 255.382 4.39746L255.381 4.39648C256.174 4.2807 257.059 4.42648 258.155 4.62793C259.187 4.81748 260.414 5.05912 261.632 4.95117C262.597 4.8655 263.547 4.6744 264.431 4.49316C265.333 4.30807 266.163 4.13387 266.978 4.0498C269.074 3.89486 271.034 3.78207 273.161 3.65723C275.037 3.54716 277.006 3.23285 278.832 3.01953Z" stroke="currentColor" stroke-width="2"/>
<path d="M70.8496 1C71.6517 1.47796 72.143 1.78177 72.5859 2.13184C73.0073 2.46492 73.4027 2.85719 73.9736 3.51465C74.0314 4.38775 74.1068 6.04857 74.124 7.68262C74.1338 8.61404 74.1255 9.52169 74.0869 10.2598C74.0676 10.6292 74.0415 10.9437 74.0088 11.1914C73.9925 11.3147 73.9754 11.4136 73.959 11.4893C73.9509 11.5266 73.9435 11.5554 73.9375 11.5762C73.9325 11.5936 73.9294 11.6027 73.9287 11.6045C72.7943 14.4407 72.6683 17.2141 72.7256 19.8906C72.7839 22.6158 73.0201 25.1417 72.7168 27.8008C72.689 28.0446 72.5681 28.418 72.3623 28.8418C72.1632 29.2517 71.9229 29.632 71.7188 29.8857C71.6509 29.9685 71.4855 30.1112 71.1641 30.293C70.8543 30.4681 70.4547 30.6492 69.9785 30.8301C69.0265 31.1917 67.8427 31.5265 66.6162 31.8164C64.152 32.3989 61.6487 32.7686 60.7275 32.8223C58.4796 32.9533 55.7843 32.6152 53.0176 32.1436C50.3141 31.6827 47.46 31.0771 45.1475 30.7471C44.1051 30.5984 42.3875 30.5872 40.7285 30.5918C39.0179 30.5966 37.3304 30.6192 36.2188 30.5596L35.0986 30.499L35.167 31.6182C35.1976 32.1228 35.2531 33.5817 35.3281 35.0488C35.365 35.7691 35.4058 36.4825 35.4502 37.0518C35.4723 37.3356 35.4962 37.5933 35.5215 37.8018C35.5415 37.9672 35.5741 38.219 35.6436 38.4102L35.8027 38.8467L36.2383 39.0068C36.4109 39.0703 36.5938 39.0965 36.7188 39.1104C36.8627 39.1263 37.0252 39.1351 37.1953 39.1406C37.5365 39.1517 37.9605 39.149 38.4307 39.1367C39.3731 39.112 40.5578 39.0495 41.7568 38.9795C44.205 38.8365 46.6362 38.6689 47.459 38.6914C48.7062 38.7255 49.9803 38.957 51.3652 39.1816C52.7143 39.4005 54.1594 39.6096 55.5918 39.5244C56.631 39.4627 57.8849 39.2519 59.1855 39.0098C60.5102 38.7632 61.891 38.4828 63.2705 38.2568C64.646 38.0316 65.9658 37.8699 67.1309 37.8564C68.3118 37.8428 69.2349 37.984 69.875 38.2871V38.2881C70.2328 38.4576 70.4909 38.7201 70.7188 39.1455L70.8154 39.3379C71.084 39.9145 71.2669 40.5884 71.4189 41.3359C71.4945 41.7075 71.5607 42.0855 71.627 42.4727C71.6924 42.855 71.7587 43.2505 71.833 43.6328C72.1939 45.4902 72.6132 47.2312 72.8115 48.999C73.3075 53.4216 73.0245 58.8881 71.5107 62.959C71.2995 63.527 71.0824 63.9239 70.8203 64.2295C70.5647 64.5276 70.2279 64.7841 69.7158 65.0146C68.9816 65.3453 67.5079 65.5378 65.4395 65.5801C63.4274 65.6212 61.0206 65.5207 58.542 65.3691C53.6502 65.0701 48.3856 64.5601 45.7041 64.6162C43.6634 64.659 41.5705 64.9991 39.5986 65.2715C37.5917 65.5487 35.6845 65.7601 33.8594 65.6104L32.6465 65.5107L32.7842 66.7197C32.9328 68.0282 33.2574 69.2789 33.5352 70.3955C33.785 71.3999 33.9943 72.2884 34.0693 73.1201L34.0928 73.4736C34.1132 74.1161 34.0746 74.7591 33.9766 75.3945C33.7582 76.7454 33.4903 77.6649 33.25 78.8125C33.0447 79.7927 32.8927 80.816 32.8936 82.1289L32.9033 82.71C32.9425 83.884 33.1287 85.1995 33.2627 86.3975C33.4014 87.637 33.4897 88.7864 33.3867 89.7891C33.2845 90.7835 33.004 91.5298 32.4932 92.0576C31.9887 92.5788 31.1309 93.0187 29.6006 93.1387L29.585 93.1406C23.3651 93.73 17.1936 93.1563 10.8574 92.626H10.8584C10.0296 92.5559 9.14916 92.4091 8.20703 92.2656C7.28818 92.1257 6.31557 91.9903 5.39648 91.9707L5.0957 91.9639L4.84082 92.125C4.40889 92.398 4.0794 92.646 3.63574 92.9004C3.28309 93.1026 3.04127 93.1897 2.89844 93.2168C2.88519 93.2065 2.86698 93.1959 2.84863 93.1797C2.72892 93.0736 2.5821 92.9 2.43262 92.6758C2.28616 92.4561 2.15894 92.2205 2.06934 92.0156C1.96779 91.7834 1.95376 91.6806 1.95508 91.7002C1.64858 87.1448 1.88896 82.4796 1.9209 77.8037H1.92188L1.9209 77.7939L1.84863 51.6006C1.87391 46.1503 2.15393 40.105 1.78223 34.5488C1.76395 34.2757 1.71368 33.8109 1.49219 33.3984C1.38847 33.2054 1.23217 32.9947 1 32.8281V17.791C1.43165 17.1625 1.65771 16.3596 1.78906 15.584C1.95104 14.6274 1.99831 13.5289 2.00195 12.4395C2.0056 11.3478 1.96468 10.2154 1.93652 9.20215C1.91275 8.34637 1.90056 7.58501 1.92383 6.96094C3.00631 5.94352 3.98282 5.59432 5.04492 5.46582C5.65278 5.3923 6.30012 5.39074 7.05664 5.40137C7.78992 5.41167 8.62332 5.43192 9.5293 5.39355C11.3141 5.38577 13.1155 5.29585 14.8896 5.2041C16.6754 5.11175 18.4328 5.01899 20.1641 5.00391C22.9799 4.97939 25.6818 4.36361 28.2617 3.75879C30.8758 3.14595 33.3589 2.54622 35.8994 2.45117C36.9743 2.41098 38.2783 2.61141 39.6777 2.89355C41.0193 3.16404 42.5138 3.52518 43.7451 3.72852C48.9347 4.58549 53.6477 3.28099 58.3564 2.04688L58.3574 2.04785C58.6233 1.97864 58.8966 1.94707 59.2041 1.92676C59.4755 1.90885 59.8744 1.89619 60.207 1.8584C60.8509 1.78518 61.5484 1.59317 62.1631 1H70.8496Z" stroke="currentColor" stroke-width="2"/>
</g>
<defs>
<clipPath id="clip0_146_21">
<rect width="358.824" height="97" fill="currentColor"/>
</clipPath>
</defs>
</svg>
