<svg width="359" height="97" viewBox="0 0 359 97" fill="none" xmlns="http://www.w3.org/2000/svg">
<path d="M3.456 94.272C3.28533 94.4427 3.02933 94.4853 2.688 94.4C2.26133 94.3147 2.00533 94.144 1.92 93.888C1.74933 93.4613 1.536 93.0347 1.28 92.608C1.10933 92.1813 0.981334 91.7547 0.896 91.328C0.896 91.328 0.853334 91.2853 0.768 91.2C0.768 91.1147 0.768 91.072 0.768 91.072C0.768 90.2187 0.768 89.3653 0.768 88.512C0.768 87.6587 0.768 86.8053 0.768 85.952C0.768 85.0987 0.768 84.2453 0.768 83.392C0.853334 82.5387 0.896 81.6853 0.896 80.832C0.981334 79.808 1.024 78.8267 1.024 77.888C1.10933 76.864 1.152 75.8827 1.152 74.944C1.152 74.0053 1.10933 73.1093 1.024 72.256C0.938667 71.4027 0.896 70.5067 0.896 69.568C0.896 68.8853 0.896 68.2453 0.896 67.648C0.896 66.9653 0.938667 66.2827 1.024 65.6C1.024 65.0027 1.024 64.4053 1.024 63.808C1.024 63.1253 1.024 62.4853 1.024 61.888C1.024 61.2907 0.981334 60.6933 0.896 60.096C0.896 59.4133 0.896 58.7733 0.896 58.176C0.896 57.408 0.853334 56.64 0.768 55.872C0.768 55.104 0.768 54.336 0.768 53.568C0.768 51.6907 0.810667 49.8133 0.896 47.936C0.981334 46.0587 1.024 44.1387 1.024 42.176C1.10933 41.92 1.152 41.536 1.152 41.024C1.152 40.4267 1.152 39.872 1.152 39.36C1.23733 38.7627 1.23733 38.208 1.152 37.696C1.06667 36.5013 0.896 35.3493 0.64 34.24C0.384 33.0453 0.213333 31.8507 0.128 30.656C0.0426668 29.7173 0 28.8213 0 27.968C0 27.1147 0.0426668 26.2187 0.128 25.28C0.128 24.768 0.128 24.2987 0.128 23.872C0.128 23.4453 0.128 22.976 0.128 22.464C0.128 21.7813 0.128 21.0987 0.128 20.416C0.213333 19.648 0.298667 18.88 0.384 18.112C0.384 17.7707 0.426667 17.4293 0.512 17.088C0.597334 16.6613 0.682667 16.2773 0.768 15.936C0.853334 15.3387 0.938667 14.784 1.024 14.272C1.10933 13.6747 1.152 13.0773 1.152 12.48C1.152 12.1387 1.10933 11.84 1.024 11.584C1.024 11.2427 1.024 10.9013 1.024 10.56C0.853333 9.62133 0.768 8.72533 0.768 7.872C0.768 7.01867 1.152 6.25067 1.92 5.568C2.60267 4.97066 3.37067 4.62933 4.224 4.544C5.07733 4.45867 5.93067 4.416 6.784 4.416C7.296 4.50133 7.68 4.544 7.936 4.544C9.216 4.45867 10.4533 4.416 11.648 4.416C12.928 4.33067 14.208 4.288 15.488 4.288C17.28 4.20267 19.072 4.11733 20.864 4.032C22.7413 3.86133 24.576 3.56267 26.368 3.136C27.904 2.79467 29.44 2.45333 30.976 2.112C32.5973 1.68533 34.2187 1.42933 35.84 1.344C36.6933 1.344 37.5467 1.42933 38.4 1.6C39.2533 1.77067 40.064 1.94134 40.832 2.112C41.4293 2.28267 42.0267 2.41067 42.624 2.496C43.3067 2.58133 43.9467 2.66667 44.544 2.752C44.6293 2.752 44.672 2.752 44.672 2.752C46.464 3.09333 48.384 3.09333 50.432 2.752C52.48 2.41066 54.5707 1.984 56.704 1.472C58.0693 1.13067 59.4347 0.831998 60.8 0.575996C62.2507 0.234667 63.616 0.064003 64.896 0.064003C65.408 -0.0213343 65.8773 -0.0213343 66.304 0.064003C66.816 0.064003 67.2853 0.064003 67.712 0.064003C68.8213 0.149335 69.9307 0.277334 71.04 0.447998C72.1493 0.53333 73.1307 1.00267 73.984 1.856C74.752 2.70934 75.136 3.69067 75.136 4.8C75.2213 5.824 75.2213 6.848 75.136 7.872C75.136 7.872 75.136 7.91467 75.136 8C75.0507 9.28 74.88 10.56 74.624 11.84C74.368 13.0347 74.1547 14.272 73.984 15.552C73.728 16.9173 73.5573 18.2827 73.472 19.648C73.472 21.0133 73.5147 22.4213 73.6 23.872C73.6 24.128 73.6 24.512 73.6 25.024C73.6853 25.9627 73.6853 26.8587 73.6 27.712C73.6 28.5653 73.3013 29.4187 72.704 30.272C72.1067 31.04 71.3387 31.552 70.4 31.808C69.4613 31.9787 68.5653 32.192 67.712 32.448C67.2853 32.5333 66.9013 32.6613 66.56 32.832C66.2187 32.9173 65.8347 33.0027 65.408 33.088C64.5547 33.2587 63.7013 33.4293 62.848 33.6C61.9947 33.7707 61.1413 33.856 60.288 33.856C59.6053 33.9413 58.88 33.9413 58.112 33.856C57.4293 33.7707 56.7467 33.6853 56.064 33.6C55.552 33.5147 55.168 33.4293 54.912 33.344C54.0587 33.2587 53.2053 33.1733 52.352 33.088C51.4987 33.0027 50.6453 32.8747 49.792 32.704C49.1093 32.5333 48.4267 32.3627 47.744 32.192C47.0613 31.936 46.336 31.7653 45.568 31.68C45.056 31.5947 44.544 31.552 44.032 31.552C43.52 31.552 43.008 31.5947 42.496 31.68C42.0693 31.68 41.7707 31.68 41.6 31.68C40.832 31.68 40.064 31.68 39.296 31.68C38.528 31.5947 37.76 31.5093 36.992 31.424C36.5653 31.3387 36.224 31.2107 35.968 31.04C36.1387 31.4667 36.224 31.7653 36.224 31.936C36.224 32.3627 36.224 32.7893 36.224 33.216C36.3093 33.6427 36.3947 34.0693 36.48 34.496C36.48 35.264 36.48 36.1173 36.48 37.056C36.48 37.2267 36.3947 37.568 36.224 38.08C36.0533 38.5067 36.0107 38.7627 36.096 38.848C36.096 38.848 36.096 38.8053 36.096 38.72C36.096 38.72 36.1813 38.6773 36.352 38.592C36.5227 38.4213 36.864 38.336 37.376 38.336C38.7413 38.2507 40.1067 38.1653 41.472 38.08C42.8373 37.9947 44.16 37.9093 45.44 37.824C46.3787 37.7387 47.2747 37.7387 48.128 37.824C48.9813 37.9093 49.8347 37.9947 50.688 38.08C51.2 38.1653 51.712 38.2507 52.224 38.336C52.736 38.4213 53.2907 38.464 53.888 38.464C54.912 38.5493 55.936 38.5493 56.96 38.464C58.0693 38.2933 59.1787 38.08 60.288 37.824C60.6293 37.824 60.9707 37.7813 61.312 37.696C61.6533 37.6107 61.9947 37.568 62.336 37.568C62.592 37.568 62.848 37.568 63.104 37.568C63.36 37.4827 63.6587 37.3973 64 37.312C64.6827 37.2267 65.3653 37.1413 66.048 37.056C66.816 36.9707 67.5413 36.9707 68.224 37.056C68.736 37.056 69.248 37.1413 69.76 37.312C70.272 37.4827 70.7413 37.7387 71.168 38.08C71.8507 38.848 72.2347 39.8293 72.32 41.024C72.4907 42.1333 72.6613 43.1573 72.832 44.096C72.9173 44.4373 72.96 44.736 72.96 44.992C73.0453 45.248 73.1307 45.5467 73.216 45.888C73.472 47.168 73.6853 48.448 73.856 49.728C74.112 51.008 74.1973 52.3307 74.112 53.696C74.0267 54.8907 73.856 56.0853 73.6 57.28C73.4293 58.4747 73.2587 59.6267 73.088 60.736C73.0027 61.1627 72.9173 61.5893 72.832 62.016C72.832 62.4427 72.7467 62.8267 72.576 63.168C72.32 63.68 72.0213 64.192 71.68 64.704C71.3387 65.1307 70.912 65.5147 70.4 65.856C69.5467 66.368 68.608 66.6667 67.584 66.752C66.56 66.752 65.5787 66.7093 64.64 66.624C64.0427 66.624 63.616 66.624 63.36 66.624C62.848 66.5387 62.336 66.496 61.824 66.496C61.3973 66.496 60.928 66.496 60.416 66.496C59.4773 66.496 58.5387 66.4533 57.6 66.368C56.6613 66.2827 55.68 66.1973 54.656 66.112C52.5227 65.856 50.3467 65.6853 48.128 65.6C45.9093 65.5147 43.776 65.6427 41.728 65.984C40.5333 66.1547 39.3813 66.3253 38.272 66.496C37.1627 66.5813 36.0533 66.624 34.944 66.624C34.688 66.624 34.304 66.5813 33.792 66.496C33.792 66.496 33.7067 66.4533 33.536 66.368C33.536 66.368 33.4933 66.368 33.408 66.368C33.408 66.5387 33.4933 66.7947 33.664 67.136C33.92 67.4773 34.048 67.7333 34.048 67.904C34.2187 68.8427 34.3893 69.7813 34.56 70.72C34.7307 71.5733 34.816 72.4693 34.816 73.408C34.816 74.176 34.7733 74.944 34.688 75.712C34.6027 76.48 34.5173 77.248 34.432 78.016C34.3467 78.6987 34.2187 79.3813 34.048 80.064C33.9627 80.7467 33.9627 81.4293 34.048 82.112C34.048 82.9653 34.0907 83.8187 34.176 84.672C34.3467 85.5253 34.432 86.3787 34.432 87.232C34.432 87.4027 34.4747 87.616 34.56 87.872C34.56 88.2133 34.56 88.5547 34.56 88.896C34.6453 89.2373 34.6453 89.5787 34.56 89.92C34.4747 90.432 34.3467 90.944 34.176 91.456C34.0053 91.968 33.7067 92.3947 33.28 92.736C32.9387 93.1627 32.512 93.4187 32 93.504C31.5733 93.6747 31.104 93.8453 30.592 94.016C30.1653 94.1013 29.7387 94.144 29.312 94.144C28.8853 94.144 28.4587 94.144 28.032 94.144C27.6053 94.2293 27.1787 94.272 26.752 94.272C26.3253 94.3573 25.8987 94.4 25.472 94.4C24.1067 94.4853 22.6987 94.4853 21.248 94.4C19.8827 94.4 18.5173 94.3147 17.152 94.144C15.1893 93.9733 13.2267 93.8027 11.264 93.632C9.38667 93.4613 7.46667 93.1627 5.504 92.736L3.456 94.272ZM3.072 92.736L4.992 91.328C5.07733 91.2427 5.16267 91.2 5.248 91.2C5.33333 91.2 5.376 91.2 5.376 91.2C7.33867 91.5413 9.30133 91.84 11.264 92.096C13.312 92.2667 15.3173 92.48 17.28 92.736C18.6453 92.8213 19.968 92.9067 21.248 92.992C22.6133 92.992 23.9787 92.9493 25.344 92.864C25.7707 92.864 26.1973 92.864 26.624 92.864C27.0507 92.7787 27.4773 92.6933 27.904 92.608C28.0747 92.608 28.3733 92.608 28.8 92.608C29.4827 92.608 29.952 92.5653 30.208 92.48C30.5493 92.3947 30.8907 92.3093 31.232 92.224C31.6587 92.1387 32 91.968 32.256 91.712C32.512 91.456 32.6827 91.1573 32.768 90.816C32.9387 90.3893 33.024 90.0053 33.024 89.664C33.1093 89.408 33.1093 89.152 33.024 88.896C33.024 88.5547 33.024 88.256 33.024 88C32.9387 87.744 32.896 87.5307 32.896 87.36C32.896 86.5067 32.8107 85.6533 32.64 84.8C32.5547 83.9467 32.512 83.0507 32.512 82.112C32.4267 81.4293 32.4267 80.7467 32.512 80.064C32.6827 79.3813 32.8107 78.6987 32.896 78.016C32.9813 77.248 33.0667 76.48 33.152 75.712C33.2373 74.944 33.28 74.176 33.28 73.408C33.28 72.5547 33.1947 71.7013 33.024 70.848C32.8533 69.9093 32.6827 69.0133 32.512 68.16C32.512 67.904 32.4267 67.6053 32.256 67.264C32.1707 66.9227 32.0853 66.5813 32 66.24C31.9147 65.8987 32 65.5573 32.256 65.216C32.512 64.96 32.768 64.832 33.024 64.832C33.3653 64.832 33.7067 64.8747 34.048 64.96C34.3893 65.0453 34.6453 65.088 34.816 65.088C35.9253 65.088 37.0347 65.0453 38.144 64.96C39.2533 64.7893 40.3627 64.6187 41.472 64.448C43.6053 64.1067 45.7813 63.9787 48 64.064C50.2187 64.1493 52.4373 64.32 54.656 64.576C55.68 64.6613 56.6613 64.7467 57.6 64.832C58.5387 64.9173 59.4773 64.96 60.416 64.96C60.928 64.96 61.44 64.96 61.952 64.96C62.464 64.96 62.976 65.0027 63.488 65.088C63.744 65.088 64.128 65.088 64.64 65.088C65.4933 65.1733 66.3467 65.216 67.2 65.216C68.0533 65.1307 68.864 64.8747 69.632 64.448C69.9733 64.2773 70.272 64.0213 70.528 63.68C70.784 63.2533 70.9973 62.8693 71.168 62.528C71.3387 62.1867 71.424 61.8453 71.424 61.504C71.5093 61.1627 71.552 60.8213 71.552 60.48C71.808 59.3707 72.0213 58.2613 72.192 57.152C72.3627 55.9573 72.4907 54.7627 72.576 53.568C72.6613 52.3733 72.6187 51.1787 72.448 49.984C72.2773 48.704 72.0213 47.424 71.68 46.144C71.68 45.888 71.6373 45.632 71.552 45.376C71.4667 45.0347 71.424 44.736 71.424 44.48C71.2533 43.712 71.1253 42.7733 71.04 41.664C70.9547 40.5547 70.6133 39.744 70.016 39.232C69.76 38.976 69.4187 38.8053 68.992 38.72C68.6507 38.6347 68.3093 38.5493 67.968 38.464C67.3707 38.464 66.7307 38.5067 66.048 38.592C65.3653 38.6773 64.7253 38.7627 64.128 38.848C63.7867 38.848 63.488 38.8907 63.232 38.976C62.976 38.976 62.72 39.0187 62.464 39.104C62.1227 39.104 61.7813 39.1467 61.44 39.232C61.0987 39.3173 60.7573 39.36 60.416 39.36C59.3067 39.5307 58.1973 39.7013 57.088 39.872C55.9787 40.0427 54.8693 40.0853 53.76 40C53.248 40 52.6933 39.9573 52.096 39.872C51.584 39.7867 51.072 39.7013 50.56 39.616C49.792 39.5307 48.9813 39.4453 48.128 39.36C47.2747 39.2747 46.4213 39.2747 45.568 39.36C44.288 39.4453 42.9653 39.5307 41.6 39.616C40.2347 39.7013 38.8693 39.7867 37.504 39.872C37.3333 39.872 37.0773 39.9147 36.736 40C36.3947 40.0853 36.0533 40.1707 35.712 40.256C35.456 40.256 35.2 40.0853 34.944 39.744C34.688 39.488 34.56 39.232 34.56 38.976C34.56 38.6347 34.6027 38.2933 34.688 37.952C34.8587 37.5253 34.944 37.2267 34.944 37.056C34.944 36.1173 34.944 35.264 34.944 34.496C34.8587 34.1547 34.7733 33.7707 34.688 33.344C34.688 32.9173 34.688 32.5333 34.688 32.192C34.688 32.0213 34.6027 31.7227 34.432 31.296C34.3467 31.04 34.2613 30.784 34.176 30.528C34.0907 30.1867 34.2187 29.888 34.56 29.632C34.9013 29.376 35.2 29.2907 35.456 29.376C35.712 29.376 36.0107 29.4613 36.352 29.632C36.6933 29.8027 36.992 29.888 37.248 29.888C37.9307 29.9733 38.6133 30.0587 39.296 30.144C40.064 30.144 40.832 30.144 41.6 30.144C41.7707 30.144 42.0267 30.144 42.368 30.144C42.9653 30.0587 43.52 30.016 44.032 30.016C44.6293 30.016 45.2267 30.0587 45.824 30.144C46.592 30.2293 47.3173 30.4 48 30.656C48.6827 30.8267 49.408 30.9973 50.176 31.168C50.944 31.3387 51.7547 31.4667 52.608 31.552C53.4613 31.6373 54.272 31.7227 55.04 31.808C55.3813 31.8933 55.808 31.9787 56.32 32.064C56.9173 32.1493 57.5573 32.2347 58.24 32.32C58.9227 32.4053 59.6053 32.4053 60.288 32.32C61.056 32.32 61.824 32.2773 62.592 32.192C63.4453 32.0213 64.256 31.808 65.024 31.552C65.4507 31.4667 65.8347 31.3813 66.176 31.296C66.5173 31.1253 66.9013 30.9973 67.328 30.912C68.0107 30.7413 68.736 30.5707 69.504 30.4C70.3573 30.2293 70.9973 29.8453 71.424 29.248C71.936 28.6507 72.192 28.0107 72.192 27.328C72.192 26.56 72.1493 25.792 72.064 25.024C72.064 24.512 72.064 24.128 72.064 23.872C71.9787 22.4213 71.936 20.9707 71.936 19.52C72.0213 18.0693 72.192 16.6613 72.448 15.296C72.6187 14.016 72.832 12.7787 73.088 11.584C73.344 10.3893 73.5147 9.152 73.6 7.872C73.6 7.78667 73.6 7.65867 73.6 7.488C73.6853 6.72 73.6853 5.952 73.6 5.184C73.6 4.33067 73.344 3.56267 72.832 2.88C72.2347 2.28267 71.5093 1.94134 70.656 1.856C69.888 1.68533 69.12 1.6 68.352 1.6C68.0107 1.6 67.7973 1.6 67.712 1.6C67.2 1.6 66.7307 1.6 66.304 1.6C65.8773 1.51467 65.4507 1.51467 65.024 1.6C63.6587 1.6 62.2507 1.77067 60.8 2.112C59.4347 2.368 58.0693 2.66667 56.704 3.008C54.5707 3.52 52.4373 3.94667 50.304 4.288C48.256 4.62934 46.2933 4.62934 44.416 4.288C43.8187 4.20267 43.2213 4.11733 42.624 4.032C42.0267 3.94667 41.4293 3.81867 40.832 3.648C39.9787 3.47733 39.1253 3.30667 38.272 3.136C37.504 2.96533 36.6933 2.88 35.84 2.88C34.2187 2.96533 32.64 3.22134 31.104 3.648C29.6533 3.98934 28.16 4.33067 26.624 4.672C24.832 5.01333 22.9973 5.26933 21.12 5.44C19.2427 5.61067 17.3653 5.73867 15.488 5.824C14.2933 5.824 13.056 5.86667 11.776 5.952C10.496 5.952 9.216 5.99467 7.936 6.08C7.68 6.08 7.296 6.03734 6.784 5.952C6.10133 5.952 5.41867 5.99467 4.736 6.08C4.05333 6.08 3.456 6.29333 2.944 6.72C2.432 7.14667 2.176 7.744 2.176 8.512C2.26133 9.28 2.38933 10.048 2.56 10.816C2.56 11.072 2.56 11.3707 2.56 11.712C2.64533 11.968 2.688 12.224 2.688 12.48C2.688 13.0773 2.64533 13.6747 2.56 14.272C2.47467 14.8693 2.38933 15.424 2.304 15.936C2.21867 16.3627 2.13333 16.7893 2.048 17.216C1.96267 17.5573 1.92 17.9413 1.92 18.368C1.83467 19.0507 1.74933 19.776 1.664 20.544C1.664 21.2267 1.664 21.9093 1.664 22.592C1.664 23.0187 1.664 23.488 1.664 24C1.664 24.4267 1.664 24.8533 1.664 25.28C1.57867 26.2187 1.536 27.1147 1.536 27.968C1.536 28.8213 1.57867 29.6747 1.664 30.528C1.74933 31.7227 1.92 32.9173 2.176 34.112C2.432 35.2213 2.60267 36.3733 2.688 37.568C2.77333 38.1653 2.77333 38.7627 2.688 39.36C2.688 39.872 2.688 40.4267 2.688 41.024C2.688 41.6213 2.64533 42.048 2.56 42.304C2.56 44.1813 2.51733 46.0587 2.432 47.936C2.34667 49.8133 2.304 51.6907 2.304 53.568C2.304 54.336 2.304 55.104 2.304 55.872C2.38933 56.64 2.432 57.408 2.432 58.176C2.432 58.7733 2.432 59.4133 2.432 60.096C2.51733 60.6933 2.56 61.2907 2.56 61.888C2.56 62.4853 2.56 63.1253 2.56 63.808C2.56 64.4053 2.56 65.0027 2.56 65.6C2.47467 66.2827 2.432 66.9653 2.432 67.648C2.432 68.2453 2.432 68.8853 2.432 69.568C2.432 70.4213 2.47467 71.3173 2.56 72.256C2.64533 73.1093 2.688 74.0053 2.688 74.944C2.688 75.8827 2.64533 76.864 2.56 77.888C2.56 78.8267 2.51733 79.808 2.432 80.832C2.432 81.6853 2.38933 82.5387 2.304 83.392C2.304 84.2453 2.304 85.0987 2.304 85.952C2.304 86.8053 2.304 87.6587 2.304 88.512C2.304 89.3653 2.304 90.176 2.304 90.944C2.38933 91.2853 2.47467 91.584 2.56 91.84C2.73067 92.096 2.90133 92.3947 3.072 92.736Z" fill="currentColor"/>
<path d="M85.438 92.736C85.3527 92.736 85.2673 92.6933 85.182 92.608C85.0113 92.4373 84.926 92.352 84.926 92.352C84.67 92.0107 84.3713 91.6693 84.03 91.328C83.6887 90.9013 83.4327 90.432 83.262 89.92C83.0913 89.4933 82.9633 89.0667 82.878 88.64C82.7927 88.128 82.75 87.616 82.75 87.104C82.494 85.4827 82.4087 83.8613 82.494 82.24C82.6647 80.5333 82.8353 78.8693 83.006 77.248C83.3473 74.7733 83.518 72.256 83.518 69.696C83.518 67.136 83.774 64.6187 84.286 62.144C84.4567 60.6933 84.7553 59.2853 85.182 57.92C85.6087 56.4693 85.8647 55.0187 85.95 53.568C86.1207 52.032 86.1633 50.5387 86.078 49.088C85.9927 47.6373 85.9073 46.144 85.822 44.608C85.7367 44.2667 85.6513 43.9253 85.566 43.584C85.566 43.1573 85.566 42.7307 85.566 42.304C85.4807 40.8533 85.3953 39.4027 85.31 37.952C85.2247 36.5013 85.0967 35.0507 84.926 33.6C84.7553 32.576 84.542 31.5947 84.286 30.656C84.03 29.632 83.8593 28.6507 83.774 27.712C83.6887 26.944 83.646 26.2187 83.646 25.536C83.7313 24.768 83.774 24.0427 83.774 23.36C83.774 23.1893 83.774 23.0613 83.774 22.976C83.8593 22.1227 83.8593 21.2693 83.774 20.416C83.774 19.4773 83.774 18.5813 83.774 17.728C83.774 17.216 83.7313 16.7467 83.646 16.32C83.646 15.8933 83.646 15.424 83.646 14.912C83.646 14.656 83.646 14.4 83.646 14.144C83.646 13.8027 83.646 13.504 83.646 13.248C83.646 12.6507 83.646 12.0533 83.646 11.456C83.646 10.8587 83.6033 10.2613 83.518 9.664C83.518 9.32267 83.4327 8.85333 83.262 8.256C83.0913 7.488 82.9633 6.76267 82.878 6.08C82.878 5.312 83.0913 4.58667 83.518 3.904C83.774 3.47733 84.1153 3.136 84.542 2.88C84.9687 2.624 85.438 2.45334 85.95 2.368C86.206 2.28267 86.462 2.24 86.718 2.24C87.0593 2.24 87.358 2.28267 87.614 2.368C87.9553 2.368 88.2113 2.368 88.382 2.368C88.8087 2.368 89.2353 2.368 89.662 2.368C90.0887 2.368 90.558 2.41067 91.07 2.496C93.886 2.58133 96.702 2.66667 99.518 2.752C102.419 2.752 105.278 2.66667 108.094 2.496C108.435 2.496 108.777 2.496 109.118 2.496C109.459 2.41067 109.758 2.368 110.014 2.368C110.526 2.28267 111.038 2.24 111.55 2.24C112.062 2.15467 112.574 2.112 113.086 2.112C113.598 2.19733 114.11 2.28267 114.622 2.368C115.219 2.45334 115.731 2.66667 116.158 3.008C116.926 3.60533 117.395 4.416 117.566 5.44C117.822 6.464 117.993 7.44533 118.078 8.384C118.249 9.57867 118.334 10.816 118.334 12.096C118.419 13.376 118.505 14.6133 118.59 15.808C118.675 18.1973 118.803 20.5867 118.974 22.976C119.145 25.28 119.315 27.584 119.486 29.888C119.571 31.2533 119.614 32.6613 119.614 34.112C119.614 35.4773 119.614 36.8853 119.614 38.336C119.699 38.9333 119.742 39.5733 119.742 40.256C119.827 40.9387 119.913 41.6213 119.998 42.304C120.083 43.9253 120.169 45.5893 120.254 47.296C120.425 48.9173 120.382 50.5387 120.126 52.16C119.87 54.0373 119.571 55.9147 119.23 57.792C118.974 59.6693 118.675 61.5467 118.334 63.424C118.249 63.8507 118.163 64.2773 118.078 64.704C117.993 65.1307 117.907 65.5573 117.822 65.984C117.822 66.1547 117.694 66.496 117.438 67.008C117.267 67.3493 117.225 67.5627 117.31 67.648C117.31 67.648 117.31 67.6053 117.31 67.52C117.395 67.52 117.566 67.4773 117.822 67.392C118.078 67.2213 118.419 67.1787 118.846 67.264C119.699 67.264 120.553 67.3067 121.406 67.392C122.259 67.4773 123.155 67.52 124.094 67.52C125.033 67.6053 125.971 67.648 126.91 67.648C127.849 67.648 128.787 67.5627 129.726 67.392C130.75 67.3067 131.731 67.136 132.67 66.88C133.609 66.624 134.59 66.368 135.614 66.112C137.747 65.6 140.009 65.2587 142.398 65.088C144.787 64.832 147.091 64.9173 149.31 65.344C150.078 65.4293 150.846 65.5147 151.614 65.6C152.382 65.6853 153.15 65.856 153.918 66.112C154.43 66.2827 154.942 66.4533 155.454 66.624C155.966 66.7093 156.435 66.9653 156.862 67.392C157.886 68.3307 158.313 69.4827 158.142 70.848C157.971 72.128 157.715 73.3653 157.374 74.56C157.289 74.9013 157.246 75.1573 157.246 75.328C156.99 76.2667 156.691 77.248 156.35 78.272C156.094 79.2107 155.923 80.192 155.838 81.216C155.838 81.216 155.838 81.2587 155.838 81.344C155.753 81.6 155.667 81.856 155.582 82.112C155.582 82.2827 155.582 82.496 155.582 82.752C155.582 82.752 155.582 82.7093 155.582 82.624C155.582 82.5387 155.539 82.4533 155.454 82.368C155.369 82.2827 155.283 82.1973 155.198 82.112C155.113 82.112 155.07 82.112 155.07 82.112C155.241 82.1973 155.411 82.496 155.582 83.008C155.838 83.4347 155.838 84.1173 155.582 85.056C155.582 85.3973 155.539 85.7813 155.454 86.208C155.454 86.5493 155.411 86.9333 155.326 87.36C155.155 87.7867 154.942 88.256 154.686 88.768C154.43 89.28 154.089 89.7067 153.662 90.048C153.235 90.3893 152.766 90.6453 152.254 90.816C151.742 90.9867 151.23 91.1147 150.718 91.2C149.865 91.3707 149.011 91.4987 148.158 91.584C147.305 91.584 146.494 91.6693 145.726 91.84C143.507 92.352 141.246 92.8213 138.942 93.248C136.723 93.6747 134.505 94.0587 132.286 94.4C131.518 94.4 130.75 94.4 129.982 94.4C129.299 94.4853 128.574 94.6133 127.806 94.784C127.294 94.8693 126.782 94.9547 126.27 95.04C125.758 95.1253 125.246 95.2107 124.734 95.296C123.71 95.552 122.643 95.7653 121.534 95.936C120.51 96.1067 119.443 96.192 118.334 96.192C117.481 96.1067 116.67 95.936 115.902 95.68C115.219 95.5093 114.494 95.3387 113.726 95.168C111.422 94.656 109.246 94.272 107.198 94.016C107.198 94.016 107.155 94.016 107.07 94.016C104.595 93.4187 101.822 93.1627 98.75 93.248C95.7633 93.3333 92.9047 93.504 90.174 93.76C89.8327 93.76 89.534 93.76 89.278 93.76C89.022 93.8453 88.7233 93.888 88.382 93.888C88.382 93.888 88.3393 93.888 88.254 93.888C88.0833 93.8027 87.998 93.76 87.998 93.76L85.438 92.736ZM86.078 91.328L88.51 92.352C88.766 92.352 89.2353 92.3093 89.918 92.224C92.734 91.968 95.678 91.7973 98.75 91.712C101.907 91.6267 104.809 91.8827 107.454 92.48C109.502 92.736 111.678 93.1627 113.982 93.76C114.75 93.9307 115.475 94.1013 116.158 94.272C116.926 94.4427 117.651 94.5707 118.334 94.656C119.443 94.656 120.51 94.5707 121.534 94.4C122.558 94.2293 123.582 94.016 124.606 93.76C125.033 93.6747 125.502 93.5893 126.014 93.504C126.526 93.4187 127.038 93.3333 127.55 93.248C128.318 93.0773 129.086 92.992 129.854 92.992C130.622 92.992 131.347 92.9493 132.03 92.864C134.334 92.5227 136.595 92.1387 138.814 91.712C141.033 91.2853 143.209 90.816 145.342 90.304C146.195 90.1333 147.006 90.048 147.774 90.048C148.627 89.9627 149.481 89.8347 150.334 89.664C150.761 89.5787 151.187 89.4933 151.614 89.408C152.041 89.3227 152.425 89.152 152.766 88.896C153.022 88.64 153.235 88.3413 153.406 88C153.577 87.5733 153.705 87.1893 153.79 86.848C153.961 86.5067 154.046 86.0373 154.046 85.44C154.046 85.0987 154.046 84.8853 154.046 84.8C154.046 84.8 154.046 84.7573 154.046 84.672C154.217 84.16 154.345 83.776 154.43 83.52C154.43 83.4347 154.43 83.392 154.43 83.392C154.345 83.392 154.302 83.392 154.302 83.392C154.131 83.136 154.046 82.7947 154.046 82.368C154.131 81.9413 154.217 81.5573 154.302 81.216C154.302 81.1307 154.302 81.088 154.302 81.088C154.387 80.064 154.558 79.04 154.814 78.016C155.155 76.992 155.454 75.968 155.71 74.944C155.795 74.7733 155.881 74.4747 155.966 74.048C156.222 73.1093 156.435 72.128 156.606 71.104C156.777 70.08 156.478 69.184 155.71 68.416C155.454 68.16 155.113 67.9893 154.686 67.904C154.259 67.8187 153.875 67.7333 153.534 67.648C152.766 67.392 151.998 67.2213 151.23 67.136C150.547 67.0507 149.822 66.9227 149.054 66.752C146.921 66.4107 144.702 66.368 142.398 66.624C140.094 66.7947 137.918 67.136 135.87 67.648C134.931 67.8187 133.95 68.0747 132.926 68.416C131.987 68.672 131.006 68.8427 129.982 68.928C128.958 69.0987 127.934 69.184 126.91 69.184C125.971 69.184 124.99 69.1413 123.966 69.056C123.113 69.056 122.217 69.0133 121.278 68.928C120.425 68.8427 119.571 68.8 118.718 68.8C118.547 68.7147 118.249 68.7573 117.822 68.928C117.481 69.0133 117.139 69.056 116.798 69.056C116.542 69.056 116.286 68.8853 116.03 68.544C115.774 68.288 115.689 67.9893 115.774 67.648C115.859 67.3067 115.945 66.9653 116.03 66.624C116.201 66.1973 116.286 65.8987 116.286 65.728C116.371 65.3013 116.457 64.8747 116.542 64.448C116.627 64.0213 116.713 63.5947 116.798 63.168C117.139 61.2907 117.438 59.4133 117.694 57.536C118.035 55.6587 118.334 53.7813 118.59 51.904C118.846 50.368 118.931 48.7893 118.846 47.168C118.761 45.5467 118.633 43.9253 118.462 42.304C118.377 41.7067 118.291 41.0667 118.206 40.384C118.206 39.7013 118.163 39.0187 118.078 38.336C118.078 36.9707 118.078 35.6053 118.078 34.24C118.078 32.7893 118.035 31.3813 117.95 30.016C117.779 27.6267 117.609 25.28 117.438 22.976C117.267 20.5867 117.139 18.24 117.054 15.936C116.969 14.656 116.883 13.4187 116.798 12.224C116.798 10.944 116.713 9.70667 116.542 8.512C116.457 7.82933 116.329 7.06133 116.158 6.208C116.073 5.35467 115.731 4.672 115.134 4.16C114.878 3.98933 114.537 3.86133 114.11 3.776C113.683 3.69067 113.299 3.648 112.958 3.648C112.531 3.648 112.062 3.69067 111.55 3.776C111.038 3.776 110.569 3.81867 110.142 3.904C109.801 3.904 109.459 3.94667 109.118 4.032C108.777 4.032 108.435 4.032 108.094 4.032C105.278 4.20267 102.419 4.288 99.518 4.288C96.6167 4.20267 93.758 4.11733 90.942 4.032C90.5153 3.94667 90.0887 3.904 89.662 3.904C89.2353 3.904 88.8087 3.904 88.382 3.904C88.2113 3.904 87.9553 3.904 87.614 3.904C87.0167 3.81867 86.59 3.81867 86.334 3.904C86.078 3.904 85.7793 3.98933 85.438 4.16C85.182 4.24534 84.9687 4.416 84.798 4.672C84.4567 5.184 84.3287 5.73867 84.414 6.336C84.4993 6.93333 84.6273 7.53067 84.798 8.128C84.9687 8.72533 85.054 9.152 85.054 9.408C85.1393 10.0907 85.182 10.7733 85.182 11.456C85.182 12.0533 85.182 12.6507 85.182 13.248C85.182 13.504 85.182 13.8027 85.182 14.144C85.182 14.4 85.182 14.656 85.182 14.912C85.182 15.3387 85.182 15.808 85.182 16.32C85.182 16.7467 85.2247 17.216 85.31 17.728C85.31 18.5813 85.31 19.4773 85.31 20.416C85.3953 21.2693 85.3953 22.1653 85.31 23.104C85.31 23.1893 85.31 23.3173 85.31 23.488C85.31 24.1707 85.2673 24.8533 85.182 25.536C85.182 26.1333 85.2247 26.7733 85.31 27.456C85.3953 28.48 85.566 29.504 85.822 30.528C86.078 31.4667 86.2913 32.4053 86.462 33.344C86.6327 34.7947 86.7607 36.288 86.846 37.824C86.9313 39.2747 87.0167 40.7253 87.102 42.176C87.102 42.6027 87.102 43.0293 87.102 43.456C87.1873 43.7973 87.2727 44.1387 87.358 44.48C87.4433 46.016 87.5287 47.552 87.614 49.088C87.6993 50.624 87.6567 52.16 87.486 53.696C87.3153 55.1467 87.0167 56.5973 86.59 58.048C86.2487 59.4987 85.9927 60.9493 85.822 62.4C85.31 64.8747 85.0113 67.392 84.926 69.952C84.926 72.4267 84.7553 74.944 84.414 77.504C84.3287 79.04 84.2007 80.6187 84.03 82.24C83.9447 83.776 83.9873 85.3547 84.158 86.976C84.2433 87.3173 84.286 87.7013 84.286 88.128C84.3713 88.5547 84.4993 88.9813 84.67 89.408C84.8407 89.7493 85.054 90.0907 85.31 90.432C85.566 90.688 85.822 90.9867 86.078 91.328Z" fill="currentColor"/>
<path d="M200.784 94.656C200.613 94.656 200.315 94.656 199.888 94.656C199.632 94.7413 199.333 94.784 198.992 94.784C198.651 94.784 198.352 94.7413 198.096 94.656C196.731 94.5707 195.365 94.4 194 94.144C192.635 93.888 191.269 93.6747 189.904 93.504C188.709 93.3333 187.472 93.2053 186.192 93.12C184.997 93.0347 183.803 92.736 182.608 92.224C181.669 91.7973 180.773 91.2853 179.92 90.688C179.152 90.0907 178.384 89.4933 177.616 88.896C176.848 88.2987 176.037 87.7013 175.184 87.104C174.416 86.5067 173.648 85.8667 172.88 85.184C172.197 84.5867 171.515 83.9467 170.832 83.264C170.235 82.5813 169.595 81.8987 168.912 81.216C168.059 80.448 167.205 79.7227 166.352 79.04C165.499 78.272 164.731 77.4187 164.048 76.48C163.024 74.8587 162.384 73.152 162.128 71.36C161.957 69.4827 161.744 67.6053 161.488 65.728C161.232 64.0213 160.933 62.3573 160.592 60.736C160.336 59.0293 160.165 57.3227 160.08 55.616C159.995 54.7627 159.995 53.952 160.08 53.184C160.165 52.3307 160.251 51.52 160.336 50.752C160.421 50.1547 160.464 49.5573 160.464 48.96C160.549 48.3627 160.592 47.7653 160.592 47.168C160.592 46.4853 160.592 45.8027 160.592 45.12C160.592 44.4373 160.549 43.7547 160.464 43.072C160.464 42.304 160.421 41.536 160.336 40.768C160.336 39.9147 160.336 39.104 160.336 38.336C160.421 37.3973 160.549 36.4587 160.72 35.52C160.891 34.496 161.061 33.5147 161.232 32.576C161.488 31.7227 161.701 30.8693 161.872 30.016C162.128 29.1627 162.427 28.352 162.768 27.584C163.195 26.56 163.707 25.6213 164.304 24.768C164.987 23.8293 165.584 22.8907 166.096 21.952C166.693 20.8427 167.248 19.7333 167.76 18.624C168.357 17.4293 169.04 16.32 169.808 15.296C170.405 14.6133 171.045 14.016 171.728 13.504C172.411 12.9067 173.136 12.352 173.904 11.84C174.843 11.072 175.781 10.3467 176.72 9.664C177.744 8.98133 178.768 8.34133 179.792 7.744C181.584 6.89067 183.419 6.208 185.296 5.696C187.173 5.09867 189.051 4.50134 190.928 3.904C191.355 3.73333 191.781 3.56267 192.208 3.392C192.635 3.22133 193.061 3.05067 193.488 2.88C195.109 2.368 196.731 1.89867 198.352 1.472C199.973 0.960002 201.595 0.746668 203.216 0.832001C204.667 0.917333 206.075 1.13067 207.44 1.472C208.805 1.728 210.171 1.94134 211.536 2.112C211.621 2.112 211.707 2.112 211.792 2.112C211.877 2.112 211.92 2.15467 211.92 2.24C212.432 2.496 212.859 2.624 213.2 2.624C213.627 2.53867 214.011 2.45334 214.352 2.368C214.779 2.28267 215.205 2.24 215.632 2.24C216.059 2.24 216.613 2.368 217.296 2.624C218.235 2.79467 219.173 3.008 220.112 3.264C221.051 3.43466 221.989 3.60533 222.928 3.776C224.379 4.032 225.787 4.37334 227.152 4.8C228.603 5.14133 229.925 5.73867 231.12 6.592C231.803 7.104 232.443 7.70133 233.04 8.384C233.723 8.98133 234.405 9.57867 235.088 10.176C235.941 10.944 236.795 11.7547 237.648 12.608C238.501 13.376 239.269 14.2293 239.952 15.168C240.805 16.3627 241.573 17.5573 242.256 18.752C243.024 19.9467 243.792 21.1413 244.56 22.336C245.243 23.4453 245.883 24.5973 246.48 25.792C247.077 26.9013 247.547 28.096 247.888 29.376C248.059 30.3147 248.144 31.296 248.144 32.32C248.144 33.344 248.101 34.3253 248.016 35.264C247.931 35.9467 247.888 36.4587 247.888 36.8C247.803 38.336 247.76 39.8293 247.76 41.28C247.76 42.7307 247.717 44.1813 247.632 45.632C247.632 45.9733 247.632 46.4427 247.632 47.04C247.547 47.7227 247.504 48.3627 247.504 48.96C247.504 49.5573 247.504 50.1973 247.504 50.88C247.504 51.5627 247.547 52.288 247.632 53.056C247.717 53.824 247.76 54.592 247.76 55.36C247.931 56.7253 248.059 58.0907 248.144 59.456C248.229 60.8213 248.187 62.1867 248.016 63.552C248.016 63.4667 248.016 63.4667 248.016 63.552C247.845 65.1733 247.547 66.7947 247.12 68.416C246.779 70.0373 246.267 71.5733 245.584 73.024C245.157 73.8773 244.688 74.7307 244.176 75.584C243.749 76.352 243.28 77.12 242.768 77.888C242 79.168 241.189 80.4053 240.336 81.6C239.568 82.7947 238.672 83.904 237.648 84.928C236.88 85.6107 236.112 86.208 235.344 86.72C234.576 87.232 233.808 87.744 233.04 88.256C231.931 89.024 230.821 89.792 229.712 90.56C228.688 91.328 227.536 91.968 226.256 92.48C224.891 92.992 223.483 93.3333 222.032 93.504C220.667 93.6747 219.301 93.888 217.936 94.144C215.717 94.4853 213.456 94.784 211.152 95.04C208.848 95.296 206.587 95.424 204.368 95.424C204.368 95.424 204.325 95.424 204.24 95.424C204.155 95.424 204.112 95.424 204.112 95.424L200.784 94.656ZM200.912 93.12L204.368 93.888C206.587 93.888 208.805 93.76 211.024 93.504C213.243 93.248 215.461 92.9493 217.68 92.608C219.045 92.4373 220.411 92.2667 221.776 92.096C223.141 91.9253 224.421 91.584 225.616 91.072C226.811 90.56 227.92 89.92 228.944 89.152C230.053 88.384 231.12 87.6587 232.144 86.976C232.912 86.464 233.68 85.9947 234.448 85.568C235.216 85.056 235.899 84.5013 236.496 83.904C237.52 82.88 238.416 81.8133 239.184 80.704C240.037 79.5093 240.805 78.3147 241.488 77.12C242 76.352 242.469 75.584 242.896 74.816C243.408 74.048 243.835 73.2373 244.176 72.384C244.859 70.9333 245.371 69.44 245.712 67.904C246.053 66.368 246.309 64.832 246.48 63.296C246.651 62.016 246.693 60.736 246.608 59.456C246.523 58.0907 246.395 56.7253 246.224 55.36C246.224 54.592 246.181 53.8667 246.096 53.184C246.011 52.416 245.968 51.648 245.968 50.88C245.968 50.1973 245.968 49.5573 245.968 48.96C245.968 48.2773 246.011 47.6373 246.096 47.04C246.096 46.3573 246.096 45.888 246.096 45.632C246.181 44.1813 246.224 42.7307 246.224 41.28C246.224 39.744 246.267 38.2507 246.352 36.8C246.352 36.4587 246.395 35.9467 246.48 35.264C246.565 34.3253 246.608 33.3867 246.608 32.448C246.608 31.5093 246.523 30.5707 246.352 29.632C246.096 28.4373 245.669 27.328 245.072 26.304C244.475 25.28 243.835 24.256 243.152 23.232C242.469 22.0373 241.787 20.8427 241.104 19.648C240.421 18.4533 239.653 17.2587 238.8 16.064C238.117 15.2107 237.349 14.4 236.496 13.632C235.643 12.864 234.789 12.096 233.936 11.328C233.339 10.7307 232.741 10.1333 232.144 9.536C231.547 8.93867 230.907 8.384 230.224 7.872C229.115 7.01867 227.92 6.42134 226.64 6.08C225.36 5.73867 224.037 5.44 222.672 5.184C221.733 5.01333 220.795 4.84267 219.856 4.672C218.917 4.50133 217.936 4.33067 216.912 4.16C216.827 4.16 216.784 4.16 216.784 4.16C216.187 3.81867 215.675 3.69067 215.248 3.776C214.907 3.776 214.523 3.81867 214.096 3.904C213.755 3.98933 213.371 4.032 212.944 4.032C212.517 4.032 211.963 3.904 211.28 3.648C209.915 3.392 208.549 3.136 207.184 2.88C205.904 2.624 204.581 2.45334 203.216 2.368C201.595 2.28267 200.016 2.45333 198.48 2.88C197.029 3.30666 195.536 3.81866 194 4.416C193.573 4.58666 193.147 4.75733 192.72 4.928C192.293 5.01333 191.867 5.14133 191.44 5.312C189.563 5.90933 187.685 6.464 185.808 6.976C184.016 7.488 182.267 8.21334 180.56 9.152C179.536 9.664 178.555 10.2613 177.616 10.944C176.677 11.6267 175.739 12.3093 174.8 12.992C174.117 13.504 173.435 14.016 172.752 14.528C172.155 15.04 171.6 15.6373 171.088 16.32C170.235 17.2587 169.552 18.2827 169.04 19.392C168.528 20.5013 167.973 21.6107 167.376 22.72C166.864 23.6587 166.309 24.5547 165.712 25.408C165.115 26.2613 164.603 27.2 164.176 28.224C163.835 28.9067 163.536 29.6747 163.28 30.528C163.109 31.296 162.939 32.064 162.768 32.832C162.597 33.7707 162.427 34.7093 162.256 35.648C162.085 36.5867 161.957 37.5253 161.872 38.464C161.872 39.232 161.872 40 161.872 40.768C161.957 41.536 162 42.304 162 43.072C162.085 43.7547 162.128 44.48 162.128 45.248C162.128 45.9307 162.128 46.6133 162.128 47.296C162.128 47.8933 162.085 48.4907 162 49.088C162 49.6 161.957 50.1547 161.872 50.752C161.787 51.52 161.701 52.3307 161.616 53.184C161.531 53.952 161.531 54.72 161.616 55.488C161.701 57.1947 161.872 58.9013 162.128 60.608C162.469 62.2293 162.768 63.8933 163.024 65.6C163.28 67.2213 163.451 68.928 163.536 70.72C163.707 72.512 164.304 74.1333 165.328 75.584C165.925 76.5227 166.651 77.3333 167.504 78.016C168.357 78.6987 169.168 79.3813 169.936 80.064C170.619 80.7467 171.259 81.4293 171.856 82.112C172.539 82.7947 173.221 83.4347 173.904 84.032C174.672 84.7147 175.44 85.3547 176.208 85.952C176.976 86.5493 177.744 87.1467 178.512 87.744C179.28 88.256 180.048 88.8107 180.816 89.408C181.584 89.92 182.395 90.3893 183.248 90.816C184.357 91.2427 185.467 91.5413 186.576 91.712C187.771 91.7973 188.965 91.8827 190.16 91.968C191.44 92.1387 192.763 92.3947 194.128 92.736C195.493 92.992 196.816 93.12 198.096 93.12C198.437 93.2053 198.736 93.248 198.992 93.248C199.333 93.248 199.632 93.2053 199.888 93.12C200.315 93.12 200.656 93.12 200.912 93.12ZM203.088 69.952C203.088 69.952 203.045 69.952 202.96 69.952C202.875 69.952 202.832 69.952 202.832 69.952C201.808 69.8667 200.869 69.7813 200.016 69.696C199.163 69.6107 198.267 69.312 197.328 68.8C195.621 67.776 194.384 66.368 193.616 64.576C192.848 62.784 192.464 60.9493 192.464 59.072C192.293 56.3413 192.549 53.3547 193.232 50.112C194 46.784 194.768 43.7973 195.536 41.152C195.792 40.0427 195.963 38.976 196.048 37.952C196.133 36.8427 196.219 35.7333 196.304 34.624C196.304 34.4533 196.261 34.1547 196.176 33.728C196.091 33.3867 196.048 33.088 196.048 32.832C196.048 32.4907 196.133 32.1493 196.304 31.808C196.816 31.04 197.669 30.4427 198.864 30.016C200.059 29.5893 201.083 29.2907 201.936 29.12C202.789 28.9493 203.685 28.864 204.624 28.864C205.563 28.7787 206.459 28.736 207.312 28.736C207.909 28.736 208.336 28.736 208.592 28.736C208.848 28.736 209.232 28.736 209.744 28.736C210.171 28.6507 210.597 28.608 211.024 28.608C211.451 28.608 211.835 28.6933 212.176 28.864C212.688 29.0347 213.072 29.3333 213.328 29.76C213.669 30.1013 213.968 30.4853 214.224 30.912C214.736 31.5947 215.035 32.32 215.12 33.088C215.291 33.856 215.376 34.624 215.376 35.392C215.461 36.2453 215.461 37.1413 215.376 38.08C215.376 38.9333 215.333 39.8293 215.248 40.768C215.163 41.28 215.12 41.664 215.12 41.92C214.864 44.3947 214.736 46.912 214.736 49.472C214.736 51.9467 214.523 54.4213 214.096 56.896C213.84 58.432 213.456 59.9253 212.944 61.376C212.517 62.7413 211.835 63.9787 210.896 65.088C210.128 65.9413 209.317 66.624 208.464 67.136C207.696 67.5627 206.843 67.9893 205.904 68.416L203.088 69.952ZM205.264 67.008C206.117 66.5813 206.885 66.1973 207.568 65.856C208.336 65.4293 209.061 64.832 209.744 64.064C210.597 63.04 211.237 61.888 211.664 60.608C212.091 59.328 212.389 58.0053 212.56 56.64C212.987 54.1653 213.2 51.6907 213.2 49.216C213.2 46.656 213.328 44.1387 213.584 41.664C213.584 41.4933 213.627 41.152 213.712 40.64C213.797 39.7867 213.84 38.9333 213.84 38.08C213.925 37.2267 213.925 36.3307 213.84 35.392C213.84 34.7947 213.797 34.1973 213.712 33.6C213.627 32.9173 213.371 32.32 212.944 31.808C212.773 31.552 212.603 31.2533 212.432 30.912C212.261 30.5707 212.005 30.3573 211.664 30.272C211.408 30.1867 211.109 30.144 210.768 30.144C210.427 30.144 210.085 30.1867 209.744 30.272C209.232 30.272 208.848 30.272 208.592 30.272C208.336 30.272 207.909 30.272 207.312 30.272C206.459 30.272 205.605 30.3147 204.752 30.4C203.899 30.4 203.045 30.4853 202.192 30.656C201.68 30.7413 200.869 30.9547 199.76 31.296C198.651 31.6373 197.968 32.064 197.712 32.576C197.627 32.7467 197.627 33.216 197.712 33.984C197.797 34.3253 197.84 34.5813 197.84 34.752C197.755 35.8613 197.669 36.9707 197.584 38.08C197.499 39.1893 197.328 40.2987 197.072 41.408C197.072 41.408 197.072 41.4507 197.072 41.536C196.304 44.096 195.536 46.9973 194.768 50.24C194.085 53.3973 193.829 56.3413 194 59.072C194 60.6933 194.299 62.3147 194.896 63.936C195.493 65.472 196.56 66.6667 198.096 67.52C198.779 67.8613 199.461 68.0747 200.144 68.16C200.827 68.2453 201.509 68.3307 202.192 68.416C202.363 68.416 202.533 68.416 202.704 68.416L205.264 67.008Z" fill="currentColor"/>
<path d="M268.541 93.504C268.456 93.504 268.328 93.4613 268.157 93.376C267.901 93.376 267.73 93.3333 267.645 93.248C267.304 92.9067 266.92 92.608 266.493 92.352C266.066 92.096 265.725 91.7547 265.469 91.328C264.53 90.048 264.061 88.6827 264.061 87.232C264.146 85.7813 264.317 84.3307 264.573 82.88C264.658 82.4533 264.701 82.0693 264.701 81.728C264.786 81.3013 264.872 80.9173 264.957 80.576C265.213 78.3573 265.042 76.0533 264.445 73.664C264.189 72.2987 263.805 70.976 263.293 69.696C262.866 68.416 262.354 67.136 261.757 65.856C261.33 64.7467 260.861 63.6373 260.349 62.528C259.922 61.3333 259.624 60.1387 259.453 58.944C259.197 57.8347 259.069 56.7253 259.069 55.616C259.154 54.4213 259.24 53.2693 259.325 52.16C259.325 51.904 259.325 51.648 259.325 51.392C259.325 51.136 259.325 50.88 259.325 50.624C259.41 49.1733 259.453 47.7653 259.453 46.4C259.453 44.9493 259.368 43.4987 259.197 42.048C258.856 39.1467 258.386 36.2453 257.789 33.344C257.277 30.4427 256.936 27.4987 256.765 24.512C256.68 24.256 256.637 23.8293 256.637 23.232C256.637 22.8053 256.637 22.336 256.637 21.824C256.637 21.312 256.552 20.8 256.381 20.288C256.125 19.1787 255.698 18.1547 255.101 17.216C254.589 16.192 254.12 15.168 253.693 14.144C253.437 13.2907 253.224 12.48 253.053 11.712C252.968 10.944 252.84 10.176 252.669 9.408C252.669 9.06667 252.626 8.768 252.541 8.512C252.541 8.17067 252.498 7.82933 252.413 7.488C251.73 7.232 251.56 6.72 251.901 5.952C251.986 5.61067 252.413 5.184 253.181 4.672C253.949 4.07467 254.418 3.648 254.589 3.392C254.589 3.392 254.632 3.34933 254.717 3.264C254.888 3.17867 254.973 3.136 254.973 3.136C255.314 2.96533 255.613 2.92267 255.869 3.008C256.21 3.09334 256.552 3.17867 256.893 3.264C257.32 3.43466 257.618 3.56267 257.789 3.648C258.557 3.73333 259.282 3.81867 259.965 3.904C260.733 3.98933 261.501 3.98933 262.269 3.904C263.037 3.81867 263.762 3.69067 264.445 3.52C265.128 3.34933 265.81 3.22133 266.493 3.136C268.456 2.88 270.418 2.70933 272.381 2.624C274.344 2.53867 276.306 2.368 278.269 2.112C278.525 2.112 278.952 2.06933 279.549 1.984C280.573 1.728 281.597 1.6 282.621 1.6C283.73 1.51467 284.712 1.728 285.565 2.24C287.016 3.09333 287.698 4.288 287.613 5.824C287.613 7.27467 287.485 8.68267 287.229 10.048C287.144 10.56 287.058 10.944 286.973 11.2C286.973 11.3707 286.93 11.712 286.845 12.224C286.76 12.9067 286.632 13.632 286.461 14.4C286.376 15.0827 286.333 15.7653 286.333 16.448C286.418 18.1547 286.717 19.8613 287.229 21.568C287.741 23.2747 288.296 24.896 288.893 26.432C289.234 27.3707 289.576 28.2667 289.917 29.12C290.344 29.9733 290.685 30.8693 290.941 31.808C291.197 32.6613 291.368 33.5573 291.453 34.496C291.538 35.3493 291.624 36.2027 291.709 37.056C291.794 37.6533 291.837 38.2507 291.837 38.848C291.922 39.4453 291.965 40 291.965 40.512C292.05 40.256 292.136 39.9573 292.221 39.616C292.648 37.824 293.032 36.0747 293.373 34.368C293.714 32.576 293.928 30.784 294.013 28.992C294.013 28.736 294.013 28.3093 294.013 27.712C294.013 26.944 294.056 26.1333 294.141 25.28C294.226 24.4267 294.568 23.7013 295.165 23.104C295.592 22.6773 296.061 22.4213 296.573 22.336C297.17 22.2507 297.725 22.208 298.237 22.208C299.261 22.0373 299.901 21.9947 300.157 22.08C300.498 22.1653 300.712 22.2933 300.797 22.464C300.968 22.6347 301.138 22.7627 301.309 22.848C301.48 22.848 301.864 22.7627 302.461 22.592C302.461 22.592 302.504 22.592 302.589 22.592C302.674 22.592 302.717 22.592 302.717 22.592C303.058 22.5067 303.4 22.464 303.741 22.464C304.082 22.3787 304.466 22.336 304.893 22.336C305.917 22.1653 306.941 22.0373 307.965 21.952C308.989 21.8667 310.056 21.9947 311.165 22.336C311.677 22.5067 312.189 22.6773 312.701 22.848C313.298 23.0187 313.853 23.3173 314.365 23.744C315.048 24.3413 315.517 25.152 315.773 26.176C316.114 27.1147 316.413 28.0107 316.669 28.864C317.522 31.8507 318.674 34.7093 320.125 37.44C320.381 37.8667 320.637 38.336 320.893 38.848C321.149 39.36 321.405 39.8293 321.661 40.256C321.746 39.8293 321.832 39.232 321.917 38.464C321.917 37.8667 321.917 37.2693 321.917 36.672C321.917 36.0747 321.917 35.4773 321.917 34.88C321.917 34.1973 321.917 33.5147 321.917 32.832C321.917 32.1493 321.96 31.4667 322.045 30.784C322.13 29.504 322.301 28.2667 322.557 27.072C322.813 25.8773 323.026 24.64 323.197 23.36C323.453 22.08 323.752 20.8 324.093 19.52C324.434 18.1547 324.648 16.7893 324.733 15.424C324.818 14.7413 324.861 14.0587 324.861 13.376C324.861 12.6933 324.861 12.0107 324.861 11.328C324.776 10.816 324.733 10.304 324.733 9.792C324.733 9.19467 324.733 8.64 324.733 8.128C324.818 7.01866 324.989 5.952 325.245 4.928C325.586 3.81867 326.269 2.92267 327.293 2.24C327.72 1.984 328.189 1.856 328.701 1.856C329.213 1.77067 329.725 1.728 330.237 1.728C330.578 1.728 330.834 1.728 331.005 1.728C331.432 1.728 331.858 1.77067 332.285 1.856C332.712 1.856 333.138 1.89867 333.565 1.984C333.906 1.984 334.205 2.02667 334.461 2.112C334.802 2.112 335.101 2.112 335.357 2.112C336.296 2.19733 337.192 2.24 338.045 2.24C338.984 2.15467 339.88 2.06933 340.733 1.984C341.501 1.89867 342.269 1.856 343.037 1.856C343.805 1.77067 344.573 1.728 345.341 1.728C346.194 1.728 347.048 1.81333 347.901 1.984C348.84 2.06933 349.736 2.19733 350.589 2.368C350.93 2.45334 351.314 2.53867 351.741 2.624C352.168 2.70933 352.552 2.752 352.893 2.752C353.149 2.83733 353.49 2.88 353.917 2.88C354.173 2.79467 354.429 2.79467 354.685 2.88C355.026 2.88 355.325 2.96533 355.581 3.136C357.288 4.16 358.226 5.09867 358.397 5.952C358.653 6.80534 358.738 8.04267 358.653 9.664C358.653 9.74933 358.653 9.792 358.653 9.792C358.653 9.792 358.653 9.83467 358.653 9.92C358.568 10.8587 358.482 11.7973 358.397 12.736C358.312 13.5893 358.141 14.4853 357.885 15.424C357.629 16.6187 357.288 17.8133 356.861 19.008C356.434 20.1173 356.136 21.312 355.965 22.592C355.965 23.0187 355.965 23.488 355.965 24C355.965 24.4267 355.965 24.896 355.965 25.408C355.965 25.664 355.965 25.92 355.965 26.176C356.05 26.432 356.093 26.688 356.093 26.944C356.093 28.1387 356.008 29.3333 355.837 30.528C355.752 31.7227 355.581 32.9173 355.325 34.112C355.069 35.8187 354.685 37.4827 354.173 39.104C353.746 40.64 353.362 42.2613 353.021 43.968C352.936 44.736 352.85 45.504 352.765 46.272C352.68 47.04 352.594 47.808 352.509 48.576C352.338 49.7707 352.125 50.9227 351.869 52.032C351.613 53.1413 351.442 54.2507 351.357 55.36C351.272 56.0427 351.229 56.768 351.229 57.536C351.229 58.2187 351.229 58.9013 351.229 59.584C351.314 60.096 351.357 60.608 351.357 61.12C351.357 61.632 351.357 62.1013 351.357 62.528C351.272 64.6613 351.016 66.752 350.589 68.8C350.248 70.848 349.906 72.896 349.565 74.944C349.224 76.736 348.882 78.528 348.541 80.32C348.2 82.0267 347.816 83.7333 347.389 85.44C347.048 86.976 346.621 88.4693 346.109 89.92C345.682 91.2853 344.658 92.3947 343.037 93.248C342.013 93.76 340.904 94.016 339.709 94.016C338.6 94.1013 337.49 94.1013 336.381 94.016C336.125 94.016 335.826 94.016 335.485 94.016C335.229 94.016 334.973 94.016 334.717 94.016C333.778 93.9307 332.84 93.9307 331.901 94.016C330.962 94.1013 330.024 94.1867 329.085 94.272C328.061 94.4427 327.037 94.5707 326.013 94.656C324.989 94.7413 324.008 94.7413 323.069 94.656C322.045 94.656 320.978 94.5707 319.869 94.4C318.76 94.3147 317.736 94.016 316.797 93.504C315.176 92.48 314.152 91.0293 313.725 89.152C313.298 87.2747 312.829 85.4827 312.317 83.776C311.89 82.1547 311.378 80.6187 310.781 79.168C310.269 77.632 309.757 76.096 309.245 74.56C308.818 73.4507 308.434 72.3413 308.093 71.232C307.752 70.1227 307.368 69.056 306.941 68.032C306.941 67.8613 306.898 67.6907 306.813 67.52C306.728 67.3493 306.685 67.2213 306.685 67.136C306.258 68.416 305.874 69.5253 305.533 70.464C305.021 71.9147 304.466 73.3227 303.869 74.688C303.272 76.0533 302.802 77.4613 302.461 78.912C301.949 80.5333 301.48 82.1973 301.053 83.904C300.626 85.5253 300.072 87.104 299.389 88.64C299.218 89.0667 299.048 89.4507 298.877 89.792C298.792 90.1333 298.621 90.4747 298.365 90.816C298.024 91.4133 297.682 91.968 297.341 92.48C297 92.992 296.53 93.4187 295.933 93.76C294.738 94.528 293.458 94.8693 292.093 94.784C290.813 94.784 289.49 94.656 288.125 94.4C287.698 94.3147 287.272 94.2293 286.845 94.144C286.418 94.0587 285.992 94.016 285.565 94.016C284.541 93.9307 283.517 93.888 282.493 93.888C281.554 93.888 280.616 93.9307 279.677 94.016C279.421 94.016 279.08 94.0587 278.653 94.144C278.056 94.144 277.416 94.144 276.733 94.144C276.136 94.2293 275.538 94.2293 274.941 94.144C274.173 94.0587 273.405 93.9307 272.637 93.76C271.869 93.5893 271.101 93.376 270.333 93.12L268.541 93.504ZM268.541 91.968L270.205 91.584C270.29 91.584 270.333 91.584 270.333 91.584C270.418 91.584 270.461 91.584 270.461 91.584C271.229 91.7547 271.997 91.968 272.765 92.224C273.533 92.3947 274.301 92.5227 275.069 92.608C275.666 92.6933 276.221 92.736 276.733 92.736C277.33 92.6507 277.928 92.608 278.525 92.608C278.952 92.5227 279.293 92.48 279.549 92.48C280.573 92.3947 281.554 92.352 282.493 92.352C283.517 92.352 284.584 92.3947 285.693 92.48C286.034 92.48 286.418 92.5227 286.845 92.608C287.272 92.6933 287.698 92.7787 288.125 92.864C289.32 93.12 290.514 93.2907 291.709 93.376C292.989 93.4613 294.141 93.1627 295.165 92.48C295.592 92.224 295.933 91.8827 296.189 91.456C296.53 90.944 296.829 90.4747 297.085 90.048C297.256 89.7067 297.384 89.3653 297.469 89.024C297.64 88.6827 297.81 88.384 297.981 88.128C298.664 86.592 299.218 85.0133 299.645 83.392C300.072 81.6853 300.498 80.064 300.925 78.528C301.352 77.0773 301.864 75.6693 302.461 74.304C303.058 72.8533 303.613 71.4027 304.125 69.952C304.381 69.2693 304.594 68.5867 304.765 67.904C305.021 67.2213 305.234 66.496 305.405 65.728C305.49 65.5573 305.533 65.2587 305.533 64.832C305.533 64.4907 305.576 64.1493 305.661 63.808C305.746 63.3813 306.002 63.1253 306.429 63.04C306.941 62.9547 307.24 63.1253 307.325 63.552C307.496 63.8933 307.581 64.2773 307.581 64.704C307.581 65.0453 307.624 65.3013 307.709 65.472C307.794 65.8133 307.88 66.1547 307.965 66.496C308.136 66.8373 308.306 67.1787 308.477 67.52C308.818 68.544 309.16 69.6107 309.501 70.72C309.842 71.8293 310.226 72.9387 310.653 74.048C311.165 75.584 311.72 77.12 312.317 78.656C312.914 80.192 313.426 81.7707 313.853 83.392C314.194 84.8427 314.536 86.464 314.877 88.256C315.304 90.048 316.2 91.3707 317.565 92.224C318.333 92.6507 319.229 92.9067 320.253 92.992C321.277 93.0773 322.216 93.12 323.069 93.12C324.093 93.2053 325.074 93.2053 326.013 93.12C327.037 93.0347 328.061 92.9067 329.085 92.736C330.024 92.6507 330.962 92.5653 331.901 92.48C332.84 92.3947 333.778 92.3947 334.717 92.48C335.058 92.48 335.357 92.48 335.613 92.48C335.869 92.48 336.125 92.48 336.381 92.48C337.405 92.5653 338.429 92.608 339.453 92.608C340.477 92.5227 341.458 92.2667 342.397 91.84C343.677 91.1573 344.488 90.2187 344.829 89.024C345.256 87.744 345.64 86.464 345.981 85.184C346.322 83.392 346.664 81.6427 347.005 79.936C347.346 78.144 347.688 76.3947 348.029 74.688C348.37 72.64 348.712 70.6347 349.053 68.672C349.48 66.624 349.736 64.576 349.821 62.528C349.821 62.016 349.821 61.5467 349.821 61.12C349.821 60.608 349.778 60.096 349.693 59.584C349.693 58.816 349.693 58.0907 349.693 57.408C349.693 56.64 349.736 55.9147 349.821 55.232C349.906 54.0373 350.077 52.8853 350.333 51.776C350.589 50.6667 350.802 49.5573 350.973 48.448C351.058 47.5947 351.144 46.784 351.229 46.016C351.314 45.248 351.4 44.4373 351.485 43.584C351.826 41.9627 352.253 40.384 352.765 38.848C353.277 37.2267 353.661 35.5627 353.917 33.856C354.088 32.7467 354.216 31.6373 354.301 30.528C354.472 29.3333 354.557 28.1387 354.557 26.944C354.557 26.688 354.514 26.432 354.429 26.176C354.429 25.92 354.429 25.664 354.429 25.408C354.429 24.896 354.429 24.384 354.429 23.872C354.429 23.36 354.429 22.848 354.429 22.336C354.6 21.1413 354.898 19.9467 355.325 18.752C355.752 17.5573 356.136 16.3627 356.477 15.168C356.648 14.2293 356.776 13.3333 356.861 12.48C356.946 11.6267 357.032 10.7307 357.117 9.792C357.117 9.62134 357.117 9.32267 357.117 8.896C357.202 7.872 357.16 7.06133 356.989 6.464C356.818 5.86667 356.093 5.184 354.813 4.416C354.642 4.33067 354.216 4.288 353.533 4.288C353.192 4.37333 352.936 4.37333 352.765 4.288C352.338 4.288 351.912 4.24534 351.485 4.16C351.144 4.07467 350.76 3.98933 350.333 3.904C349.48 3.73333 348.626 3.60533 347.773 3.52C346.92 3.34933 346.109 3.264 345.341 3.264C344.573 3.264 343.805 3.30667 343.037 3.392C342.269 3.392 341.501 3.43466 340.733 3.52C339.794 3.60533 338.856 3.69067 337.917 3.776C337.064 3.776 336.21 3.73333 335.357 3.648C335.016 3.648 334.674 3.648 334.333 3.648C334.077 3.56267 333.821 3.52 333.565 3.52C333.138 3.43466 332.712 3.392 332.285 3.392C331.858 3.30667 331.432 3.264 331.005 3.264C330.92 3.264 330.706 3.264 330.365 3.264C329.938 3.264 329.512 3.264 329.085 3.264C328.744 3.264 328.402 3.392 328.061 3.648C327.293 4.07467 326.824 4.75733 326.653 5.696C326.482 6.54933 326.354 7.36 326.269 8.128C326.269 8.72533 326.269 9.32267 326.269 9.92C326.269 10.432 326.312 10.944 326.397 11.456C326.397 12.1387 326.397 12.8213 326.397 13.504C326.397 14.1867 326.354 14.8693 326.269 15.552C326.184 16.9173 325.97 18.2827 325.629 19.648C325.288 21.0133 324.989 22.336 324.733 23.616C324.562 24.896 324.349 26.1333 324.093 27.328C323.837 28.4373 323.624 29.632 323.453 30.912C323.453 31.5947 323.453 32.2773 323.453 32.96C323.453 33.6427 323.453 34.3253 323.453 35.008C323.453 35.6053 323.453 36.2027 323.453 36.8C323.453 37.3973 323.453 37.952 323.453 38.464C323.368 39.488 323.24 40.2987 323.069 40.896C323.069 40.9813 323.069 41.1947 323.069 41.536C322.984 41.9627 322.856 42.3893 322.685 42.816C322.6 43.2427 322.301 43.4133 321.789 43.328C321.789 43.328 321.746 43.2853 321.661 43.2C321.576 43.1147 321.49 43.072 321.405 43.072C320.978 42.2187 320.509 41.408 319.997 40.64C319.57 39.7867 319.144 38.9333 318.717 38.08C317.266 35.3493 316.072 32.448 315.133 29.376C314.962 28.6933 314.749 27.9253 314.493 27.072C314.237 26.1333 313.853 25.408 313.341 24.896C312.914 24.5547 312.445 24.3413 311.933 24.256C311.506 24.0853 311.08 23.9147 310.653 23.744C309.714 23.488 308.776 23.4027 307.837 23.488C306.898 23.5733 305.917 23.6587 304.893 23.744C304.552 23.8293 304.21 23.9147 303.869 24C303.613 24 303.314 24 302.973 24C302.205 24.256 301.65 24.384 301.309 24.384C301.053 24.2987 300.797 24.1707 300.541 24C300.285 23.8293 299.986 23.744 299.645 23.744C299.389 23.6587 299.005 23.6587 298.493 23.744C298.493 23.744 298.45 23.744 298.365 23.744C298.365 23.744 298.28 23.744 298.109 23.744C297.768 23.744 297.426 23.7867 297.085 23.872C296.744 23.872 296.445 24 296.189 24.256C295.848 24.5973 295.634 25.152 295.549 25.92C295.549 26.6027 295.549 27.2853 295.549 27.968C295.549 28.48 295.549 28.8213 295.549 28.992C295.464 30.8693 295.25 32.7467 294.909 34.624C294.568 36.416 294.184 38.208 293.757 40C293.501 40.768 293.245 41.5787 292.989 42.432C292.733 43.2 292.434 43.968 292.093 44.736C292.093 44.8213 292.05 44.9067 291.965 44.992C291.794 44.992 291.666 44.992 291.581 44.992C291.069 44.992 290.77 44.7787 290.685 44.352C290.685 43.9253 290.685 43.4987 290.685 43.072C290.685 42.6453 290.685 42.3467 290.685 42.176C290.514 41.3227 290.386 40.512 290.301 39.744C290.301 38.8907 290.258 38.0373 290.173 37.184C290.088 36.3307 290.002 35.52 289.917 34.752C289.832 33.8987 289.704 33.0453 289.533 32.192C289.277 31.3387 288.936 30.4853 288.509 29.632C288.168 28.7787 287.826 27.9253 287.485 27.072C286.802 25.3653 286.205 23.616 285.693 21.824C285.181 20.032 284.882 18.24 284.797 16.448C284.797 15.68 284.84 14.912 284.925 14.144C285.096 13.376 285.224 12.6507 285.309 11.968C285.394 11.456 285.48 11.1147 285.565 10.944C285.565 10.688 285.608 10.304 285.693 9.792C285.949 8.68267 286.12 7.53067 286.205 6.336C286.29 5.056 285.821 4.11733 284.797 3.52C284.114 3.09333 283.304 2.92267 282.365 3.008C281.426 3.09334 280.53 3.22133 279.677 3.392C279.165 3.56267 278.781 3.648 278.525 3.648C276.562 3.904 274.6 4.07467 272.637 4.16C270.674 4.16 268.712 4.288 266.749 4.544C265.981 4.71467 265.256 4.88534 264.573 5.056C263.89 5.22666 263.165 5.35467 262.397 5.44C261.629 5.52533 260.818 5.52533 259.965 5.44C259.197 5.35467 258.386 5.22666 257.533 5.056C257.448 5.056 257.192 4.97067 256.765 4.8C256.168 4.62933 255.784 4.544 255.613 4.544C255.272 4.88533 254.93 5.22667 254.589 5.568C254.333 5.824 254.034 6.08 253.693 6.336C253.693 6.42133 253.736 6.50667 253.821 6.592C253.906 7.01867 253.949 7.44534 253.949 7.872C254.034 8.29867 254.12 8.72533 254.205 9.152C254.29 9.92 254.376 10.688 254.461 11.456C254.632 12.1387 254.845 12.8213 255.101 13.504C255.528 14.6133 256.04 15.68 256.637 16.704C257.234 17.728 257.661 18.7947 257.917 19.904C258.088 20.416 258.173 20.9707 258.173 21.568C258.173 22.08 258.173 22.6347 258.173 23.232C258.173 23.744 258.216 24.1707 258.301 24.512C258.472 27.4133 258.813 30.3147 259.325 33.216C259.922 36.1173 260.392 39.0187 260.733 41.92C260.904 43.3707 260.989 44.8213 260.989 46.272C260.989 47.7227 260.946 49.1733 260.861 50.624C260.861 50.88 260.861 51.1787 260.861 51.52C260.861 51.776 260.861 52.032 260.861 52.288C260.776 53.312 260.69 54.3787 260.605 55.488C260.605 56.5973 260.69 57.664 260.861 58.688C261.117 59.8827 261.458 61.0347 261.885 62.144C262.397 63.168 262.866 64.192 263.293 65.216C263.805 66.5813 264.274 67.9467 264.701 69.312C265.213 70.592 265.64 71.9147 265.981 73.28C266.578 75.84 266.749 78.3147 266.493 80.704C266.408 81.1307 266.322 81.5147 266.237 81.856C266.237 82.1973 266.194 82.5387 266.109 82.88C265.853 84.2453 265.682 85.568 265.597 86.848C265.512 88.128 265.853 89.3227 266.621 90.432C266.877 90.7733 267.176 91.072 267.517 91.328C267.858 91.4987 268.2 91.712 268.541 91.968Z" fill="currentColor"/>
<path fill-rule="evenodd" clip-rule="evenodd" d="M200.912 93.12L204.368 93.888C206.587 93.888 208.805 93.76 211.024 93.504C213.243 93.248 215.461 92.9493 217.68 92.608L221.776 92.096C223.141 91.9253 224.421 91.584 225.616 91.072C226.811 90.56 227.92 89.92 228.944 89.152C230.053 88.384 231.12 87.6587 232.144 86.976C232.912 86.464 233.68 85.9947 234.448 85.568C235.216 85.056 235.899 84.5013 236.496 83.904C237.52 82.88 238.416 81.8133 239.184 80.704C240.037 79.5093 240.805 78.3147 241.488 77.12C242 76.352 242.469 75.584 242.896 74.816C243.408 74.048 243.835 73.2373 244.176 72.384C244.859 70.9333 245.371 69.44 245.712 67.904C246.053 66.368 246.309 64.832 246.48 63.296C246.651 62.016 246.693 60.736 246.608 59.456C246.523 58.0907 246.395 56.7253 246.224 55.36C246.224 54.592 246.181 53.8667 246.096 53.184C246.011 52.416 245.968 51.648 245.968 50.88V48.96C245.968 48.2773 246.011 47.6373 246.096 47.04V45.632C246.181 44.1813 246.224 42.7307 246.224 41.28C246.224 39.744 246.267 38.2507 246.352 36.8C246.352 36.4587 246.395 35.9467 246.48 35.264C246.565 34.3253 246.608 33.3867 246.608 32.448C246.608 31.5093 246.523 30.5707 246.352 29.632C246.096 28.4373 245.669 27.328 245.072 26.304C244.475 25.28 243.835 24.256 243.152 23.232L241.104 19.648C240.421 18.4533 239.653 17.2587 238.8 16.064C238.117 15.2107 237.349 14.4 236.496 13.632L233.936 11.328L232.144 9.536C231.547 8.93867 230.907 8.384 230.224 7.872C229.115 7.01867 227.92 6.42134 226.64 6.08C225.36 5.73867 224.037 5.44 222.672 5.184L219.856 4.672C218.917 4.50133 217.936 4.33067 216.912 4.16H216.784C216.187 3.81867 215.675 3.69067 215.248 3.776C214.907 3.776 214.523 3.81867 214.096 3.904C213.755 3.98933 213.371 4.032 212.944 4.032C212.517 4.032 211.963 3.904 211.28 3.648L207.184 2.88C205.904 2.624 204.581 2.45334 203.216 2.368C201.595 2.28267 200.016 2.45333 198.48 2.88C197.029 3.30666 195.536 3.81866 194 4.416L192.72 4.928C192.293 5.01333 191.867 5.14133 191.44 5.312C189.563 5.90933 187.685 6.464 185.808 6.976C184.016 7.488 182.267 8.21334 180.56 9.152C179.536 9.664 178.555 10.2613 177.616 10.944L174.8 12.992L172.752 14.528C172.155 15.04 171.6 15.6373 171.088 16.32C170.235 17.2587 169.552 18.2827 169.04 19.392C168.528 20.5013 167.973 21.6107 167.376 22.72C166.864 23.6587 166.309 24.5547 165.712 25.408C165.115 26.2613 164.603 27.2 164.176 28.224C163.835 28.9067 163.536 29.6747 163.28 30.528L162.768 32.832L162.256 35.648C162.085 36.5867 161.957 37.5253 161.872 38.464V40.768C161.957 41.536 162 42.304 162 43.072C162.085 43.7547 162.128 44.48 162.128 45.248V47.296C162.128 47.8933 162.085 48.4907 162 49.088C162 49.6 161.957 50.1547 161.872 50.752C161.787 51.52 161.701 52.3307 161.616 53.184C161.531 53.952 161.531 54.72 161.616 55.488C161.701 57.1947 161.872 58.9013 162.128 60.608C162.469 62.2293 162.768 63.8933 163.024 65.6C163.28 67.2213 163.451 68.928 163.536 70.72C163.707 72.512 164.304 74.1333 165.328 75.584C165.925 76.5227 166.651 77.3333 167.504 78.016C168.357 78.6987 169.168 79.3813 169.936 80.064C170.619 80.7467 171.259 81.4293 171.856 82.112C172.539 82.7947 173.221 83.4347 173.904 84.032C174.672 84.7147 175.44 85.3547 176.208 85.952L178.512 87.744C179.28 88.256 180.048 88.8107 180.816 89.408C181.584 89.92 182.395 90.3893 183.248 90.816C184.357 91.2427 185.467 91.5413 186.576 91.712L190.16 91.968C191.44 92.1387 192.763 92.3947 194.128 92.736C195.493 92.992 196.816 93.12 198.096 93.12C198.437 93.2053 198.736 93.248 198.992 93.248C199.333 93.248 199.632 93.2053 199.888 93.12H200.912ZM202.96 69.952H203.088L205.904 68.416C206.843 67.9893 207.696 67.5627 208.464 67.136C209.317 66.624 210.128 65.9413 210.896 65.088C211.835 63.9787 212.517 62.7413 212.944 61.376C213.456 59.9253 213.84 58.432 214.096 56.896C214.523 54.4213 214.736 51.9467 214.736 49.472C214.736 46.912 214.864 44.3947 215.12 41.92C215.12 41.664 215.163 41.28 215.248 40.768C215.333 39.8293 215.376 38.9333 215.376 38.08C215.461 37.1413 215.461 36.2453 215.376 35.392C215.376 34.624 215.291 33.856 215.12 33.088C215.035 32.32 214.736 31.5947 214.224 30.912C213.968 30.4853 213.669 30.1013 213.328 29.76C213.072 29.3333 212.688 29.0347 212.176 28.864C211.835 28.6933 211.451 28.608 211.024 28.608C210.597 28.608 210.171 28.6507 209.744 28.736H208.592H207.312C206.459 28.736 205.563 28.7787 204.624 28.864C203.685 28.864 202.789 28.9493 201.936 29.12C201.083 29.2907 200.059 29.5893 198.864 30.016C197.669 30.4427 196.816 31.04 196.304 31.808C196.133 32.1493 196.048 32.4907 196.048 32.832C196.048 33.088 196.091 33.3867 196.176 33.728C196.261 34.1547 196.304 34.4533 196.304 34.624L196.048 37.952C195.963 38.976 195.792 40.0427 195.536 41.152C194.768 43.7973 194 46.784 193.232 50.112C192.549 53.3547 192.293 56.3413 192.464 59.072C192.464 60.9493 192.848 62.784 193.616 64.576C194.384 66.368 195.621 67.776 197.328 68.8C198.267 69.312 199.163 69.6107 200.016 69.696C200.869 69.7813 201.808 69.8667 202.832 69.952H202.96Z" fill="currentColor"/>
<path d="M268.541 91.968L270.205 91.584H270.333H270.461C271.229 91.7547 271.997 91.968 272.765 92.224C273.533 92.3947 274.301 92.5227 275.069 92.608C275.666 92.6933 276.221 92.736 276.733 92.736C277.33 92.6507 277.928 92.608 278.525 92.608C278.952 92.5227 279.293 92.48 279.549 92.48C280.573 92.3947 281.554 92.352 282.493 92.352C283.517 92.352 284.584 92.3947 285.693 92.48C286.034 92.48 286.418 92.5227 286.845 92.608L288.125 92.864C289.32 93.12 290.514 93.2907 291.709 93.376C292.989 93.4613 294.141 93.1627 295.165 92.48C295.592 92.224 295.933 91.8827 296.189 91.456C296.53 90.944 296.829 90.4747 297.085 90.048C297.256 89.7067 297.384 89.3653 297.469 89.024C297.64 88.6827 297.81 88.384 297.981 88.128C298.664 86.592 299.218 85.0133 299.645 83.392C300.072 81.6853 300.498 80.064 300.925 78.528C301.352 77.0773 301.864 75.6693 302.461 74.304C303.058 72.8533 303.613 71.4027 304.125 69.952C304.381 69.2693 304.594 68.5867 304.765 67.904C305.021 67.2213 305.234 66.496 305.405 65.728C305.49 65.5573 305.533 65.2587 305.533 64.832C305.533 64.4907 305.576 64.1493 305.661 63.808C305.746 63.3813 306.002 63.1253 306.429 63.04C306.941 62.9547 307.24 63.1253 307.325 63.552C307.496 63.8933 307.581 64.2773 307.581 64.704C307.581 65.0453 307.624 65.3013 307.709 65.472L307.965 66.496L308.477 67.52C308.818 68.544 309.16 69.6107 309.501 70.72C309.842 71.8293 310.226 72.9387 310.653 74.048C311.165 75.584 311.72 77.12 312.317 78.656C312.914 80.192 313.426 81.7707 313.853 83.392C314.194 84.8427 314.536 86.464 314.877 88.256C315.304 90.048 316.2 91.3707 317.565 92.224C318.333 92.6507 319.229 92.9067 320.253 92.992C321.277 93.0773 322.216 93.12 323.069 93.12C324.093 93.2053 325.074 93.2053 326.013 93.12C327.037 93.0347 328.061 92.9067 329.085 92.736L331.901 92.48C332.84 92.3947 333.778 92.3947 334.717 92.48H335.613H336.381C337.405 92.5653 338.429 92.608 339.453 92.608C340.477 92.5227 341.458 92.2667 342.397 91.84C343.677 91.1573 344.488 90.2187 344.829 89.024C345.256 87.744 345.64 86.464 345.981 85.184C346.322 83.392 346.664 81.6427 347.005 79.936C347.346 78.144 347.688 76.3947 348.029 74.688C348.37 72.64 348.712 70.6347 349.053 68.672C349.48 66.624 349.736 64.576 349.821 62.528V61.12C349.821 60.608 349.778 60.096 349.693 59.584V57.408C349.693 56.64 349.736 55.9147 349.821 55.232C349.906 54.0373 350.077 52.8853 350.333 51.776C350.589 50.6667 350.802 49.5573 350.973 48.448C351.058 47.5947 351.144 46.784 351.229 46.016C351.314 45.248 351.4 44.4373 351.485 43.584C351.826 41.9627 352.253 40.384 352.765 38.848C353.277 37.2267 353.661 35.5627 353.917 33.856C354.088 32.7467 354.216 31.6373 354.301 30.528C354.472 29.3333 354.557 28.1387 354.557 26.944C354.557 26.688 354.514 26.432 354.429 26.176V25.408V23.872V22.336C354.6 21.1413 354.898 19.9467 355.325 18.752C355.752 17.5573 356.136 16.3627 356.477 15.168C356.648 14.2293 356.776 13.3333 356.861 12.48C356.946 11.6267 357.032 10.7307 357.117 9.792V8.896C357.202 7.872 357.16 7.06133 356.989 6.464C356.818 5.86667 356.093 5.184 354.813 4.416C354.642 4.33067 354.216 4.288 353.533 4.288C353.192 4.37333 352.936 4.37333 352.765 4.288C352.338 4.288 351.912 4.24534 351.485 4.16C351.144 4.07467 350.76 3.98933 350.333 3.904C349.48 3.73333 348.626 3.60533 347.773 3.52C346.92 3.34933 346.109 3.264 345.341 3.264C344.573 3.264 343.805 3.30667 343.037 3.392C342.269 3.392 341.501 3.43466 340.733 3.52L337.917 3.776C337.064 3.776 336.21 3.73333 335.357 3.648H334.333C334.077 3.56267 333.821 3.52 333.565 3.52C333.138 3.43466 332.712 3.392 332.285 3.392C331.858 3.30667 331.432 3.264 331.005 3.264H330.365H329.085C328.744 3.264 328.402 3.392 328.061 3.648C327.293 4.07467 326.824 4.75733 326.653 5.696C326.482 6.54933 326.354 7.36 326.269 8.128V9.92C326.269 10.432 326.312 10.944 326.397 11.456V13.504C326.397 14.1867 326.354 14.8693 326.269 15.552C326.184 16.9173 325.97 18.2827 325.629 19.648C325.288 21.0133 324.989 22.336 324.733 23.616C324.562 24.896 324.349 26.1333 324.093 27.328C323.837 28.4373 323.624 29.632 323.453 30.912V32.96V35.008V36.8V38.464C323.368 39.488 323.24 40.2987 323.069 40.896V41.536C322.984 41.9627 322.856 42.3893 322.685 42.816C322.6 43.2427 322.301 43.4133 321.789 43.328L321.661 43.2C321.576 43.1147 321.49 43.072 321.405 43.072C320.978 42.2187 320.509 41.408 319.997 40.64L318.717 38.08C317.266 35.3493 316.072 32.448 315.133 29.376C314.962 28.6933 314.749 27.9253 314.493 27.072C314.237 26.1333 313.853 25.408 313.341 24.896C312.914 24.5547 312.445 24.3413 311.933 24.256L310.653 23.744C309.714 23.488 308.776 23.4027 307.837 23.488C306.898 23.5733 305.917 23.6587 304.893 23.744L303.869 24H302.973C302.205 24.256 301.65 24.384 301.309 24.384C301.053 24.2987 300.797 24.1707 300.541 24C300.285 23.8293 299.986 23.744 299.645 23.744C299.389 23.6587 299.005 23.6587 298.493 23.744H298.365H298.109C297.768 23.744 297.426 23.7867 297.085 23.872C296.744 23.872 296.445 24 296.189 24.256C295.848 24.5973 295.634 25.152 295.549 25.92V27.968V28.992C295.464 30.8693 295.25 32.7467 294.909 34.624C294.568 36.416 294.184 38.208 293.757 40C293.501 40.768 293.245 41.5787 292.989 42.432C292.733 43.2 292.434 43.968 292.093 44.736C292.093 44.8213 292.05 44.9067 291.965 44.992H291.581C291.069 44.992 290.77 44.7787 290.685 44.352V43.072V42.176C290.514 41.3227 290.386 40.512 290.301 39.744C290.301 38.8907 290.258 38.0373 290.173 37.184C290.088 36.3307 290.002 35.52 289.917 34.752C289.832 33.8987 289.704 33.0453 289.533 32.192C289.277 31.3387 288.936 30.4853 288.509 29.632L287.485 27.072C286.802 25.3653 286.205 23.616 285.693 21.824C285.181 20.032 284.882 18.24 284.797 16.448C284.797 15.68 284.84 14.912 284.925 14.144C285.096 13.376 285.224 12.6507 285.309 11.968C285.394 11.456 285.48 11.1147 285.565 10.944C285.565 10.688 285.608 10.304 285.693 9.792C285.949 8.68267 286.12 7.53067 286.205 6.336C286.29 5.056 285.821 4.11733 284.797 3.52C284.114 3.09333 283.304 2.92267 282.365 3.008C281.426 3.09334 280.53 3.22133 279.677 3.392C279.165 3.56267 278.781 3.648 278.525 3.648C276.562 3.904 274.6 4.07467 272.637 4.16C270.674 4.16 268.712 4.288 266.749 4.544C265.981 4.71467 265.256 4.88534 264.573 5.056C263.89 5.22666 263.165 5.35467 262.397 5.44C261.629 5.52533 260.818 5.52533 259.965 5.44C259.197 5.35467 258.386 5.22666 257.533 5.056C257.448 5.056 257.192 4.97067 256.765 4.8C256.168 4.62933 255.784 4.544 255.613 4.544L254.589 5.568C254.333 5.824 254.034 6.08 253.693 6.336C253.693 6.42133 253.736 6.50667 253.821 6.592C253.906 7.01867 253.949 7.44534 253.949 7.872L254.205 9.152L254.461 11.456C254.632 12.1387 254.845 12.8213 255.101 13.504C255.528 14.6133 256.04 15.68 256.637 16.704C257.234 17.728 257.661 18.7947 257.917 19.904C258.088 20.416 258.173 20.9707 258.173 21.568V23.232C258.173 23.744 258.216 24.1707 258.301 24.512C258.472 27.4133 258.813 30.3147 259.325 33.216C259.922 36.1173 260.392 39.0187 260.733 41.92C260.904 43.3707 260.989 44.8213 260.989 46.272C260.989 47.7227 260.946 49.1733 260.861 50.624V51.52V52.288C260.776 53.312 260.69 54.3787 260.605 55.488C260.605 56.5973 260.69 57.664 260.861 58.688C261.117 59.8827 261.458 61.0347 261.885 62.144C262.397 63.168 262.866 64.192 263.293 65.216C263.805 66.5813 264.274 67.9467 264.701 69.312C265.213 70.592 265.64 71.9147 265.981 73.28C266.578 75.84 266.749 78.3147 266.493 80.704C266.408 81.1307 266.322 81.5147 266.237 81.856C266.237 82.1973 266.194 82.5387 266.109 82.88C265.853 84.2453 265.682 85.568 265.597 86.848C265.512 88.128 265.853 89.3227 266.621 90.432C266.877 90.7733 267.176 91.072 267.517 91.328C267.858 91.4987 268.2 91.712 268.541 91.968Z" fill="currentColor"/>
<path d="M86.078 91.328L88.51 92.352C88.766 92.352 89.2353 92.3093 89.918 92.224C92.734 91.968 95.678 91.7973 98.75 91.712C101.907 91.6267 104.809 91.8827 107.454 92.48C109.502 92.736 111.678 93.1627 113.982 93.76C114.75 93.9307 115.475 94.1013 116.158 94.272C116.926 94.4427 117.651 94.5707 118.334 94.656C119.443 94.656 120.51 94.5707 121.534 94.4C122.558 94.2293 123.582 94.016 124.606 93.76C125.033 93.6747 125.502 93.5893 126.014 93.504L127.55 93.248C128.318 93.0773 129.086 92.992 129.854 92.992C130.622 92.992 131.347 92.9493 132.03 92.864C134.334 92.5227 136.595 92.1387 138.814 91.712C141.033 91.2853 143.209 90.816 145.342 90.304C146.195 90.1333 147.006 90.048 147.774 90.048C148.627 89.9627 149.481 89.8347 150.334 89.664L151.614 89.408C152.041 89.3227 152.425 89.152 152.766 88.896C153.022 88.64 153.235 88.3413 153.406 88C153.577 87.5733 153.705 87.1893 153.79 86.848C153.961 86.5067 154.046 86.0373 154.046 85.44V84.8V84.672L154.43 83.52V83.392H154.302C154.131 83.136 154.046 82.7947 154.046 82.368C154.131 81.9413 154.217 81.5573 154.302 81.216V81.088C154.387 80.064 154.558 79.04 154.814 78.016C155.155 76.992 155.454 75.968 155.71 74.944C155.795 74.7733 155.881 74.4747 155.966 74.048C156.222 73.1093 156.435 72.128 156.606 71.104C156.777 70.08 156.478 69.184 155.71 68.416C155.454 68.16 155.113 67.9893 154.686 67.904C154.259 67.8187 153.875 67.7333 153.534 67.648C152.766 67.392 151.998 67.2213 151.23 67.136C150.547 67.0507 149.822 66.9227 149.054 66.752C146.921 66.4107 144.702 66.368 142.398 66.624C140.094 66.7947 137.918 67.136 135.87 67.648C134.931 67.8187 133.95 68.0747 132.926 68.416C131.987 68.672 131.006 68.8427 129.982 68.928C128.958 69.0987 127.934 69.184 126.91 69.184C125.971 69.184 124.99 69.1413 123.966 69.056C123.113 69.056 122.217 69.0133 121.278 68.928C120.425 68.8427 119.571 68.8 118.718 68.8C118.547 68.7147 118.249 68.7573 117.822 68.928C117.481 69.0133 117.139 69.056 116.798 69.056C116.542 69.056 116.286 68.8853 116.03 68.544C115.774 68.288 115.689 67.9893 115.774 67.648L116.03 66.624C116.201 66.1973 116.286 65.8987 116.286 65.728L116.542 64.448L116.798 63.168C117.139 61.2907 117.438 59.4133 117.694 57.536C118.035 55.6587 118.334 53.7813 118.59 51.904C118.846 50.368 118.931 48.7893 118.846 47.168C118.761 45.5467 118.633 43.9253 118.462 42.304C118.377 41.7067 118.291 41.0667 118.206 40.384C118.206 39.7013 118.163 39.0187 118.078 38.336V34.24C118.078 32.7893 118.035 31.3813 117.95 30.016C117.779 27.6267 117.609 25.28 117.438 22.976C117.267 20.5867 117.139 18.24 117.054 15.936C116.969 14.656 116.883 13.4187 116.798 12.224C116.798 10.944 116.713 9.70667 116.542 8.512C116.457 7.82933 116.329 7.06133 116.158 6.208C116.073 5.35467 115.731 4.672 115.134 4.16C114.878 3.98933 114.537 3.86133 114.11 3.776C113.683 3.69067 113.299 3.648 112.958 3.648C112.531 3.648 112.062 3.69067 111.55 3.776C111.038 3.776 110.569 3.81867 110.142 3.904C109.801 3.904 109.459 3.94667 109.118 4.032H108.094C105.278 4.20267 102.419 4.288 99.518 4.288C96.6167 4.20267 93.758 4.11733 90.942 4.032C90.5153 3.94667 90.0887 3.904 89.662 3.904H88.382H87.614C87.0167 3.81867 86.59 3.81867 86.334 3.904C86.078 3.904 85.7793 3.98933 85.438 4.16C85.182 4.24534 84.9687 4.416 84.798 4.672C84.4567 5.184 84.3287 5.73867 84.414 6.336C84.4993 6.93333 84.6273 7.53067 84.798 8.128C84.9687 8.72533 85.054 9.152 85.054 9.408C85.1393 10.0907 85.182 10.7733 85.182 11.456V13.248V14.144V14.912V16.32C85.182 16.7467 85.2247 17.216 85.31 17.728V20.416C85.3953 21.2693 85.3953 22.1653 85.31 23.104V23.488C85.31 24.1707 85.2673 24.8533 85.182 25.536C85.182 26.1333 85.2247 26.7733 85.31 27.456C85.3953 28.48 85.566 29.504 85.822 30.528C86.078 31.4667 86.2913 32.4053 86.462 33.344C86.6327 34.7947 86.7607 36.288 86.846 37.824L87.102 42.176V43.456L87.358 44.48L87.614 49.088C87.6993 50.624 87.6567 52.16 87.486 53.696C87.3153 55.1467 87.0167 56.5973 86.59 58.048C86.2487 59.4987 85.9927 60.9493 85.822 62.4C85.31 64.8747 85.0113 67.392 84.926 69.952C84.926 72.4267 84.7553 74.944 84.414 77.504C84.3287 79.04 84.2007 80.6187 84.03 82.24C83.9447 83.776 83.9873 85.3547 84.158 86.976C84.2433 87.3173 84.286 87.7013 84.286 88.128C84.3713 88.5547 84.4993 88.9813 84.67 89.408C84.8407 89.7493 85.054 90.0907 85.31 90.432C85.566 90.688 85.822 90.9867 86.078 91.328Z" fill="currentColor"/>
<path d="M3.072 92.736L4.992 91.328C5.07733 91.2427 5.16267 91.2 5.248 91.2H5.376C7.33867 91.5413 9.30133 91.84 11.264 92.096C13.312 92.2667 15.3173 92.48 17.28 92.736C18.6453 92.8213 19.968 92.9067 21.248 92.992C22.6133 92.992 23.9787 92.9493 25.344 92.864H26.624L27.904 92.608H28.8C29.4827 92.608 29.952 92.5653 30.208 92.48L31.232 92.224C31.6587 92.1387 32 91.968 32.256 91.712C32.512 91.456 32.6827 91.1573 32.768 90.816C32.9387 90.3893 33.024 90.0053 33.024 89.664C33.1093 89.408 33.1093 89.152 33.024 88.896V88C32.9387 87.744 32.896 87.5307 32.896 87.36C32.896 86.5067 32.8107 85.6533 32.64 84.8C32.5547 83.9467 32.512 83.0507 32.512 82.112C32.4267 81.4293 32.4267 80.7467 32.512 80.064C32.6827 79.3813 32.8107 78.6987 32.896 78.016L33.152 75.712C33.2373 74.944 33.28 74.176 33.28 73.408C33.28 72.5547 33.1947 71.7013 33.024 70.848C32.8533 69.9093 32.6827 69.0133 32.512 68.16C32.512 67.904 32.4267 67.6053 32.256 67.264L32 66.24C31.9147 65.8987 32 65.5573 32.256 65.216C32.512 64.96 32.768 64.832 33.024 64.832C33.3653 64.832 33.7067 64.8747 34.048 64.96C34.3893 65.0453 34.6453 65.088 34.816 65.088C35.9253 65.088 37.0347 65.0453 38.144 64.96L41.472 64.448C43.6053 64.1067 45.7813 63.9787 48 64.064C50.2187 64.1493 52.4373 64.32 54.656 64.576C55.68 64.6613 56.6613 64.7467 57.6 64.832C58.5387 64.9173 59.4773 64.96 60.416 64.96H61.952C62.464 64.96 62.976 65.0027 63.488 65.088H64.64C65.4933 65.1733 66.3467 65.216 67.2 65.216C68.0533 65.1307 68.864 64.8747 69.632 64.448C69.9733 64.2773 70.272 64.0213 70.528 63.68C70.784 63.2533 70.9973 62.8693 71.168 62.528C71.3387 62.1867 71.424 61.8453 71.424 61.504C71.5093 61.1627 71.552 60.8213 71.552 60.48C71.808 59.3707 72.0213 58.2613 72.192 57.152C72.3627 55.9573 72.4907 54.7627 72.576 53.568C72.6613 52.3733 72.6187 51.1787 72.448 49.984C72.2773 48.704 72.0213 47.424 71.68 46.144C71.68 45.888 71.6373 45.632 71.552 45.376C71.4667 45.0347 71.424 44.736 71.424 44.48C71.2533 43.712 71.1253 42.7733 71.04 41.664C70.9547 40.5547 70.6133 39.744 70.016 39.232C69.76 38.976 69.4187 38.8053 68.992 38.72L67.968 38.464C67.3707 38.464 66.7307 38.5067 66.048 38.592C65.3653 38.6773 64.7253 38.7627 64.128 38.848C63.7867 38.848 63.488 38.8907 63.232 38.976C62.976 38.976 62.72 39.0187 62.464 39.104C62.1227 39.104 61.7813 39.1467 61.44 39.232C61.0987 39.3173 60.7573 39.36 60.416 39.36L57.088 39.872C55.9787 40.0427 54.8693 40.0853 53.76 40C53.248 40 52.6933 39.9573 52.096 39.872L50.56 39.616C49.792 39.5307 48.9813 39.4453 48.128 39.36C47.2747 39.2747 46.4213 39.2747 45.568 39.36C44.288 39.4453 42.9653 39.5307 41.6 39.616L37.504 39.872C37.3333 39.872 37.0773 39.9147 36.736 40L35.712 40.256C35.456 40.256 35.2 40.0853 34.944 39.744C34.688 39.488 34.56 39.232 34.56 38.976C34.56 38.6347 34.6027 38.2933 34.688 37.952C34.8587 37.5253 34.944 37.2267 34.944 37.056V34.496C34.8587 34.1547 34.7733 33.7707 34.688 33.344V32.192C34.688 32.0213 34.6027 31.7227 34.432 31.296L34.176 30.528C34.0907 30.1867 34.2187 29.888 34.56 29.632C34.9013 29.376 35.2 29.2907 35.456 29.376C35.712 29.376 36.0107 29.4613 36.352 29.632C36.6933 29.8027 36.992 29.888 37.248 29.888L39.296 30.144H41.6H42.368C42.9653 30.0587 43.52 30.016 44.032 30.016C44.6293 30.016 45.2267 30.0587 45.824 30.144C46.592 30.2293 47.3173 30.4 48 30.656C48.6827 30.8267 49.408 30.9973 50.176 31.168C50.944 31.3387 51.7547 31.4667 52.608 31.552C53.4613 31.6373 54.272 31.7227 55.04 31.808C55.3813 31.8933 55.808 31.9787 56.32 32.064C56.9173 32.1493 57.5573 32.2347 58.24 32.32C58.9227 32.4053 59.6053 32.4053 60.288 32.32C61.056 32.32 61.824 32.2773 62.592 32.192C63.4453 32.0213 64.256 31.808 65.024 31.552C65.4507 31.4667 65.8347 31.3813 66.176 31.296C66.5173 31.1253 66.9013 30.9973 67.328 30.912C68.0107 30.7413 68.736 30.5707 69.504 30.4C70.3573 30.2293 70.9973 29.8453 71.424 29.248C71.936 28.6507 72.192 28.0107 72.192 27.328C72.192 26.56 72.1493 25.792 72.064 25.024V23.872C71.9787 22.4213 71.936 20.9707 71.936 19.52C72.0213 18.0693 72.192 16.6613 72.448 15.296C72.6187 14.016 72.832 12.7787 73.088 11.584C73.344 10.3893 73.5147 9.152 73.6 7.872V7.488C73.6853 6.72 73.6853 5.952 73.6 5.184C73.6 4.33067 73.344 3.56267 72.832 2.88C72.2347 2.28267 71.5093 1.94134 70.656 1.856C69.888 1.68533 69.12 1.6 68.352 1.6H67.712H66.304C65.8773 1.51467 65.4507 1.51467 65.024 1.6C63.6587 1.6 62.2507 1.77067 60.8 2.112C59.4347 2.368 58.0693 2.66667 56.704 3.008C54.5707 3.52 52.4373 3.94667 50.304 4.288C48.256 4.62934 46.2933 4.62934 44.416 4.288L42.624 4.032C42.0267 3.94667 41.4293 3.81867 40.832 3.648L38.272 3.136C37.504 2.96533 36.6933 2.88 35.84 2.88C34.2187 2.96533 32.64 3.22134 31.104 3.648C29.6533 3.98934 28.16 4.33067 26.624 4.672C24.832 5.01333 22.9973 5.26933 21.12 5.44C19.2427 5.61067 17.3653 5.73867 15.488 5.824C14.2933 5.824 13.056 5.86667 11.776 5.952C10.496 5.952 9.216 5.99467 7.936 6.08C7.68 6.08 7.296 6.03734 6.784 5.952C6.10133 5.952 5.41867 5.99467 4.736 6.08C4.05333 6.08 3.456 6.29333 2.944 6.72C2.432 7.14667 2.176 7.744 2.176 8.512C2.26133 9.28 2.38933 10.048 2.56 10.816V11.712C2.64533 11.968 2.688 12.224 2.688 12.48C2.688 13.0773 2.64533 13.6747 2.56 14.272C2.47467 14.8693 2.38933 15.424 2.304 15.936L2.048 17.216C1.96267 17.5573 1.92 17.9413 1.92 18.368C1.83467 19.0507 1.74933 19.776 1.664 20.544V22.592V24V25.28C1.57867 26.2187 1.536 27.1147 1.536 27.968C1.536 28.8213 1.57867 29.6747 1.664 30.528C1.74933 31.7227 1.92 32.9173 2.176 34.112C2.432 35.2213 2.60267 36.3733 2.688 37.568C2.77333 38.1653 2.77333 38.7627 2.688 39.36V41.024C2.688 41.6213 2.64533 42.048 2.56 42.304C2.56 44.1813 2.51733 46.0587 2.432 47.936C2.34667 49.8133 2.304 51.6907 2.304 53.568V55.872C2.38933 56.64 2.432 57.408 2.432 58.176V60.096C2.51733 60.6933 2.56 61.2907 2.56 61.888V63.808V65.6C2.47467 66.2827 2.432 66.9653 2.432 67.648V69.568C2.432 70.4213 2.47467 71.3173 2.56 72.256C2.64533 73.1093 2.688 74.0053 2.688 74.944C2.688 75.8827 2.64533 76.864 2.56 77.888C2.56 78.8267 2.51733 79.808 2.432 80.832C2.432 81.6853 2.38933 82.5387 2.304 83.392V85.952V88.512V90.944C2.38933 91.2853 2.47467 91.584 2.56 91.84C2.73067 92.096 2.90133 92.3947 3.072 92.736Z" fill="currentColor"/>
</svg>
