<svg width="359" height="97" viewBox="0 0 359 97" fill="none" xmlns="http://www.w3.org/2000/svg">
<g clip-path="url(#clip0_146_14)">
<path d="M199.752 0.914766C201.527 0.871696 203.421 0.742178 205.182 0.996274C208.826 1.52219 211.148 2.7 215.086 2.32529C216.849 2.15771 226.236 4.33399 228.06 5.01977C229.381 5.5172 230.624 6.1847 231.708 7.09545C234.221 9.20339 236.777 11.4331 238.916 13.9196C241.541 16.9675 247.473 26.2989 247.817 30.2797C247.995 32.347 247.829 34.487 247.801 36.5614L247.708 47.5287C247.648 58.0732 249.667 68.1526 243.212 77.0899C242.038 78.7158 240.19 82.1777 238.774 83.5592C234.62 87.6165 228.255 92.4129 222.457 93.5248C217.735 94.25 213.064 94.8395 208.504 95.2182C207.899 95.2653 206.005 95.408 205.46 95.335C199.905 94.5926 187.978 93.856 182.966 92.3385C179.549 91.3039 170.98 83.7341 168.392 80.9717C166.8 79.2717 164.085 77.3568 163.135 75.111C161.887 72.1611 162.034 69.265 161.55 66.369C160.859 62.2386 159.824 58.8921 159.888 54.556C159.933 51.4737 160.356 49.1012 160.615 46.0996C160.717 44.9237 160.176 42.304 160.147 40.7624C160.053 35.8161 161.418 30.8221 163.249 26.2582C163.634 25.2982 165.134 23.763 165.689 22.6487C166.793 20.433 167.768 17.9859 169.225 15.9981C170.173 14.7043 172.007 13.218 173.289 12.1802C175.256 10.5874 178.132 8.40218 180.429 7.3637C182.459 6.44584 185.527 5.48848 187.701 4.84489C190.046 4.15122 192.16 3.33447 194.45 2.5965C196.357 1.98255 197.769 1.69529 199.752 0.914766ZM197.947 32.1521C197.96 33.047 198.075 36.0109 197.933 36.7143C197.182 40.3973 196.185 44.1211 195.451 47.8141C195.207 49.0471 194.259 51.5709 194.135 52.6562C193.644 56.9029 193.187 63.1 196.463 66.3369C197.224 67.0888 198.813 68.0001 199.899 68.067C203.384 68.4207 203.246 67.7933 206.377 66.3231C213.965 62.7609 212.791 51.9639 213.103 45.0179C213.297 40.6587 215.405 34.2651 211.968 30.7526C211.16 29.9336 208.437 30.1626 207.363 30.1988C203.75 30.4583 201.28 30.5994 197.947 32.1521Z" fill="currentColor"/>
<path d="M112.05 2.16837C117.68 1.49931 118.193 6.3692 118.248 10.6209C118.268 12.248 118.865 14.0137 118.898 15.697C118.851 21.3188 119.02 26.4677 119.692 32.0412C120.307 37.144 119.683 43.0673 120.152 48.2609C120.59 51.677 119.501 54.9922 119.179 58.2084C118.823 61.775 118.553 63.5688 117.598 67.0344C120.592 66.878 125.24 68.2103 128.218 67.5912C137.382 65.6855 147.335 62.9805 156.405 67.0009C156.65 67.1097 157.61 68.2129 157.845 68.4815C158.924 72.3699 156.486 76.5908 155.951 80.475C155.759 81.8675 156.009 83.6063 155.881 84.7782C155.802 85.4941 155.057 87.7793 154.821 88.7393C154.088 89.3453 153.652 89.8796 153.039 90.5916C150.518 91.4371 147.802 91.4111 145.229 91.8946C143.157 92.2838 141.105 92.9758 138.998 93.3814C135.618 94.0321 132.431 94.2273 129.032 94.4989C126.645 94.9758 124.418 95.371 122.042 95.7499C117.469 96.5563 113.195 94.8387 108.731 94.182C104.509 93.5609 100.524 92.912 96.2474 93.4163C95.7331 93.4301 95.1844 93.5205 94.6742 93.5241C91.5758 93.546 87.7437 94.6146 85.1352 92.4209C84.0687 91.5239 83.4283 90.8617 83.1123 89.4895C82.1248 85.0706 82.724 80.5258 83.0455 76.0601C83.4814 70.0044 83.4432 63.8306 85.0989 57.954C87.3439 49.9855 85.1545 41.3329 84.7396 33.2563C84.6062 32.4747 84.4503 31.629 84.2432 30.866C83.3744 27.6657 83.8963 24.4768 83.8077 21.1858C83.6883 16.7592 83.9799 12.2723 83.103 7.8931C82.9265 7.01166 82.8918 4.47978 83.4432 3.71595C84.9195 2.20391 87.3439 2.24239 89.2946 2.39255C96.8881 2.97704 104.485 3.05108 112.05 2.16837Z" fill="currentColor"/>
<path d="M268.258 93.5152C267.808 93.3023 266.592 92.625 266.222 92.2943C262.185 88.6745 265.029 82.3906 264.913 77.7318C264.724 70.0554 259.951 64.5502 258.967 57.189C258.499 53.699 259.417 49.6638 259.266 46.1219C259.166 43.8444 258.826 40.4392 258.509 38.1763C258.131 35.4759 257.332 32.4313 257.032 29.6971C256.722 26.8637 256.784 23.8315 256.444 20.994C256.195 18.9208 254.735 17.1595 253.987 15.3122C253.102 13.1227 252.911 10.7641 252.431 8.49449C252.065 6.75358 251.026 6.73429 252.589 4.89312C253.258 4.08965 254.201 3.56106 255.236 3.40843C257.204 3.12112 259.433 4.14276 261.544 3.95541C263.345 3.79559 265.127 3.23614 266.875 3.05576C268.992 2.89909 270.967 2.78395 273.102 2.65862C276.78 2.44286 280.654 1.44205 284.324 1.89617C285.293 2.01592 285.984 2.48921 286.697 3.09677C286.965 3.73119 287.482 4.89973 287.566 5.53628C287.804 7.328 287.157 9.18536 286.954 10.9579C286.811 12.2046 286.753 13.4611 286.621 14.7075C286.551 15.3579 286.169 15.9457 286.229 16.6162C286.712 22.0157 288.769 25.808 290.479 30.8103C290.853 31.9035 291.455 35.0485 291.678 36.2805C291.793 36.9472 291.872 37.7113 292.245 38.2628L292.503 38.2651C292.792 37.7685 292.801 37.2603 292.862 36.6891C293.041 34.7836 293.4 33.0576 293.628 31.183C294.003 28.0861 293.265 25.5161 295.18 22.8036C299.089 21.3973 298.781 22.5663 302.181 22.5544C305.934 22.5413 311.97 20.3089 314.749 24.3941C315.998 26.2283 316.533 29.0912 317.363 31.3394C318.463 34.3475 319.87 37.234 321.563 39.9533C322.174 36.4885 321.509 32.6647 322.018 29.1795C322.369 26.7885 322.816 24.3353 323.25 21.9546C323.914 19.7591 324.247 17.8891 324.618 15.6398C325.286 11.6071 322.777 2.18611 329.051 1.92827C331.718 1.81861 334.572 2.31954 337.125 2.19497C343.08 1.90416 348.613 1.70487 354.497 2.96752C357.3 3.56048 357.34 4.40201 358.824 6.52241V12.0082L358.409 12.1615C358.148 13.2466 358.062 14.261 357.762 15.4471C357.217 17.5983 356.04 20.366 355.872 22.4984C355.611 25.8274 356.096 29.9245 355.583 33.191C355.066 36.4746 353.508 40.753 352.869 43.9562C352.326 46.6854 353.011 47.6755 351.975 51.0313C351.656 52.935 351.14 54.9321 351.068 56.8233C350.966 59.496 351.238 61.9275 351.003 64.6221C350.66 70.5309 349.652 74.0206 348.499 79.7671C347.988 82.0398 347.727 84.4693 347.113 86.6961C344.646 95.9582 340.03 93.7199 332.182 94.0259C328.727 94.1607 316.757 96.0918 314.865 91.939C312.697 87.1822 311.648 81.4466 309.642 76.4101C308.445 73.4052 307.799 70.8263 306.285 67.6801C305.307 71.6714 303.28 75.4401 302.073 79.5617C300.941 83.4267 299.156 93.1468 294.567 94.4067C291.625 95.2143 286.577 93.882 283.375 93.9359C280.668 93.9816 277.698 94.0711 274.974 94.1056C272.312 93.9837 271.489 93.1878 268.258 93.5152Z" fill="currentColor"/>
<path d="M61.7181 0H71.1259C72.9883 1.1063 73.5358 1.44885 74.9494 3.11246C75.0728 4.61939 75.3235 10.811 74.8573 11.9762C72.7399 17.27 74.3378 22.4166 73.7105 27.9145C73.6182 28.7246 73.0127 29.8751 72.4925 30.5189C71.0442 32.2872 62.786 33.7044 60.7858 33.821C56.0467 34.0973 49.6206 32.3956 45.0063 31.737C43.0962 31.4646 38.4625 31.6812 36.165 31.5579C36.2264 32.5675 36.3953 37.5499 36.5838 38.0685C37.4472 38.3861 45.7266 37.6432 47.4862 37.6913C50.1488 37.7642 52.9129 38.6823 55.5326 38.5265C59.4099 38.2961 66.9339 35.7876 70.3034 37.3839C70.9876 37.708 71.406 38.2385 71.7214 38.9149C72.3567 40.2781 72.5279 41.967 72.8145 43.442C73.1642 45.2419 73.6007 47.0665 73.805 48.8875C74.3117 53.4053 74.0345 59.0413 72.4483 63.307C71.9781 64.5717 71.3754 65.3638 70.1261 65.9262C66.3502 67.6265 50.9814 65.5058 45.7252 65.6158C41.7929 65.6982 37.6676 66.9267 33.7773 66.6073C34.0568 69.0675 35.0027 71.3318 35.0922 73.4309C35.1155 74.1413 35.0724 74.8521 34.9636 75.5544C34.52 78.2988 33.8022 79.671 33.9026 82.6766C34.0526 87.165 36.4378 93.6062 29.679 94.1361C23.3527 94.7356 17.086 94.1508 10.7742 93.6225C9.03093 93.4751 7.06914 93.0064 5.37546 92.9703C4.6828 93.408 3.61473 94.2406 2.79555 94.229C2.01698 94.2182 0.999834 92.3978 0.957397 91.7671C0.647608 87.1627 0.889868 82.4118 0.921385 77.7968L0.848875 51.5961C0.874431 46.0852 1.15277 40.1246 0.784187 34.6153C0.751004 34.1193 0.617178 33.4858 0 33.5405V17.4484C1.62246 15.6954 0.735831 9.47807 0.943934 6.52134C3.65642 3.74136 5.99138 4.54879 9.51399 4.39496C13.036 4.38029 16.6418 4.03453 20.1553 4.00393C25.5335 3.95711 30.5505 1.65058 35.8625 1.45196C38.2673 1.36204 41.4778 2.34106 43.9078 2.74235C48.852 3.55885 53.3551 2.32504 58.1057 1.08C59.5261 0.710248 60.7825 1.23705 61.7181 0Z" fill="currentColor"/>
</g>
<defs>
<clipPath id="clip0_146_14">
<rect width="358.824" height="97" fill="currentColor"/>
</clipPath>
</defs>
</svg>
