<svg width="238" height="238" viewBox="0 0 238 238" fill="none" xmlns="http://www.w3.org/2000/svg">
<path d="M46.4675 58.9681C44.0967 61.2515 43.6599 64.1052 41.1942 67.1668C38.7895 70.2955 37.9071 70.4849 35.7885 74.5233C33.6721 78.5568 31.5531 82.631 30.9841 84.5979C30.3968 86.558 29.8185 86.5701 28.9949 89.3637C28.1878 92.1487 27.6313 93.8287 26.9027 96.2623C26.0825 98.6953 24.7274 106.405 24.5723 109.274C24.3097 112.096 24.0472 115.352 24.0224 117.307C24.0081 117.918 24.0027 118.4 24.0008 118.771C23.9999 118.927 24 119 24 119C24 119 24 119 24 119C24 119 24 119 24 119C24.0001 119 23.9997 118.887 23.9996 118.686C23.9988 117.708 24.0133 116.25 24.0492 114.543C24.1304 111.329 24.1778 111.005 24.5612 106.677C25.0028 102.389 25.1774 99.7414 26.369 94.7809C27.7352 89.8593 27.2336 88.4627 30.0651 81.7658C33.2187 75.2412 32.6259 74.1352 35.8669 67.5491C39.1554 60.9429 45.5169 54.0831 48.501 50.8584C51.4052 47.5389 55.5332 43.1537 60.7092 39.5393C65.8413 35.9497 72.1321 31.0984 78.7601 28.7226C85.3309 26.2347 95.0039 24.3309 99.5229 24.1619C104.03 23.9346 105.09 23.9646 109.331 23.0791C111.753 22.5875 115.204 22.5722 118.068 23.474C119.515 23.9304 119.175 24.5918 117.749 24.905C115.666 25.3672 113.974 25.1396 112.939 25.9754C110.899 27.6484 110.133 28.2344 107.378 27.5973C104.622 27.0002 103.657 29.1115 102.113 29.0941C100.583 29.1426 100.309 27.8399 92.8537 30.4413C85.4749 33.1519 81.6255 34.9818 78.9711 36.2558C76.3176 37.5002 70.3947 39.5732 66.4412 42.4196C62.3946 45.0598 54.5367 51.0926 51.9892 54.1929C49.3791 57.1959 48.8881 56.7504 46.4675 58.9681Z" fill="currentColor"/>
<path d="M191.532 179.032C193.903 176.748 194.34 173.895 196.806 170.833C199.21 167.705 200.093 167.515 202.212 163.477C204.328 159.443 206.447 155.369 207.016 153.402C207.603 151.442 208.181 151.43 209.005 148.636C209.812 145.851 210.369 144.171 211.097 141.738C211.918 139.305 213.273 131.595 213.428 128.726C213.69 125.904 213.953 122.648 213.978 120.693C213.992 120.082 213.997 119.6 213.999 119.229C214 119.073 214 119 214 119C214 119 214 119 214 119C214 119 214 119 214 119C214 119 214 119.113 214 119.314C214.001 120.292 213.987 121.75 213.951 123.457C213.87 126.671 213.822 126.995 213.439 131.323C212.997 135.611 212.823 138.259 211.631 143.219C210.265 148.141 210.766 149.537 207.935 156.234C204.781 162.759 205.374 163.865 202.133 170.451C198.845 177.057 192.483 183.917 189.499 187.142C186.595 190.461 182.467 194.846 177.291 198.461C172.159 202.05 165.868 206.902 159.24 209.277C152.669 211.765 142.996 213.669 138.477 213.838C133.97 214.065 132.91 214.035 128.669 214.921C126.247 215.413 122.796 215.428 119.932 214.526C118.485 214.07 118.825 213.408 120.251 213.095C122.334 212.633 124.026 212.86 125.061 212.025C127.101 210.352 127.867 209.766 130.622 210.403C133.378 211 134.343 208.889 135.887 208.906C137.417 208.857 137.691 210.16 145.146 207.559C152.525 204.848 156.375 203.018 159.029 201.744C161.682 200.5 167.605 198.427 171.559 195.58C175.605 192.94 183.463 186.907 186.011 183.807C188.621 180.804 189.112 181.25 191.532 179.032Z" fill="currentColor"/>
</svg>
